<svg xmlns="http://www.w3.org/2000/svg" xmlns:xlink="http://www.w3.org/1999/xlink" preserveAspectRatio="xMidYMid" width="145" height="132" viewBox="0 0 145 132">
  <defs>
    <style>
      .animated-1, .animated-2 {
        fill: #98dce7;
      }

      .animated-1 {
        opacity: 0.26;
      }

      .animated-1, .animated-2, .animated-3 {
        fill-rule: evenodd;
      }

      .animated-3 {
        fill: #192a4a;
      }
    </style>
  </defs>
  <g>
    <path d="M-0.000,64.999 C-0.000,29.101 29.101,-0.000 65.000,-0.000 C100.899,-0.000 130.000,29.101 130.000,64.999 C130.000,100.898 100.899,129.999 65.000,129.999 C29.101,129.999 -0.000,100.898 -0.000,64.999 Z" class="animated-1"/>
    <path d="M72.000,83.999 L72.000,110.999 L69.000,112.999 L44.000,112.999 L41.000,110.999 L40.000,85.000 L43.000,81.999 L63.000,80.000 L72.000,83.999 Z" class="animated-2"/>
    <path d="M29.000,64.999 L29.000,56.000 L34.000,48.999 L124.000,47.999 L128.000,53.999 L128.000,64.999 L29.000,64.999 Z" class="animated-2"/>
    <path d="M62.816,57.612 C61.973,57.612 61.284,56.915 61.284,56.065 C61.284,55.216 61.973,54.521 62.816,54.521 L65.294,54.521 C66.137,54.521 66.827,55.216 66.827,56.065 C66.827,56.915 66.137,57.612 65.294,57.612 L62.816,57.612 ZM53.160,57.612 C52.317,57.612 51.627,56.915 51.627,56.065 C51.627,55.216 52.317,54.521 53.160,54.521 L55.638,54.521 C56.481,54.521 57.171,55.216 57.171,56.065 C57.171,56.915 56.481,57.612 55.638,57.612 L53.160,57.612 ZM43.529,57.612 C42.686,57.612 41.996,56.915 41.996,56.065 C41.996,55.216 42.686,54.521 43.529,54.521 L46.007,54.521 C46.850,54.521 47.539,55.216 47.539,56.065 C47.539,56.915 46.850,57.612 46.007,57.612 L43.529,57.612 ZM136.774,61.989 L112.556,104.285 L109.899,114.691 L117.512,107.143 L127.066,90.478 C127.092,90.400 127.143,90.349 127.168,90.298 L141.730,64.875 C140.606,63.149 138.843,62.118 136.774,61.989 L136.774,61.989 ZM109.822,102.919 C115.519,92.976 121.216,83.008 126.913,73.066 L126.913,65.725 L30.066,65.725 L30.066,120.665 C30.066,124.968 33.131,128.908 37.346,128.908 L119.632,128.908 C123.822,128.908 126.913,124.968 126.913,120.665 L126.913,96.942 L120.066,108.895 C119.990,109.023 119.913,109.126 119.811,109.205 L108.111,120.769 L108.111,120.769 C107.012,121.851 105.173,120.794 105.556,119.300 L109.618,103.408 C109.669,103.228 109.746,103.073 109.822,102.919 L109.822,102.919 ZM129.979,67.709 C131.511,65.029 133.044,62.351 134.577,59.672 C134.832,59.234 135.267,58.925 135.803,58.900 C139.686,58.667 143.033,60.650 144.821,64.128 C145.051,64.590 145.077,65.158 144.796,65.623 L129.953,91.559 L129.953,120.665 C129.953,126.668 125.508,131.999 119.607,131.999 L37.346,131.999 C31.445,131.999 27.000,126.668 27.000,120.665 L27.000,58.333 C27.000,52.331 31.445,47.000 37.346,47.000 L119.632,47.000 C125.508,47.000 129.979,52.331 129.979,58.333 L129.979,67.709 ZM65.116,98.644 L50.656,107.065 C49.634,107.658 48.357,106.912 48.357,105.726 L48.357,105.726 L48.357,88.881 C48.357,87.722 49.609,86.872 50.758,87.593 L65.141,95.964 C66.163,96.583 66.137,98.077 65.116,98.644 L65.116,98.644 ZM51.423,103.049 L61.309,97.304 L51.423,91.559 L51.423,103.049 ZM44.116,79.995 L68.794,79.995 C71.451,79.995 73.623,82.185 73.623,84.863 L73.623,109.745 C73.623,112.423 71.451,114.613 68.794,114.613 L44.116,114.613 C41.459,114.613 39.288,112.423 39.288,109.745 L39.288,84.863 C39.288,82.185 41.459,79.995 44.116,79.995 L44.116,79.995 ZM68.820,83.085 L44.116,83.085 C43.145,83.085 42.354,83.884 42.354,84.863 L42.354,109.745 C42.354,110.724 43.145,111.523 44.116,111.523 L68.794,111.523 C69.765,111.523 70.557,110.724 70.557,109.745 L70.557,84.863 C70.583,83.884 69.765,83.085 68.820,83.085 L68.820,83.085 ZM83.356,85.095 C82.513,85.095 81.823,84.400 81.823,83.549 C81.823,82.699 82.513,82.003 83.356,82.003 L95.005,82.003 C95.848,82.003 96.538,82.699 96.538,83.549 C96.538,84.400 95.848,85.095 95.005,85.095 L83.356,85.095 ZM83.356,112.630 C82.513,112.630 81.823,111.934 81.823,111.084 C81.823,110.234 82.513,109.538 83.356,109.538 L100.830,109.538 C101.673,109.538 102.363,110.234 102.363,111.084 C102.363,111.934 101.673,112.630 100.830,112.630 L83.356,112.630 ZM83.356,103.640 C82.513,103.640 81.823,102.945 81.823,102.095 C81.823,101.245 82.513,100.549 83.356,100.549 L103.384,100.549 C104.227,100.549 104.917,101.245 104.917,102.095 C104.917,102.945 104.227,103.640 103.384,103.640 L83.356,103.640 ZM83.356,94.650 C82.513,94.650 81.823,93.955 81.823,93.105 C81.823,92.254 82.513,91.559 83.356,91.559 L108.162,91.559 C109.005,91.559 109.694,92.254 109.694,93.105 C109.694,93.955 109.005,94.650 108.162,94.650 L83.356,94.650 ZM30.066,62.634 L126.887,62.634 L126.887,58.333 C126.887,54.005 123.822,50.090 119.607,50.090 L37.346,50.090 C33.131,50.090 30.066,54.031 30.066,58.333 L30.066,62.634 Z" class="animated-3"/>
  </g>
</svg>
