<svg xmlns="http://www.w3.org/2000/svg" xmlns:xlink="http://www.w3.org/1999/xlink" preserveAspectRatio="xMidYMid" width="105.5" height="142.062" viewBox="0 0 105.5 142.062">
  <defs>
    <style>
      .video-arrow-1 {
        fill: #181512;
        fill-rule: evenodd;
      }
    </style>
  </defs>
  <path d="M59.449,77.685 C53.539,78.289 50.360,81.892 50.202,87.946 C54.282,85.325 57.903,82.744 59.449,77.685 L59.449,77.685 ZM90.231,96.920 C83.482,97.005 78.762,100.789 77.760,106.807 C82.607,104.358 87.202,102.220 90.231,96.920 L90.231,96.920 ZM48.564,11.416 C47.786,11.381 47.452,11.264 47.216,11.368 C27.926,19.805 13.920,33.533 6.622,53.667 C4.767,58.785 4.293,64.230 4.966,69.710 C6.420,81.524 14.920,90.577 26.554,92.703 C32.564,93.800 38.479,93.901 44.209,91.209 C44.981,88.429 45.567,85.640 46.532,82.990 C48.055,78.812 50.752,75.578 54.963,73.864 C58.128,72.573 60.970,72.881 62.372,74.742 C64.140,77.091 63.769,79.768 62.274,81.848 C60.182,84.757 57.641,87.386 55.044,89.873 C53.357,91.489 51.226,92.635 49.335,93.963 C49.599,105.197 59.378,111.197 72.406,108.098 C73.008,106.606 73.555,104.971 74.307,103.439 C77.008,97.918 81.071,93.922 87.168,92.602 C89.457,92.107 91.916,92.128 93.564,94.352 C94.837,96.068 94.482,98.838 92.579,101.350 C89.555,105.341 85.436,107.907 81.009,110.018 C79.465,110.753 77.872,111.385 76.371,112.034 C76.130,129.339 89.779,143.196 105.492,138.148 C105.194,139.372 105.237,140.466 104.716,141.002 C104.140,141.596 103.062,141.892 102.181,141.954 C93.864,142.536 86.379,140.691 80.829,133.923 C76.686,128.871 74.122,123.008 72.810,116.569 C72.624,115.650 72.417,114.736 72.196,113.825 C72.165,113.692 72.012,113.589 71.716,113.233 C70.867,113.214 69.793,113.134 68.724,113.174 C55.486,113.660 49.109,109.301 44.566,96.325 C43.297,96.572 41.965,96.814 40.640,97.090 C32.803,98.717 25.218,97.961 17.944,94.539 C5.951,88.897 -0.781,77.104 0.105,63.422 C0.586,55.973 2.675,48.992 6.221,42.476 C14.813,26.682 27.085,15.016 43.935,8.587 C44.818,8.249 45.697,7.898 46.567,7.532 C46.687,7.482 46.752,7.305 47.217,6.699 C44.019,5.475 40.828,5.360 37.691,5.072 C34.602,4.788 31.500,4.632 28.140,4.401 C28.746,1.870 30.220,1.039 31.972,0.718 C33.985,0.350 36.073,-0.153 38.070,0.042 C43.416,0.565 48.771,1.181 54.023,2.231 C58.198,3.067 59.067,5.505 56.746,8.682 C51.817,15.431 46.831,22.148 41.812,28.851 C41.027,29.902 39.985,30.760 38.770,32.003 C37.178,29.616 38.200,28.154 39.065,26.741 C42.124,21.756 45.222,16.798 48.564,11.416 L48.564,11.416 Z" class="video-arrow-1"/>
</svg>
