<svg xmlns="http://www.w3.org/2000/svg" xmlns:xlink="http://www.w3.org/1999/xlink" preserveAspectRatio="xMidYMid" width="76.281" height="449.657" viewBox="0 0 76.281 449.657">
  <defs>
    <style>
      .hvr-cls-1 {
        fill: #26030c;
      }

      .hvr-cls-1, .hvr-cls-2, .hvr-cls-3, .hvr-cls-4, .hvr-cls-5, .hvr-cls-6 {
        fill-rule: evenodd;
      }

      .hvr-cls-2 {
        fill: #f1134e;
      }

      .hvr-cls-3 {
        fill: #bff672;
      }

      .hvr-cls-4 {
        fill: #004dff;
      }

      .hvr-cls-5 {
        fill: #ee5e22;
      }

      .hvr-cls-6 {
        fill: #fae939;
      }
    </style>
  </defs>
  <g>
    <path d="M3.600,374.779 L17.002,449.655 L41.010,440.061 L3.600,374.779 Z" class="hvr-cls-1"/>
    <path d="M7.248,388.437 L34.337,435.706 L16.954,442.654 L7.248,388.437 Z" class="hvr-cls-2"/>
    <path d="M10.060,373.393 L47.080,415.459 L58.677,388.368 L10.060,373.393 Z" class="hvr-cls-1"/>
    <path d="M16.699,377.304 L51.974,388.169 L43.559,407.825 L16.699,377.304 Z" class="hvr-cls-3"/>
    <path d="M28.512,240.829 C21.996,240.829 16.696,235.529 16.696,229.014 C16.696,222.500 21.996,217.198 28.512,217.198 C35.026,217.198 40.326,222.500 40.326,229.014 C40.326,235.529 35.026,240.829 28.512,240.829 ZM28.512,222.199 C24.753,222.199 21.696,225.257 21.696,229.014 C21.696,232.771 24.753,235.829 28.512,235.829 C32.270,235.829 35.326,232.771 35.326,229.014 C35.326,225.257 32.270,222.199 28.512,222.199 Z" class="hvr-cls-4"/>
    <path d="M33.753,149.680 L39.479,150.453 L36.115,155.153 L37.149,160.837 L31.642,159.090 L26.556,161.831 L26.516,156.052 L22.336,152.062 L27.818,150.239 L30.323,145.031 L33.753,149.680 Z" class="hvr-cls-1"/>
    <path d="M33.366,150.334 L38.027,150.963 L35.290,154.788 L36.133,159.416 L31.647,157.993 L27.507,160.226 L27.474,155.522 L24.072,152.271 L28.536,150.788 L30.575,146.547 L33.366,150.334 Z" class="hvr-cls-5"/>
    <path d="M0.007,6.447 L42.073,43.466 L14.982,55.063 L0.007,6.447 Z" class="hvr-cls-1"/>
    <path d="M3.918,13.085 L14.783,48.360 L34.439,39.944 L3.918,13.085 Z" class="hvr-cls-6"/>
    <path d="M1.393,-0.015 L76.270,13.387 L66.676,37.396 L1.393,-0.015 Z" class="hvr-cls-1"/>
    <path d="M15.051,3.634 L62.320,30.723 L69.268,13.340 L15.051,3.634 Z" class="hvr-cls-2"/>
  </g>
</svg>
