<svg xmlns="http://www.w3.org/2000/svg" xmlns:xlink="http://www.w3.org/1999/xlink" preserveAspectRatio="xMidYMid" width="67.313" height="335.375" viewBox="0 0 67.313 335.375">
  <defs>
    <style>
      .hvl-cls-1 {
        fill: #f1134e;
      }

      .hvl-cls-1, .hvl-cls-2, .hvl-cls-3, .hvl-cls-4, .hvl-cls-5 {
        fill-rule: evenodd;
      }

      .hvl-cls-2 {
        fill: #004dff;
      }

      .hvl-cls-3 {
        fill: #26030c;
      }

      .hvl-cls-4 {
        fill: #ee5e22;
      }

      .hvl-cls-5 {
        fill: #fae939;
      }
    </style>
  </defs>
  <g>
    <path d="M59.794,335.370 C55.645,335.370 52.270,331.996 52.270,327.847 C52.270,323.697 55.645,320.323 59.794,320.323 C63.942,320.323 67.317,323.697 67.317,327.847 C67.317,331.996 63.942,335.370 59.794,335.370 ZM59.794,325.322 C58.402,325.322 57.270,326.455 57.270,327.847 C57.270,329.237 58.402,330.370 59.794,330.370 C61.186,330.370 62.317,329.237 62.317,327.847 C62.317,326.455 61.186,325.322 59.794,325.322 Z" class="hvl-cls-1"/>
    <path d="M41.632,317.041 C35.117,317.041 29.817,311.740 29.817,305.225 C29.817,298.710 35.117,293.410 41.632,293.410 C48.147,293.410 53.447,298.710 53.447,305.225 C53.447,311.740 48.147,317.041 41.632,317.041 ZM41.632,298.410 C37.874,298.410 34.817,301.468 34.817,305.225 C34.817,308.983 37.874,312.041 41.632,312.041 C45.390,312.041 48.447,308.983 48.447,305.225 C48.447,301.468 45.390,298.410 41.632,298.410 Z" class="hvl-cls-2"/>
    <path d="M40.982,181.925 L40.335,172.813 L48.689,176.508 L57.156,173.078 L56.223,182.164 L62.102,189.157 L53.171,191.077 L48.338,198.828 L43.752,190.928 L34.887,188.727 L40.982,181.925 Z" class="hvl-cls-3"/>
    <path d="M42.117,182.313 L41.591,174.896 L48.391,177.904 L55.284,175.111 L54.524,182.508 L59.310,188.200 L52.040,189.764 L48.106,196.074 L44.372,189.644 L37.155,187.852 L42.117,182.313 Z" class="hvl-cls-4"/>
    <path d="M11.638,28.797 L-0.000,48.167 L51.817,63.000 L11.638,28.797 Z" class="hvl-cls-3"/>
    <path d="M3.907,47.512 L12.859,32.613 L43.762,58.921 L3.907,47.512 Z" class="hvl-cls-5"/>
    <path d="M29.639,-0.001 L52.000,58.569 L12.974,15.822 L29.639,-0.001 Z" class="hvl-cls-3"/>
    <path d="M17.422,17.897 L30.289,5.680 L47.552,50.900 L17.422,17.897 Z" class="hvl-cls-1"/>
  </g>
</svg>
