<svg xmlns="http://www.w3.org/2000/svg" xmlns:xlink="http://www.w3.org/1999/xlink" preserveAspectRatio="xMidYMid" width="277" height="67" viewBox="0 0 277 67">
  <defs>
    <style>
      .cls-logo-1 {
        fill: #ffd858;
      }

      .cls-logo-1, .cls-logo-2 {
        fill-rule: evenodd;
      }

      .cls-logo-2 {
        fill: #192a4a;
      }
    </style>
  </defs>
  <g>
    <path d="M30.536,3.733 C30.482,4.014 30.456,4.147 30.421,4.329 L30.241,4.447 C30.150,4.818 30.067,5.177 29.974,5.534 C29.896,5.835 29.790,6.129 29.728,6.434 C29.659,6.773 29.552,7.100 29.498,7.447 C29.450,7.760 29.487,8.112 29.328,8.391 C29.141,8.716 29.258,9.085 29.140,9.417 C29.031,9.724 28.978,10.053 28.901,10.371 C28.909,10.373 28.957,10.383 29.017,10.398 C28.910,11.381 28.779,12.365 28.968,13.415 C28.952,13.438 28.899,13.512 28.834,13.604 C28.900,13.626 28.961,13.647 29.023,13.668 C29.081,14.240 29.175,14.819 29.216,15.390 C29.266,16.092 29.477,16.778 29.422,17.493 C29.394,17.853 29.481,18.246 29.611,18.589 C29.690,18.800 29.550,18.838 29.501,18.967 C29.577,19.005 29.653,19.043 29.755,19.093 C29.801,19.546 29.848,20.012 29.897,20.492 C29.781,20.471 29.711,20.459 29.599,20.438 C29.519,20.648 29.272,20.803 29.464,21.237 C29.273,21.086 29.155,20.993 29.010,20.879 C28.964,21.168 28.946,21.283 28.923,21.426 C29.012,21.469 29.095,21.510 29.187,21.556 C29.197,21.690 29.208,21.844 29.219,21.993 C29.163,22.018 29.104,22.065 29.079,22.051 C28.899,21.945 28.726,21.827 28.551,21.714 C28.223,21.849 28.440,22.129 28.399,22.337 C28.350,22.325 28.302,22.315 28.234,22.300 C28.185,22.385 28.134,22.476 28.080,22.571 C27.876,22.485 27.684,22.404 27.412,22.288 C27.032,21.785 26.639,21.171 26.147,20.654 C25.893,20.387 25.721,20.019 25.439,19.841 C25.089,19.619 25.023,19.211 24.738,19.004 C24.423,18.776 24.294,18.407 24.026,18.184 C23.731,17.939 23.587,17.581 23.320,17.357 C22.683,16.826 22.246,16.084 21.529,15.646 C21.421,15.312 20.997,15.186 20.979,14.794 C20.609,14.618 20.346,14.311 20.067,14.024 C19.673,13.616 19.157,13.343 18.832,12.853 C18.740,12.714 18.544,12.645 18.302,12.481 C18.521,13.187 18.709,13.795 18.939,14.538 C18.919,14.602 18.852,14.813 18.785,15.025 C18.957,15.176 19.078,15.284 19.208,15.398 C19.364,16.113 19.796,16.822 19.659,17.628 C20.015,17.671 20.018,18.064 20.216,18.229 C20.319,19.129 20.754,19.879 21.066,20.776 C21.063,20.789 21.033,20.911 21.005,21.025 C21.081,21.367 21.407,21.570 21.416,21.963 C21.422,22.248 21.594,22.575 21.783,22.809 C22.013,23.095 22.125,23.445 22.157,23.744 C22.198,24.113 22.456,24.306 22.567,24.638 C22.547,24.720 22.518,24.842 22.476,25.009 C22.942,25.604 23.236,26.322 23.616,27.016 C23.576,27.131 23.537,27.245 23.487,27.391 L23.910,28.045 C23.765,28.024 23.699,28.013 23.560,27.993 C23.802,28.301 23.754,28.597 23.631,28.926 C23.551,28.930 23.460,28.934 23.382,28.937 C23.270,29.467 23.154,30.011 23.050,30.507 C22.854,30.566 22.705,30.609 22.514,30.668 C22.463,30.635 22.366,30.575 22.270,30.515 L22.125,30.609 C22.146,30.691 22.170,30.780 22.205,30.915 C21.859,31.181 21.472,31.115 21.086,31.008 C20.846,30.743 20.846,30.743 20.357,30.776 C20.521,30.864 20.583,30.898 20.680,30.950 C20.633,31.002 20.581,31.059 20.508,31.141 C20.395,31.011 20.302,30.905 20.186,30.773 C20.157,30.863 20.138,30.922 20.124,30.967 C19.661,30.937 19.197,30.908 18.678,30.875 L18.494,30.591 C18.463,30.702 18.444,30.766 18.419,30.853 C18.347,30.796 18.279,30.740 18.188,30.668 L17.926,30.838 C17.793,30.808 17.695,30.785 17.598,30.763 C17.620,30.552 17.497,30.313 17.699,30.131 C17.292,30.108 17.342,30.448 17.251,30.744 C17.159,30.625 17.087,30.532 17.012,30.434 C16.655,30.441 16.300,30.373 15.944,30.591 C15.646,30.772 15.310,30.568 14.997,30.346 C14.965,30.436 14.946,30.490 14.907,30.599 C14.811,30.500 14.727,30.410 14.619,30.297 C14.593,30.321 14.553,30.356 14.436,30.458 C14.197,30.444 13.851,30.360 13.537,30.424 C13.090,30.513 12.711,30.191 12.255,30.291 C11.855,30.378 11.422,30.338 10.990,30.261 C10.399,30.156 9.787,30.193 9.141,30.167 L9.367,30.518 C9.445,30.508 9.556,30.494 9.709,30.474 C9.712,30.606 9.715,30.723 9.719,30.861 C9.915,30.963 10.115,31.092 10.331,31.172 C10.513,31.238 10.671,31.458 10.899,31.308 C10.995,31.590 11.252,31.606 11.478,31.661 C11.464,31.730 11.454,31.779 11.447,31.816 C12.274,32.017 12.998,32.443 13.699,32.923 C13.967,32.978 14.234,33.031 14.499,33.086 L14.636,33.297 C15.013,33.451 15.342,33.585 15.715,33.738 C15.637,33.893 15.581,34.004 15.510,34.147 C15.730,34.263 15.936,34.373 16.127,34.475 C16.261,34.330 16.377,34.203 16.492,34.079 C16.983,34.300 17.434,34.501 18.011,34.759 C17.735,34.858 17.589,34.772 17.422,34.752 C17.435,35.102 17.736,34.985 17.898,35.076 C17.895,35.166 17.891,35.258 17.883,35.451 C18.018,35.406 18.145,35.365 18.272,35.323 C18.263,35.375 18.253,35.429 18.244,35.481 C18.292,35.382 18.340,35.281 18.394,35.171 C18.584,35.289 18.742,35.384 18.898,35.479 C18.885,35.574 18.876,35.646 18.866,35.725 C18.930,35.741 18.999,35.760 19.087,35.785 C19.234,35.642 19.391,35.492 19.534,35.353 C20.159,35.676 20.752,35.982 21.346,36.289 C21.340,36.317 21.335,36.346 21.329,36.374 C21.259,36.368 21.188,36.364 21.013,36.355 C21.278,36.639 21.497,36.874 21.752,37.147 C21.562,37.374 21.385,37.584 21.129,37.888 C21.128,37.901 21.117,38.051 21.102,38.239 C20.285,37.861 19.453,37.686 18.647,37.456 C17.531,37.138 16.500,36.617 15.415,36.231 C14.285,35.831 13.204,35.279 12.100,34.796 C11.472,34.521 10.835,34.265 10.212,33.978 C9.336,33.574 8.454,33.182 7.610,32.718 C7.238,32.514 6.817,32.456 6.465,32.171 C6.162,31.926 5.738,31.837 5.366,31.683 C4.416,31.289 3.478,30.868 2.487,30.582 C1.842,30.397 1.218,30.126 0.493,29.859 L-0.000,29.097 C0.175,28.974 0.322,28.777 0.649,28.852 C0.559,28.673 0.475,28.505 0.395,28.346 C0.705,27.711 1.216,27.302 1.905,26.968 C1.985,27.001 2.145,27.067 2.439,27.186 C2.473,27.211 2.641,27.333 2.843,27.478 C2.991,27.280 3.102,27.132 3.206,26.991 C3.538,27.014 3.871,27.016 4.197,27.071 C4.475,27.116 4.795,26.892 5.011,27.320 C5.042,27.167 5.051,27.116 5.069,27.026 C5.371,27.249 5.775,26.880 6.042,27.282 C6.159,27.224 6.264,27.173 6.388,27.112 C6.434,27.156 6.484,27.206 6.540,27.260 C7.462,27.070 8.394,27.236 9.344,27.336 C9.390,27.306 9.450,27.233 9.514,27.231 C9.770,27.225 10.093,27.146 10.270,27.272 C10.557,27.477 10.948,27.202 11.156,27.584 C11.312,27.495 11.456,27.414 11.610,27.324 C11.682,27.379 11.755,27.436 11.846,27.506 C11.920,27.462 12.003,27.414 12.129,27.342 C12.367,27.402 12.642,27.472 12.969,27.555 C12.873,27.713 12.817,27.806 12.739,27.936 C12.964,27.941 13.166,27.946 13.369,27.952 C13.405,27.871 13.441,27.792 13.498,27.665 C13.622,27.729 13.731,27.814 13.849,27.834 C13.953,27.853 14.067,27.799 14.175,27.779 C14.203,27.706 14.238,27.621 14.296,27.474 C14.425,27.541 14.535,27.598 14.721,27.693 C14.735,27.740 14.784,27.893 14.839,28.067 L15.090,27.904 C15.343,28.048 15.518,28.151 15.829,28.033 C16.357,27.833 16.954,27.867 17.523,27.817 C17.611,27.809 17.711,27.922 17.804,27.978 C17.826,27.902 17.845,27.838 17.843,27.844 C18.161,27.891 18.463,27.893 18.736,27.988 C19.013,28.084 19.261,28.272 19.588,28.458 C19.760,28.428 19.709,28.270 19.417,27.968 C19.735,28.079 19.841,28.115 19.971,28.161 C19.984,28.266 19.997,28.374 20.022,28.580 C20.149,28.400 20.234,28.278 20.330,28.142 C20.391,28.147 20.461,28.152 20.575,28.162 C20.591,28.066 20.662,27.912 20.616,27.858 C20.394,27.590 20.387,27.282 20.360,26.998 C19.940,26.607 19.925,26.036 19.692,25.571 C19.435,25.060 19.199,24.529 19.045,23.982 C18.897,23.458 18.759,22.919 18.512,22.450 C18.250,21.952 18.135,21.414 17.913,20.910 C17.686,20.396 17.528,19.846 17.392,19.299 C17.262,18.771 17.012,18.289 16.887,17.755 C16.761,17.212 16.589,16.659 16.374,16.144 C16.161,15.633 16.103,15.095 15.923,14.583 C15.744,14.073 15.588,13.554 15.447,13.033 C15.302,12.491 15.191,11.942 15.056,11.397 C14.928,10.874 14.788,10.353 14.641,9.786 C14.678,9.603 14.726,9.361 14.773,9.121 C14.836,9.131 14.907,9.142 14.971,9.153 C15.249,9.000 15.095,8.767 15.082,8.595 C15.315,8.371 15.533,8.162 15.769,7.934 C15.806,7.941 15.878,7.955 15.945,7.967 C16.076,7.458 16.498,7.505 16.862,7.536 C17.230,7.567 17.592,7.691 17.982,7.779 C18.463,8.340 19.290,8.557 19.560,9.378 C19.665,9.338 19.729,9.313 19.836,9.271 C20.140,9.609 20.461,9.966 20.825,10.371 C20.842,10.366 20.926,10.342 20.989,10.325 C21.313,10.616 21.635,10.892 21.939,11.187 C22.058,11.303 22.213,11.459 22.222,11.601 C22.243,11.963 22.386,12.182 22.705,12.349 C22.851,12.425 22.938,12.622 23.133,12.703 L22.810,12.203 C22.908,12.191 22.972,12.172 22.979,12.184 C23.165,12.537 23.487,12.765 23.778,13.001 C24.024,13.201 24.250,13.456 24.269,13.704 C24.293,14.027 24.524,14.169 24.624,14.550 C24.691,14.372 24.710,14.321 24.729,14.268 C25.209,14.492 25.377,14.608 25.427,14.998 C25.467,15.309 25.683,15.450 25.878,15.637 C25.788,15.457 25.697,15.275 25.540,14.963 C25.893,15.320 26.139,15.570 26.488,15.924 C26.277,14.628 26.403,13.472 26.404,12.311 C26.404,11.130 26.496,10.521 26.796,9.598 C26.851,9.430 26.798,9.226 26.841,9.052 C26.915,8.749 27.050,8.462 27.111,8.157 C27.168,7.878 27.119,7.571 27.191,7.297 C27.380,6.574 27.689,5.889 27.831,5.148 C27.846,5.074 27.975,5.027 28.059,4.961 C28.056,4.836 28.008,4.681 28.053,4.566 C28.274,3.998 28.485,3.421 28.770,2.889 C28.996,2.465 29.189,2.022 29.453,1.611 C29.714,1.203 30.078,0.929 30.375,0.584 C30.682,0.227 31.158,0.068 31.677,-0.001 C31.591,0.694 32.342,0.808 32.609,1.280 C32.487,1.055 32.365,0.829 32.243,0.606 C32.277,0.586 32.311,0.567 32.346,0.548 L32.619,0.969 C32.701,1.098 32.782,1.227 32.866,1.353 C32.962,1.493 33.023,1.678 33.240,1.672 C33.109,1.870 33.423,1.885 33.393,2.016 C33.341,2.255 33.691,2.122 33.665,2.354 C33.650,2.482 33.718,2.631 33.779,2.756 C33.855,2.910 33.963,3.048 34.048,3.180 C33.969,3.284 33.914,3.357 33.827,3.472 C33.961,3.440 34.046,3.419 34.164,3.390 C34.214,3.454 34.272,3.530 34.367,3.653 C34.327,3.853 34.281,4.091 34.239,4.303 C34.318,4.412 34.375,4.491 34.427,4.563 C34.536,4.539 34.625,4.520 34.747,4.491 C34.676,4.611 34.622,4.704 34.567,4.795 L34.657,4.935 C34.762,4.922 34.874,4.909 34.997,4.892 C35.119,5.335 35.174,5.785 35.442,6.180 C35.563,6.358 35.555,6.627 35.610,6.880 C35.605,6.878 35.647,6.894 35.711,6.917 C35.835,7.292 35.965,7.682 36.123,8.162 C35.925,8.094 35.792,8.049 35.669,8.007 C35.773,8.230 35.875,8.353 36.089,8.513 C36.087,8.535 36.088,8.560 36.084,8.585 C36.076,8.633 36.065,8.683 36.054,8.739 C36.102,8.749 36.151,8.757 36.199,8.767 C36.222,8.771 36.244,8.782 36.269,8.791 C36.325,8.993 36.380,9.196 36.454,9.465 L35.910,9.820 C35.915,9.857 35.921,9.895 35.926,9.932 C36.037,9.933 36.149,9.935 36.308,9.937 C36.337,9.883 36.387,9.787 36.482,9.604 C36.602,9.946 36.700,10.224 36.794,10.494 C36.731,10.560 36.683,10.609 36.633,10.661 C37.052,10.844 37.034,11.193 37.010,11.551 C37.002,11.665 37.018,11.786 37.050,11.899 C37.121,12.147 37.209,12.391 37.306,12.688 C37.301,12.695 37.256,12.748 37.165,12.856 C37.249,12.969 37.351,13.105 37.511,13.320 C37.518,13.266 37.492,13.335 37.507,13.392 C37.626,13.869 37.801,14.333 37.882,14.819 C37.890,14.865 37.932,14.903 37.948,14.950 C38.052,15.248 37.806,15.573 38.027,15.858 C38.221,16.111 38.125,16.411 38.200,16.682 C38.282,16.974 38.337,17.274 38.399,17.570 C38.418,17.662 38.404,17.762 38.436,17.847 C38.471,17.940 38.541,18.019 38.621,18.143 C38.584,18.252 38.535,18.392 38.500,18.495 L38.780,18.929 C38.684,19.353 38.582,19.782 38.885,20.187 C38.912,20.222 38.940,20.281 38.930,20.318 C38.766,20.943 39.137,21.516 39.133,22.136 C39.129,22.733 39.322,23.334 39.369,23.936 C39.432,24.736 39.438,25.536 39.464,26.337 C39.467,26.411 39.454,26.493 39.420,26.556 C39.108,27.146 38.791,27.732 38.505,28.264 C38.161,28.402 37.878,28.515 37.516,28.659 C37.388,28.596 37.180,28.493 36.977,28.395 C36.884,27.969 36.774,27.562 36.710,27.148 C36.647,26.731 36.600,26.308 36.600,25.888 C36.599,24.972 36.395,24.073 36.329,23.164 C36.290,22.626 36.092,22.096 36.212,21.550 C35.919,20.674 35.874,19.761 35.723,18.864 C35.659,18.476 35.651,18.075 35.523,17.691 C35.405,17.338 35.341,16.966 35.252,16.602 C34.974,15.467 34.701,14.330 34.415,13.197 C34.267,12.607 34.105,12.018 33.929,11.435 C33.752,10.847 33.512,10.267 33.363,9.685 C33.104,8.664 32.583,7.754 32.289,6.752 C32.134,6.223 31.797,5.740 31.513,5.254 C31.236,4.780 30.921,4.329 30.536,3.733 Z" class="cls-logo-1"/>
    <path d="M222.943,44.250 C222.132,44.978 221.455,45.623 220.879,46.378 C219.034,48.793 218.441,51.664 218.195,54.639 C218.091,55.894 218.060,57.232 218.767,58.300 C219.740,59.770 220.725,61.253 222.066,62.419 C223.155,63.368 224.510,63.514 225.798,63.885 C228.228,64.587 230.703,64.517 233.172,64.330 C236.119,64.107 238.267,62.363 240.187,60.178 C241.042,59.204 241.614,58.142 241.889,56.847 C242.916,51.974 241.276,47.672 237.348,45.177 C235.887,44.250 234.282,43.649 232.614,43.285 C229.443,42.594 226.338,42.494 223.540,44.630 C223.362,44.764 223.145,44.904 222.881,44.807 C222.896,44.662 222.911,44.527 222.943,44.250 Z" class="cls-logo-1"/>
    <path d="M234.352,46.786 C228.414,45.855 213.609,51.157 214.438,51.242 C220.126,51.816 225.637,48.583 231.233,48.419 C227.841,50.606 224.448,52.795 221.057,54.984 C218.985,56.319 216.908,57.311 216.409,59.711 C216.289,60.280 216.983,60.771 217.546,60.589 C222.802,58.887 228.076,57.256 233.366,55.688 C230.722,57.507 227.897,59.042 225.019,60.545 C223.885,61.137 224.720,62.716 225.855,62.123 C230.277,59.811 234.554,57.442 238.290,54.132 C239.004,53.499 238.431,52.338 237.484,52.612 C231.415,54.363 225.370,56.208 219.347,58.136 C221.190,56.305 224.997,54.558 226.516,53.578 C229.159,51.872 231.802,50.167 234.443,48.464 C235.089,48.047 235.244,46.927 234.352,46.786 Z" class="cls-logo-2"/>
    <path d="M231.779,35.244 C232.241,35.331 232.039,36.123 231.691,36.916 L231.558,37.224 L231.558,37.224 L231.497,37.345 L231.632,37.354 C233.798,37.508 236.156,38.218 238.217,39.768 L238.391,39.854 C238.484,39.947 238.579,40.039 238.675,40.131 L238.851,40.281 C239.144,40.534 239.428,40.806 239.704,41.098 C240.999,42.313 242.356,43.678 243.137,45.617 C244.192,47.711 244.719,49.807 244.719,52.426 C244.512,53.254 244.304,54.159 244.031,55.086 C243.658,58.392 241.371,61.233 237.790,63.623 L237.564,63.766 L237.543,63.783 C237.019,64.191 237.184,64.080 236.549,64.508 C236.202,64.745 235.913,64.950 235.768,65.068 C235.392,65.330 233.138,66.593 230.045,66.917 C225.117,67.446 221.572,65.325 219.546,63.687 C218.135,62.915 216.800,61.723 215.713,60.284 C214.131,58.190 213.077,56.094 213.077,53.474 L213.077,53.474 L213.078,52.840 C213.090,50.390 213.245,47.745 215.185,45.617 L215.185,45.617 C214.356,47.266 213.853,49.238 213.676,51.281 L213.690,51.260 C213.791,50.328 213.990,49.457 214.315,48.616 L214.419,48.362 L214.434,48.277 C214.565,47.654 214.823,47.127 215.161,46.633 C215.361,46.000 215.600,45.380 215.873,44.773 C215.750,44.915 215.628,45.059 215.509,45.205 L215.185,45.617 C215.440,45.280 215.693,44.945 215.949,44.612 C216.063,44.363 216.186,44.116 216.315,43.874 C217.210,42.787 220.592,36.798 228.744,35.420 C230.334,35.154 231.518,35.214 231.779,35.244 ZM224.859,40.524 L224.610,40.662 C224.042,40.986 223.459,41.378 222.876,41.849 C221.343,43.080 220.073,44.666 219.032,47.014 C218.859,47.132 218.598,48.247 218.598,48.306 C218.337,49.010 218.107,50.038 217.991,51.066 C217.559,55.240 219.261,58.955 222.112,61.185 C223.632,61.955 225.482,62.393 227.496,62.490 L227.991,62.508 L228.385,62.512 C231.280,62.512 234.188,61.614 236.393,59.893 L236.735,59.614 L236.774,59.585 L236.890,59.436 L237.123,59.117 L237.513,58.553 L237.857,58.039 C238.035,57.771 238.236,57.465 238.445,57.136 C238.728,56.490 239.026,55.666 239.409,54.500 C239.832,53.238 239.980,51.939 239.930,50.696 C239.739,49.964 239.454,49.055 239.024,47.930 C238.857,47.492 238.442,46.665 237.778,45.450 L237.602,45.130 L237.447,44.864 L237.301,44.632 L237.150,44.415 L236.864,44.105 C236.197,43.400 235.464,42.745 234.683,42.157 L234.208,41.811 L234.024,41.682 C232.908,41.218 232.010,41.084 232.010,41.084 C231.981,40.998 231.808,40.967 231.635,40.998 C231.635,40.998 231.345,40.967 230.536,41.027 C228.629,41.144 227.415,41.759 226.229,42.671 C226.113,42.757 226.027,42.817 225.998,42.787 C225.709,42.671 225.275,42.111 225.044,41.350 C224.965,41.114 224.911,40.887 224.878,40.674 L224.859,40.524 ZM215.321,58.833 L215.302,58.914 L215.260,58.850 C215.408,59.154 215.561,59.457 215.713,59.760 C216.238,60.456 216.822,61.095 217.465,61.675 C217.349,61.496 217.227,61.313 217.106,61.119 C216.426,60.420 215.826,59.654 215.321,58.833 ZM242.118,44.729 C243.338,47.425 243.691,50.443 243.304,53.448 C243.454,53.384 243.624,53.394 243.769,53.475 C244.145,50.793 243.790,47.959 242.609,45.617 C242.457,45.313 242.292,45.017 242.118,44.729 ZM214.983,47.230 L214.810,47.542 C214.682,47.778 214.567,48.017 214.464,48.255 L214.419,48.362 L214.384,48.570 C214.357,48.771 214.342,48.980 214.342,49.201 C214.261,49.608 214.199,50.019 214.155,50.430 C214.204,50.333 214.247,50.226 214.288,50.116 C214.412,49.214 214.616,48.367 214.897,47.542 C214.926,47.440 214.953,47.334 214.983,47.230 ZM231.333,37.337 C229.540,37.250 227.894,37.543 226.681,38.050 C227.420,37.873 228.159,37.759 228.898,37.759 C229.046,37.759 229.195,37.760 229.344,37.764 C229.654,37.755 229.964,37.759 230.272,37.773 L230.480,37.766 L230.480,37.766 L231.007,37.759 C231.102,37.759 231.197,37.760 231.291,37.762 L231.415,37.525 L231.415,37.525 L231.497,37.345 L231.333,37.337 Z" class="cls-logo-2"/>
    <path d="M31.179,64.507 C33.366,65.485 35.735,65.728 38.409,64.996 C41.993,63.775 48.251,61.151 45.638,51.448 C43.938,48.274 41.993,46.628 36.222,43.699 C34.034,42.478 32.394,41.563 32.151,41.074 C30.693,39.366 31.908,36.192 35.979,31.373 C37.680,29.663 39.563,27.955 40.049,27.955 C40.535,27.955 40.535,28.443 40.292,30.396 C40.049,32.836 40.049,32.836 40.778,33.325 C41.750,35.278 46.671,35.828 47.036,33.080 C47.522,31.616 47.583,29.663 46.853,27.710 C46.124,24.537 43.451,22.889 39.624,22.645 C38.652,22.645 37.437,22.645 36.951,22.889 C34.277,23.378 32.637,24.355 29.721,27.283 C25.893,30.883 23.220,35.948 23.706,39.122 C24.192,42.723 25.893,44.674 31.422,47.359 C36.222,49.801 37.194,50.472 38.166,51.693 C39.138,53.401 39.138,54.805 38.166,56.514 C36.708,58.954 33.549,60.175 33.305,58.466 C33.305,56.757 31.908,55.599 29.478,55.354 C27.048,55.111 26.076,55.781 26.076,57.735 C26.076,58.954 27.959,63.166 31.179,64.507 ZM52.777,63.957 C53.567,64.753 56.301,66.339 58.427,64.447 C58.974,63.957 59.156,63.775 59.156,60.053 L59.156,56.329 C59.156,56.329 60.371,56.757 61.586,57.551 C66.994,60.968 71.733,61.944 73.677,60.236 C74.466,59.747 75.620,56.514 70.396,56.329 C69.424,56.270 63.044,52.365 63.044,52.120 C62.801,52.120 67.723,48.702 71.429,38.268 C71.186,36.803 68.938,35.582 66.994,35.828 C65.779,36.071 64.989,36.803 63.531,39.060 C62.072,41.563 60.129,44.674 59.339,45.163 C58.852,45.955 58.914,45.896 58.670,45.406 C58.670,45.163 58.427,42.234 58.427,39.060 C57.637,27.466 57.152,24.964 55.207,23.988 C54.417,23.501 52.716,23.501 52.230,23.744 L52.168,23.796 L52.107,23.852 L52.049,23.912 C51.578,24.412 51.306,25.383 51.295,29.237 L51.295,29.724 C51.302,32.648 51.444,37.094 51.744,43.942 L51.746,58.634 C51.757,63.221 51.871,63.219 52.777,63.957 ZM82.820,63.287 C87.255,65.117 93.209,64.385 93.209,62.067 C93.209,61.517 92.116,60.480 91.143,59.930 C90.354,59.747 83.549,60.542 82.455,55.170 C82.274,54.438 82.212,54.438 83.002,54.438 C84.764,54.256 93.938,52.974 95.031,42.417 C94.667,40.282 93.088,35.094 84.339,37.718 C80.511,39.122 77.352,42.600 75.833,47.483 C75.226,49.618 74.315,60.357 82.820,63.287 ZM82.670,49.264 L82.638,49.252 C82.638,49.252 82.922,48.483 83.228,47.671 L83.382,47.263 C83.535,46.860 83.683,46.475 83.792,46.200 C84.399,45.285 86.100,43.150 86.890,42.600 C87.255,42.417 87.619,42.051 87.619,42.051 C88.227,41.501 88.409,41.685 88.227,42.600 C88.227,43.699 87.437,45.163 86.100,46.566 C85.129,47.665 82.820,49.434 82.638,49.252 L82.670,49.264 ZM108.245,64.507 C112.498,65.545 116.751,64.753 116.751,61.944 C116.751,60.236 115.050,58.771 112.498,58.771 C111.344,59.076 111.344,59.139 111.040,57.673 L111.041,46.626 C111.052,39.728 111.216,39.674 113.592,38.878 C116.691,37.414 117.541,37.169 117.844,36.314 C118.148,35.460 118.209,32.531 112.741,33.203 C110.873,33.487 110.746,33.453 110.737,29.547 L110.737,28.625 C110.737,23.805 110.494,20.693 109.947,19.534 C109.400,18.069 107.152,17.214 105.694,17.520 C105.147,17.825 104.783,18.374 104.783,19.228 C104.236,20.937 103.932,27.466 103.932,32.592 L103.932,33.491 C103.931,36.307 103.864,36.281 102.535,36.559 C99.983,37.718 98.039,38.878 97.735,39.732 C97.188,40.282 97.188,40.586 97.735,41.136 C98.586,42.600 99.983,43.150 101.988,42.845 C102.013,42.845 102.038,42.845 102.063,42.845 L102.206,42.846 C103.441,42.866 103.401,43.281 103.689,51.143 C103.689,51.294 103.689,51.443 103.689,51.592 L103.688,53.293 C103.697,60.079 103.938,63.175 108.245,64.507 ZM124.923,61.517 C128.507,65.117 135.433,65.728 140.719,62.982 C143.695,61.274 144.060,59.139 141.327,57.673 C140.050,57.246 138.228,57.062 137.376,57.673 C135.676,58.527 132.820,60.053 131.059,58.771 C130.634,57.917 130.634,54.927 131.241,53.034 C131.849,50.045 133.124,47.542 134.825,45.224 C136.101,43.514 137.985,41.196 138.410,41.196 C138.593,41.196 139.079,41.442 139.685,41.624 C140.719,42.234 142.663,42.234 143.270,41.806 C143.878,41.379 144.060,40.098 143.635,39.060 C143.453,38.024 141.386,35.522 136.101,35.887 C134.400,36.314 132.517,37.351 130.816,39.060 C128.689,40.952 127.413,42.845 125.955,45.406 C123.829,49.862 121.641,57.612 124.923,61.517 ZM150.288,63.957 C152.049,65.485 154.905,65.728 155.937,64.447 C156.180,64.202 156.666,63.470 156.666,62.433 C158.246,53.951 160.434,49.678 161.405,47.787 C162.377,46.323 163.106,46.017 163.593,48.580 C164.079,51.937 164.868,56.026 164.564,61.885 C165.050,62.677 165.840,65.545 171.004,63.957 C172.038,63.470 172.219,62.677 171.976,61.395 C171.733,60.907 171.491,59.321 171.491,57.551 C171.248,51.631 169.971,44.247 168.939,42.173 C168.149,40.892 166.265,36.803 160.251,38.817 C158.975,39.610 158.489,40.403 156.424,43.455 C155.390,45.529 155.148,45.712 154.905,45.224 C154.905,44.475 154.716,40.707 154.493,36.787 L154.439,35.844 C154.221,32.074 153.986,28.374 153.873,27.283 C153.873,25.758 153.629,24.476 153.386,24.232 C152.596,22.951 149.801,22.401 148.768,23.195 C147.979,23.439 147.979,23.744 147.736,26.795 C147.492,31.922 148.221,49.862 149.255,59.871 C149.497,62.921 149.497,62.921 150.288,63.957 ZM183.854,63.226 C184.522,64.812 186.709,65.728 188.531,65.485 L188.628,65.474 C190.775,65.246 190.626,65.378 192.603,54.012 C193.695,46.994 193.695,46.994 193.939,48.337 C195.519,53.951 198.435,61.029 200.439,63.043 C201.533,64.142 205.786,65.911 206.758,62.128 C208.581,53.340 211.922,30.273 211.922,26.002 C211.922,24.415 211.255,23.501 209.917,22.829 C209.006,22.401 206.758,22.401 205.847,22.645 C204.936,23.073 204.693,23.501 204.267,28.686 C204.045,30.944 203.673,33.955 203.267,36.974 L203.151,37.837 C203.113,38.124 203.073,38.411 203.034,38.695 L202.915,39.548 C202.422,43.076 201.926,46.317 201.623,48.014 L201.554,48.392 C201.457,48.911 201.386,49.217 201.352,49.252 C201.352,49.252 200.038,44.159 198.637,39.023 L198.390,38.117 C197.190,33.745 195.980,29.559 195.519,28.686 C195.093,28.015 192.907,25.087 189.018,28.015 C189.018,28.015 188.849,29.457 188.652,31.102 L188.593,31.600 C188.573,31.768 188.552,31.936 188.531,32.104 C188.299,33.659 188.055,35.362 187.821,37.041 L187.713,37.815 C187.073,42.439 186.527,46.693 186.527,46.994 C186.284,47.665 186.101,47.238 185.859,45.652 C184.947,42.051 184.096,37.718 183.185,33.203 C182.091,27.101 181.849,26.246 180.937,25.574 C179.844,24.659 176.320,23.501 175.956,25.758 C175.762,27.028 176.461,32.944 177.558,38.946 L177.726,39.847 C177.952,41.046 178.194,42.241 178.448,43.393 C180.026,50.594 182.942,61.211 183.854,63.226 ZM252.374,62.860 C253.347,64.935 255.048,65.728 257.720,65.545 C258.875,65.545 261.670,65.117 263.067,58.466 C263.432,56.940 263.432,56.940 264.403,58.466 C266.287,61.517 268.536,63.287 270.844,63.836 C273.700,64.202 275.582,63.043 276.555,60.542 C276.763,59.985 276.989,56.328 277.000,51.671 L277.000,50.814 C276.995,49.370 276.970,47.844 276.917,46.295 L276.881,45.365 C276.875,45.211 276.869,45.055 276.862,44.901 L276.815,43.966 C276.749,42.723 276.664,41.485 276.555,40.282 C276.190,37.596 276.007,37.291 274.671,36.497 C273.334,35.948 271.087,35.704 270.115,36.497 C269.932,36.682 269.507,37.046 269.507,37.414 C269.507,37.779 269.568,39.914 269.749,42.234 C269.932,44.736 269.932,48.519 269.932,51.205 C269.932,51.316 269.932,51.425 269.932,51.531 L269.931,52.137 C269.922,55.778 269.844,55.741 269.507,55.232 C268.536,53.524 267.623,49.313 267.260,45.285 C267.077,43.210 266.773,41.563 262.884,41.624 C261.002,41.624 260.819,41.990 260.029,44.492 C259.821,45.153 259.374,47.192 258.905,49.226 L258.729,49.986 C258.435,51.244 258.142,52.434 257.903,53.219 C256.202,57.368 256.566,48.153 256.384,43.759 C256.202,41.257 256.202,40.831 255.838,40.282 C255.290,39.914 253.468,37.108 250.855,39.914 C250.309,41.442 250.126,49.678 250.492,53.889 C250.855,57.917 251.584,61.517 252.374,62.860 Z" class="cls-logo-2"/>
  </g>
</svg>
