<svg xmlns="http://www.w3.org/2000/svg" xmlns:xlink="http://www.w3.org/1999/xlink" preserveAspectRatio="xMidYMid" width="96.313" height="84.44" viewBox="0 0 96.313 84.44">
  <defs>
    <style>
      .btn-left-1 {
        fill: #004dff;
      }

      .btn-left-1, .btn-left-2, .btn-left-3 {
        fill-rule: evenodd;
      }

      .btn-left-2 {
        fill: #000;
      }

      .btn-left-3 {
        fill: #f4cb58;
      }
    </style>
  </defs>
  <g>
    <path d="M60.855,69.943 L64.281,82.690 L94.752,45.622 L92.480,29.547 L60.855,69.943 Z" class="btn-left-1"/>
    <path d="M2.352,56.125 L54.060,45.940 L56.111,52.235 L2.631,69.511 L2.352,56.125 Z" class="btn-left-1"/>
    <path d="M95.667,34.485 C95.303,29.237 94.920,27.790 91.139,24.210 C85.511,18.900 78.984,14.720 72.423,10.671 C68.746,8.409 64.968,6.432 61.162,4.408 C58.792,3.140 53.333,-1.557 50.671,0.498 C48.527,2.161 48.972,7.399 48.817,9.726 C48.530,14.163 48.821,18.611 48.916,23.043 C40.928,21.926 32.902,21.172 24.886,20.329 C21.676,19.985 5.666,16.192 3.842,19.677 C2.546,22.161 2.828,26.728 2.539,29.392 C2.040,33.915 1.819,38.448 1.537,42.986 C1.227,47.718 0.712,52.427 0.542,57.164 C0.439,59.843 -1.014,67.937 1.276,69.777 C4.224,72.151 10.089,68.935 12.942,67.887 C17.391,66.264 21.828,64.608 26.243,62.916 C35.498,59.358 45.141,57.026 54.493,53.762 C56.531,61.388 58.322,69.085 60.338,76.726 C61.066,79.490 61.408,85.796 65.389,84.157 C67.988,83.087 70.792,77.751 72.711,75.501 C78.664,68.531 84.099,61.142 89.643,53.840 C91.592,51.267 94.512,48.495 95.718,45.487 C96.951,42.407 95.888,37.716 95.667,34.485 ZM4.010,66.256 C3.914,64.579 2.993,60.897 3.624,59.360 C4.321,57.679 6.548,57.990 8.712,57.705 C8.809,60.104 8.904,62.510 8.990,64.915 C7.326,65.365 5.674,65.807 4.010,66.256 ZM20.563,60.288 C18.926,61.966 14.414,62.792 12.177,63.491 C12.024,61.358 11.871,59.228 11.715,57.106 C14.845,56.478 17.975,55.851 21.096,55.221 C21.235,56.968 21.827,58.988 20.563,60.288 ZM30.738,56.616 C28.662,57.395 26.584,58.182 24.506,58.970 C24.449,57.984 24.383,56.996 24.317,56.008 C24.335,55.186 24.198,54.470 25.805,54.011 C27.669,52.960 31.161,52.924 33.256,52.432 C33.407,55.464 33.645,55.513 30.738,56.616 ZM36.608,54.714 C36.537,53.785 36.479,52.849 36.408,51.920 C38.403,51.592 40.394,51.274 42.389,50.946 C42.170,54.258 39.674,53.859 36.608,54.714 ZM45.787,52.147 C45.597,49.196 50.399,49.504 53.065,49.012 C53.455,50.270 46.747,51.835 45.787,52.147 ZM61.500,65.394 C60.098,59.728 59.367,51.473 56.231,46.500 C53.807,42.654 48.330,45.235 44.535,45.918 C37.765,47.127 31.019,48.482 24.268,49.816 C18.149,51.024 11.095,53.296 4.848,53.242 C5.466,43.019 6.091,32.804 6.719,22.583 C19.215,23.613 31.680,25.418 44.103,27.150 C51.161,28.136 52.671,28.510 52.878,20.878 C53.024,15.715 52.510,10.630 53.333,5.484 C60.778,8.630 67.925,13.264 74.783,17.526 C77.811,19.418 89.287,25.294 89.694,29.562 C89.918,31.892 85.096,36.076 83.475,38.089 C81.119,41.012 78.760,43.944 76.404,46.866 C71.440,53.040 66.467,59.211 61.500,65.394 ZM64.518,79.302 C63.924,77.413 62.088,73.983 62.254,72.021 C62.407,70.267 64.222,68.482 65.204,67.062 C65.688,69.316 66.725,72.006 66.777,74.302 C66.833,76.912 66.253,77.190 64.518,79.302 ZM69.889,72.739 C69.320,70.546 68.140,67.868 68.045,65.622 C67.937,62.942 68.750,62.490 70.558,60.284 C70.979,62.752 71.768,65.431 71.932,67.926 C72.105,70.584 71.740,70.645 69.889,72.739 ZM75.053,66.405 C74.538,63.994 73.064,60.724 73.282,58.304 C73.485,55.989 75.375,54.545 76.923,52.744 C77.402,55.017 78.754,58.336 78.598,60.662 C78.462,62.712 76.396,64.664 75.053,66.405 ZM81.573,57.992 C80.963,56.048 79.421,52.281 79.586,50.237 C79.765,48.059 82.349,45.713 83.878,43.828 C84.694,46.965 84.640,50.217 85.091,53.414 C83.913,54.936 82.742,56.468 81.573,57.992 ZM88.154,49.254 C87.639,46.763 86.225,43.208 86.590,40.763 C86.790,39.471 90.723,34.224 91.639,34.571 C91.815,37.219 92.748,41.095 92.030,43.673 C91.480,45.651 89.403,47.610 88.154,49.254 Z" class="btn-left-2"/>
    <path d="M85.347,28.919 C81.035,24.720 75.159,21.585 70.142,18.369 C67.479,16.662 64.820,14.936 62.111,13.303 C57.488,10.514 55.756,10.543 55.788,15.878 C55.811,19.477 56.620,25.668 53.865,28.590 C51.307,31.303 47.470,30.456 44.173,30.015 C39.655,29.411 35.140,28.781 30.623,28.168 C26.786,27.646 22.880,26.838 19.017,26.589 C9.678,25.989 8.488,33.380 8.964,40.679 C9.028,41.660 8.866,46.418 10.765,45.232 C12.119,44.389 12.397,38.444 12.627,37.087 C13.185,33.803 13.698,31.122 17.743,30.716 C20.872,30.402 24.628,31.589 27.758,31.996 C33.049,32.681 38.339,33.383 43.632,34.057 C47.645,34.566 51.931,35.173 55.395,32.591 C60.390,28.868 59.790,21.847 59.702,16.339 C64.702,19.216 69.656,22.174 74.613,25.123 C76.521,26.256 78.425,27.396 80.308,28.572 C81.112,29.072 82.289,30.162 83.177,30.416 C83.864,30.611 87.539,31.054 85.347,28.919 Z" class="btn-left-3"/>
  </g>
</svg>
