<svg xmlns="http://www.w3.org/2000/svg" xmlns:xlink="http://www.w3.org/1999/xlink" preserveAspectRatio="xMidYMid" width="96.31" height="84.44" viewBox="0 0 96.31 84.44">
  <defs>
    <style>
      .btn-right-1 {
        fill: #004dff;
      }

      .btn-right-1, .btn-right-2, .btn-right-3 {
        fill-rule: evenodd;
      }

      .btn-right-2 {
        fill: #000;
      }

      .btn-right-3 {
        fill: #f4cb58;
      }
    </style>
  </defs>
  <g>
    <path d="M35.468,69.943 L32.041,82.690 L1.571,45.622 L3.843,29.547 L35.468,69.943 Z" class="btn-right-1"/>
    <path d="M93.971,56.125 L42.263,45.940 L40.212,52.235 L93.692,69.511 L93.971,56.125 Z" class="btn-right-1"/>
    <path d="M0.656,34.485 C1.020,29.237 1.403,27.790 5.184,24.210 C10.812,18.900 17.339,14.720 23.900,10.671 C27.577,8.409 31.355,6.432 35.161,4.408 C37.531,3.140 42.990,-1.557 45.652,0.498 C47.796,2.161 47.351,7.399 47.506,9.726 C47.793,14.163 47.502,18.611 47.407,23.043 C55.395,21.926 63.421,21.172 71.437,20.329 C74.647,19.985 90.657,16.192 92.481,19.677 C93.777,22.161 93.495,26.728 93.784,29.392 C94.283,33.915 94.504,38.448 94.786,42.986 C95.096,47.718 95.611,52.427 95.781,57.164 C95.884,59.843 97.337,67.937 95.047,69.777 C92.099,72.151 86.234,68.935 83.381,67.887 C78.932,66.264 74.495,64.608 70.080,62.916 C60.825,59.358 51.182,57.026 41.830,53.762 C39.792,61.388 38.001,69.085 35.985,76.726 C35.257,79.490 34.915,85.796 30.934,84.157 C28.335,83.087 25.531,77.751 23.612,75.501 C17.659,68.531 12.224,61.142 6.680,53.840 C4.731,51.267 1.811,48.495 0.605,45.487 C-0.628,42.407 0.435,37.716 0.656,34.485 ZM92.313,66.256 C92.409,64.579 93.330,60.897 92.699,59.360 C92.002,57.679 89.775,57.990 87.611,57.705 C87.513,60.104 87.419,62.510 87.333,64.915 C88.997,65.365 90.649,65.807 92.313,66.256 ZM75.760,60.288 C77.397,61.966 81.909,62.792 84.146,63.491 C84.299,61.358 84.451,59.228 84.608,57.106 C81.478,56.478 78.348,55.851 75.227,55.221 C75.088,56.968 74.496,58.988 75.760,60.288 ZM65.585,56.616 C67.661,57.395 69.739,58.182 71.817,58.970 C71.874,57.984 71.940,56.996 72.006,56.008 C71.988,55.186 72.125,54.470 70.518,54.011 C68.654,52.960 65.162,52.924 63.067,52.432 C62.916,55.464 62.678,55.513 65.585,56.616 ZM59.715,54.714 C59.786,53.785 59.844,52.849 59.915,51.920 C57.920,51.592 55.929,51.274 53.934,50.946 C54.153,54.258 56.649,53.859 59.715,54.714 ZM50.536,52.147 C50.726,49.196 45.924,49.504 43.258,49.012 C42.868,50.270 49.576,51.835 50.536,52.147 ZM34.823,65.394 C36.225,59.728 36.956,51.473 40.092,46.500 C42.516,42.654 47.992,45.235 51.788,45.918 C58.558,47.127 65.304,48.482 72.054,49.816 C78.174,51.024 85.228,53.296 91.475,53.242 C90.857,43.019 90.232,32.804 89.604,22.583 C77.108,23.613 64.643,25.418 52.220,27.150 C45.162,28.136 43.652,28.510 43.445,20.878 C43.299,15.715 43.813,10.630 42.990,5.484 C35.545,8.630 28.398,13.264 21.540,17.526 C18.512,19.418 7.036,25.294 6.629,29.562 C6.405,31.892 11.227,36.076 12.848,38.089 C15.204,41.012 17.563,43.944 19.919,46.866 C24.883,53.040 29.856,59.211 34.823,65.394 ZM31.805,79.302 C32.399,77.413 34.235,73.983 34.069,72.021 C33.916,70.267 32.101,68.482 31.119,67.062 C30.635,69.316 29.598,72.006 29.546,74.302 C29.490,76.912 30.070,77.190 31.805,79.302 ZM26.434,72.739 C27.003,70.546 28.183,67.868 28.278,65.622 C28.386,62.942 27.573,62.490 25.765,60.284 C25.344,62.752 24.555,65.431 24.391,67.926 C24.218,70.584 24.583,70.645 26.434,72.739 ZM21.270,66.405 C21.785,63.994 23.259,60.724 23.041,58.304 C22.838,55.989 20.948,54.545 19.400,52.744 C18.921,55.017 17.569,58.336 17.725,60.662 C17.861,62.712 19.927,64.664 21.270,66.405 ZM14.750,57.992 C15.360,56.048 16.902,52.281 16.737,50.237 C16.558,48.059 13.974,45.713 12.445,43.828 C11.629,46.965 11.683,50.217 11.232,53.414 C12.409,54.936 13.581,56.468 14.750,57.992 ZM8.169,49.254 C8.684,46.763 10.098,43.208 9.733,40.763 C9.533,39.471 5.600,34.224 4.684,34.571 C4.508,37.219 3.575,41.095 4.293,43.673 C4.843,45.651 6.920,47.610 8.169,49.254 Z" class="btn-right-2"/>
    <path d="M10.975,28.919 C15.287,24.720 21.163,21.585 26.181,18.369 C28.844,16.662 31.503,14.936 34.212,13.303 C38.835,10.514 40.567,10.543 40.535,15.878 C40.512,19.477 39.702,25.668 42.457,28.590 C45.015,31.303 48.852,30.456 52.150,30.015 C56.667,29.411 61.182,28.781 65.700,28.168 C69.536,27.646 73.443,26.838 77.306,26.589 C86.644,25.989 87.835,33.380 87.359,40.679 C87.295,41.660 87.456,46.418 85.557,45.232 C84.203,44.389 83.926,38.444 83.696,37.087 C83.138,33.803 82.624,31.122 78.579,30.716 C75.451,30.402 71.695,31.589 68.565,31.996 C63.274,32.681 57.984,33.383 52.691,34.057 C48.678,34.566 44.391,35.173 40.928,32.591 C35.932,28.868 36.533,21.847 36.620,16.339 C31.620,19.216 26.667,22.174 21.709,25.123 C19.802,26.256 17.897,27.396 16.014,28.572 C15.211,29.072 14.034,30.162 13.145,30.416 C12.458,30.611 8.784,31.054 10.975,28.919 Z" class="btn-right-3"/>
  </g>
</svg>
