<svg xmlns="http://www.w3.org/2000/svg" xmlns:xlink="http://www.w3.org/1999/xlink" preserveAspectRatio="xMidYMid" width="573" height="158" viewBox="0 0 573 158">
  <defs>
    <style>
      .cls-offer {
        fill: #ffd858;
        fill-rule: evenodd;
      }
    </style>
  </defs>
  <path d="M566.792,119.001 C566.725,118.709 566.656,118.419 566.573,118.130 C566.829,118.396 567.124,118.578 567.430,118.733 L566.792,119.001 ZM565.397,119.596 C564.995,119.771 564.593,119.938 564.185,120.097 C564.082,119.949 563.952,119.845 563.833,119.722 C564.354,119.705 564.876,119.643 565.397,119.596 ZM563.952,120.184 C562.308,120.818 560.644,121.245 559.149,120.889 C560.771,120.668 562.391,120.448 563.952,120.184 ZM552.513,131.302 C552.390,131.451 552.350,131.551 552.304,131.653 L552.304,131.406 C552.374,131.364 552.447,131.349 552.513,131.302 ZM538.141,131.475 L537.816,131.491 L538.071,131.408 L538.141,131.475 ZM482.205,77.788 C483.056,77.807 483.939,77.897 484.832,77.999 C484.148,78.002 483.444,78.092 482.747,78.210 L481.713,78.121 C481.876,78.013 482.046,77.930 482.205,77.788 ZM486.676,78.252 C487.423,78.370 488.170,78.481 488.935,78.616 L487.536,78.543 C487.270,78.408 486.971,78.336 486.676,78.252 ZM500.961,79.869 C501.031,80.542 501.440,80.445 501.459,81.226 C500.453,81.729 500.137,80.693 499.706,79.912 C500.127,79.904 500.546,79.900 500.961,79.869 ZM530.864,76.766 C534.139,77.110 537.979,76.602 540.506,79.311 C540.201,79.418 539.862,79.490 539.530,79.570 C529.898,79.776 519.807,81.197 508.003,81.434 C507.611,80.820 507.697,79.157 507.235,78.699 L505.352,78.908 C506.149,78.600 506.936,78.272 507.680,77.788 C514.925,80.196 522.673,77.957 530.173,79.311 C530.907,78.443 530.190,77.508 530.864,76.766 ZM535.182,92.512 C535.414,91.993 535.660,91.487 536.308,91.705 C536.544,91.454 536.640,92.396 536.583,93.038 L536.398,93.031 C536.012,92.830 535.607,92.654 535.182,92.512 ZM537.142,93.058 C537.251,92.654 537.278,92.161 537.005,91.615 C538.254,91.480 539.367,91.653 540.436,91.922 C539.523,92.220 538.679,92.654 537.985,93.089 L537.142,93.058 ZM538.560,98.310 C540.380,98.419 542.184,98.556 544.020,98.635 C542.868,98.706 541.709,98.811 540.553,98.970 C539.095,98.998 537.636,98.996 536.172,98.904 C536.926,98.654 537.743,98.485 538.560,98.310 ZM564.241,96.004 C564.161,95.862 564.102,95.698 564.009,95.574 L564.885,95.731 C564.670,95.783 564.457,95.885 564.241,96.004 ZM560.966,97.226 C560.308,97.216 559.631,97.185 558.960,97.169 C559.541,97.133 560.122,97.098 560.684,97.043 L560.966,97.226 ZM559.860,91.639 C561.013,92.101 562.139,92.642 563.235,93.280 C562.112,93.214 561.006,93.197 559.893,93.157 C556.187,92.374 551.659,92.538 547.039,92.811 C547.362,92.125 547.684,91.442 548.215,91.134 C549.075,90.389 548.697,92.372 549.408,91.973 C552.629,91.328 556.286,91.966 559.860,91.639 ZM563.374,93.373 C564.065,93.781 564.746,94.216 565.410,94.704 C565.005,94.730 564.603,94.756 564.212,94.768 C563.916,94.571 563.543,94.467 563.221,94.303 C563.162,94.044 563.205,93.741 563.374,93.373 ZM365.963,148.285 L366.528,148.248 C367.974,148.174 369.467,148.460 370.917,148.744 C369.451,149.377 367.788,148.563 365.963,148.285 ZM260.124,73.346 C253.549,72.922 246.926,72.740 240.413,73.346 C238.819,73.517 238.467,75.117 236.534,74.882 C237.723,74.227 236.401,73.752 235.281,73.448 C221.352,73.584 207.024,71.610 194.277,73.812 C195.274,74.080 195.056,75.043 195.455,75.664 C198.406,76.371 200.998,74.054 203.147,75.512 C200.752,78.421 194.659,77.081 191.662,79.306 C188.448,78.934 185.794,79.228 183.388,79.787 C180.332,78.462 177.609,79.992 173.357,78.760 C169.921,80.641 163.841,79.477 159.701,80.561 C158.454,80.442 158.286,79.692 157.375,79.390 C156.260,79.838 155.096,80.139 153.898,80.334 C152.729,80.255 151.552,80.198 150.396,80.222 C150.247,80.313 150.134,80.493 150.004,80.632 C142.720,80.694 134.786,78.566 128.795,81.655 L127.857,81.733 C125.060,80.448 121.915,82.324 119.935,79.845 C113.595,82.260 105.062,79.086 98.658,81.387 C95.596,80.886 90.318,80.905 87.764,82.787 C84.775,82.984 81.744,83.109 78.557,83.019 C77.512,82.991 76.408,82.872 75.272,82.716 C77.330,82.676 79.424,82.678 81.104,82.203 C79.499,80.513 73.221,80.601 71.962,82.203 C70.174,81.913 68.377,81.684 66.626,81.586 C66.701,81.387 66.704,81.176 66.514,80.932 C65.452,81.052 64.524,81.323 63.599,81.596 C60.935,81.804 58.238,82.381 55.606,82.516 C54.038,82.594 52.412,82.252 50.845,81.944 C51.007,81.776 51.124,81.553 51.107,81.227 C50.253,80.402 50.471,81.169 49.117,80.939 C48.988,81.216 49.004,81.438 49.072,81.636 C47.060,81.351 45.240,81.442 43.899,83.019 C43.195,81.023 40.324,81.940 39.771,83.532 C41.196,84.587 43.526,82.291 44.590,85.059 C42.393,85.181 39.817,85.525 37.162,86.208 C37.069,85.755 36.951,85.361 36.458,85.711 C32.560,87.810 27.160,85.814 23.197,86.663 C23.122,89.342 22.468,92.013 21.990,94.331 C21.101,94.329 20.221,94.320 19.394,94.258 L19.157,95.477 C20.796,95.722 22.340,95.855 23.826,95.926 C24.271,96.135 24.723,96.357 25.173,96.632 C25.145,96.681 25.102,96.696 25.080,96.756 C25.176,96.761 25.248,96.734 25.336,96.730 C25.959,97.109 26.605,97.448 27.274,97.726 C26.822,98.396 26.278,98.865 25.744,99.354 C22.684,98.676 20.903,98.305 19.274,100.106 C21.965,100.165 23.619,100.848 25.122,100.058 C24.873,100.404 24.683,100.884 24.534,101.449 C22.328,101.318 20.159,101.220 19.299,102.635 C19.479,102.675 19.640,102.644 19.816,102.678 C19.238,102.796 18.673,102.915 18.112,102.993 C17.931,103.109 17.843,103.421 17.881,104.013 L18.570,104.013 C20.799,104.120 23.009,104.602 25.158,105.072 C25.063,105.197 24.941,105.266 24.850,105.396 C25.248,105.831 25.748,105.556 26.261,105.304 C26.809,105.422 27.367,105.549 27.904,105.648 C27.958,105.735 28.013,105.791 28.059,105.904 C28.088,105.822 28.131,105.766 28.159,105.689 C28.481,105.745 28.792,105.762 29.107,105.807 C27.789,106.056 26.465,106.376 25.135,106.822 C26.219,106.884 27.339,107.144 28.485,107.472 C28.335,107.655 28.192,107.826 28.059,107.937 C27.737,107.987 27.478,108.191 27.189,108.324 L0.500,109.024 C14.241,110.295 28.488,111.356 42.634,111.052 C44.246,111.107 45.866,111.133 47.485,111.176 C47.470,111.373 47.440,111.619 47.345,112.008 C40.110,111.839 31.074,111.212 24.850,117.093 C25.219,118.246 25.241,119.294 25.105,120.293 C24.434,120.455 23.801,120.652 23.340,121.020 C23.795,120.989 24.258,120.951 24.716,120.905 C24.804,120.936 24.907,120.945 24.999,120.976 C24.863,121.615 24.680,122.236 24.472,122.851 C24.486,122.656 24.540,122.547 24.540,122.320 C23.210,121.544 21.870,120.943 20.867,121.812 C20.806,124.040 21.775,124.000 22.172,125.214 C22.036,125.169 21.890,125.105 21.757,125.065 C21.867,127.046 24.105,128.578 27.173,129.753 L26.917,129.802 C26.945,129.944 26.998,129.985 27.033,130.108 C25.122,130.039 23.268,129.281 22.373,130.656 C23.707,130.861 25.794,131.332 27.397,131.078 C28.098,132.014 29.275,131.323 30.447,130.794 C31.399,131.043 32.362,131.268 33.362,131.466 C33.427,131.605 33.515,131.657 33.573,131.832 C33.254,131.497 31.411,131.188 31.275,132.853 C33.291,132.431 35.777,134.089 37.522,132.766 C37.941,132.974 38.417,132.991 38.876,132.824 C39.573,134.379 41.573,133.859 42.290,133.361 C41.682,133.430 41.651,133.141 41.676,132.571 L41.804,132.597 C42.971,134.578 45.162,135.729 47.631,136.640 C45.369,136.274 43.062,136.194 41.416,137.747 C40.865,137.745 40.317,137.743 39.778,137.757 C39.651,137.181 39.492,136.583 39.573,136.028 C37.658,135.783 37.944,136.740 38.049,137.833 L37.590,137.871 C37.610,137.745 37.658,137.660 37.675,137.520 C37.114,137.247 36.695,137.539 36.302,137.980 C35.900,138.020 35.485,138.027 35.098,138.080 L35.948,138.395 C35.264,139.280 34.566,140.327 33.258,139.518 C33.512,138.832 33.498,138.364 33.015,138.123 C32.618,138.777 30.904,137.847 30.931,140.521 C32.924,140.803 36.244,141.772 37.356,138.801 C37.645,138.856 37.879,138.865 38.019,138.806 C37.996,138.923 37.981,139.038 37.937,139.149 C38.632,139.226 38.995,139.491 39.349,139.769 C39.645,139.569 39.791,139.323 39.859,139.048 C40.038,139.105 40.226,139.119 40.410,139.161 C40.287,139.389 40.128,139.540 40.018,139.807 C40.492,140.594 40.784,139.966 41.114,139.309 C41.446,139.363 41.780,139.425 42.121,139.449 C42.046,139.506 41.946,139.664 41.885,140.232 C43.091,139.280 44.376,139.434 45.389,141.088 C45.294,141.983 44.726,141.949 44.934,143.444 C46.233,143.993 45.613,140.760 46.551,140.590 C47.609,140.132 48.624,139.964 49.582,139.700 C50.912,140.011 52.171,140.642 53.294,141.932 C54.005,140.206 55.167,139.791 56.423,139.740 L56.340,139.933 L56.677,139.826 C57.906,140.417 58.997,141.107 59.792,142.034 C59.555,142.234 59.289,142.409 59.143,142.697 C59.490,142.651 59.806,142.637 60.123,142.618 C60.457,143.100 60.820,143.560 60.996,144.161 C61.646,143.401 63.089,143.551 64.650,143.840 C64.439,144.934 62.901,144.502 62.755,145.672 C62.868,145.721 62.983,145.733 63.096,145.774 C62.511,145.923 61.915,146.467 61.814,147.508 C62.609,147.090 63.972,147.887 64.119,146.054 L64.082,146.028 C66.754,146.412 69.788,144.962 73.023,145.479 C73.588,146.239 73.040,147.639 74.040,148.142 C76.503,148.792 79.203,147.427 81.829,147.592 C85.716,147.823 88.637,149.876 92.451,150.801 C101.011,152.879 110.034,152.740 117.075,153.098 C124.806,157.001 133.777,155.428 142.607,155.952 C155.236,156.702 168.704,158.628 181.720,157.416 C183.315,157.245 183.669,155.648 185.602,155.881 C184.414,156.538 185.735,157.010 186.855,157.314 C200.785,157.176 215.114,159.154 227.858,156.953 C226.859,156.684 227.081,155.719 226.683,155.100 C223.730,154.390 221.136,156.711 218.987,155.249 C221.382,152.338 227.480,153.682 230.476,151.459 C233.688,151.828 236.344,151.532 238.749,150.975 C241.802,152.300 244.526,150.771 248.780,152.002 C252.215,150.121 258.296,151.285 262.434,150.203 C263.687,150.317 263.846,151.069 264.760,151.375 C265.875,150.922 267.038,150.623 268.234,150.431 C269.410,150.509 270.582,150.564 271.745,150.540 C271.894,150.450 272.004,150.272 272.133,150.132 C279.420,150.070 287.352,152.198 293.340,149.107 L294.281,149.032 C297.074,150.314 300.223,148.438 302.202,150.918 C308.539,148.502 317.075,151.679 323.479,149.375 C326.542,149.876 331.819,149.859 334.373,147.975 C337.363,147.778 340.392,147.653 343.577,147.743 C344.620,147.772 345.729,147.887 346.865,148.047 C344.809,148.087 342.713,148.085 341.033,148.561 C342.634,150.248 348.918,150.161 350.173,148.559 C351.964,148.850 353.761,149.076 355.511,149.176 C355.438,149.373 355.435,149.589 355.624,149.830 C356.687,149.710 357.613,149.442 358.537,149.167 C360.212,149.037 361.901,148.763 363.580,148.542 C363.320,149.152 363.404,149.948 362.512,150.188 C375.259,152.389 389.587,150.414 403.517,150.550 C404.636,150.246 405.958,149.771 404.769,149.117 C406.702,148.881 407.054,150.481 408.649,150.652 C421.669,151.865 435.137,149.940 447.765,149.185 C456.593,148.664 465.568,150.237 473.297,146.334 C480.339,145.973 489.359,146.116 497.919,144.037 C501.735,143.110 504.655,141.060 508.544,140.827 C511.168,140.661 513.872,142.026 516.330,141.377 C517.333,140.875 516.785,139.475 517.346,138.713 C520.581,138.196 523.617,139.649 526.294,139.265 L526.254,139.287 C526.400,141.127 527.759,140.324 528.559,140.745 C528.459,139.702 527.861,139.159 527.277,139.008 C527.390,138.972 527.506,138.955 527.616,138.908 C527.470,137.736 525.935,138.170 525.723,137.077 C527.284,136.785 528.722,136.640 529.373,137.394 C529.555,136.794 529.917,136.339 530.249,135.852 C530.565,135.871 530.878,135.886 531.226,135.933 C531.080,135.644 530.818,135.468 530.582,135.269 C531.372,134.346 532.468,133.653 533.690,133.062 L534.033,133.167 L533.953,132.977 C535.205,133.026 536.368,133.439 537.082,135.169 C538.201,133.876 539.460,133.245 540.789,132.937 C541.748,133.202 542.765,133.366 543.821,133.826 C544.757,133.997 544.140,137.226 545.442,136.678 C545.645,135.185 545.080,135.216 544.983,134.324 C545.996,132.668 547.282,132.519 548.484,133.465 C548.421,132.904 548.325,132.742 548.252,132.682 C548.591,132.659 548.926,132.600 549.261,132.543 C549.587,133.204 549.883,133.829 550.354,133.041 C550.245,132.773 550.085,132.628 549.962,132.398 C550.145,132.353 550.334,132.341 550.517,132.284 C550.584,132.557 550.726,132.806 551.025,133.003 C551.377,132.730 551.743,132.460 552.433,132.386 C552.390,132.274 552.377,132.156 552.354,132.039 C552.490,132.101 552.729,132.092 553.015,132.037 C554.131,135.005 557.449,134.040 559.442,133.758 C559.468,131.084 557.758,132.016 557.353,131.357 C556.874,131.601 556.861,132.068 557.117,132.752 C555.808,133.561 555.107,132.516 554.427,131.629 L555.277,131.316 C554.885,131.264 554.470,131.255 554.074,131.216 C553.672,130.776 553.257,130.481 552.696,130.756 C552.712,130.894 552.762,130.980 552.786,131.107 L552.324,131.072 C552.430,129.973 552.716,129.017 550.799,129.263 C550.879,129.820 550.723,130.417 550.597,130.991 C550.055,130.980 549.507,130.980 548.959,130.982 C547.308,129.430 545.004,129.509 542.742,129.876 C545.213,128.963 547.402,127.814 548.564,125.831 L548.697,125.809 C548.720,126.377 548.690,126.667 548.079,126.598 C548.800,127.093 550.803,127.613 551.494,126.062 C551.955,126.227 552.433,126.213 552.849,126.002 C554.596,127.326 557.080,125.667 559.096,126.090 C558.960,124.426 557.117,124.735 556.798,125.069 C556.854,124.896 556.944,124.842 557.010,124.704 C558.007,124.504 558.970,124.280 559.923,124.027 C561.096,124.560 562.275,125.249 562.976,124.315 C564.577,124.569 566.669,124.097 567.998,123.896 C567.107,122.514 565.251,123.275 563.341,123.342 C563.374,123.222 563.431,123.181 563.457,123.037 L563.198,122.986 C566.267,121.812 568.506,120.280 568.615,118.298 L568.200,118.450 C568.599,117.238 569.565,117.273 569.506,115.046 C568.502,114.178 567.160,114.779 565.835,115.554 C565.832,115.781 565.885,115.893 565.899,116.084 C565.693,115.471 565.510,114.850 565.374,114.211 C565.467,114.182 565.566,114.173 565.656,114.142 L567.034,114.255 C566.566,113.885 565.938,113.691 565.267,113.530 C565.135,112.529 565.148,111.482 565.520,110.329 C559.296,104.450 550.261,105.074 543.030,105.245 C542.937,104.868 542.908,104.633 542.894,104.438 L549.710,102.616 C549.092,102.633 548.474,102.652 547.857,102.640 C546.784,102.616 545.718,102.612 544.648,102.594 C545.495,102.256 546.342,101.687 547.212,101.648 C548.245,101.615 549.381,102.199 550.497,102.581 L556.535,102.296 C558.020,101.926 559.468,101.463 560.870,101.025 C561.016,101.136 561.139,101.300 561.162,101.679 C561.531,101.826 561.557,101.203 561.850,101.172 C562.288,101.485 562.750,101.746 563.221,101.983 L564.045,101.942 C563.530,101.547 562.959,101.272 562.311,101.172 C562.175,101.063 562.035,100.892 561.886,100.709 C563.032,100.379 564.152,100.120 565.237,100.058 C563.909,99.610 562.587,99.292 561.265,99.044 C561.580,98.998 561.886,98.984 562.212,98.925 C562.242,99.004 562.285,99.055 562.311,99.141 C562.361,99.024 562.414,98.972 562.468,98.884 C563.006,98.785 563.564,98.656 564.112,98.540 C564.627,98.789 565.125,99.065 565.520,98.633 C565.427,98.503 565.307,98.434 565.214,98.310 C567.360,97.839 569.572,97.354 571.800,97.247 L572.492,97.247 C572.528,96.659 572.442,96.346 572.262,96.227 C571.701,96.151 571.136,96.033 570.555,95.912 C570.731,95.883 570.894,95.912 571.073,95.871 C570.217,94.457 568.044,94.553 565.839,94.682 C565.689,94.118 565.500,93.639 565.251,93.293 C566.752,94.085 568.403,93.402 571.096,93.344 C569.469,91.542 567.692,91.911 564.630,92.588 C564.095,92.101 563.550,91.631 563.095,90.963 C563.766,90.685 564.414,90.346 565.035,89.965 C565.125,89.973 565.194,89.995 565.291,89.989 C565.271,89.931 565.228,89.916 565.198,89.867 C565.649,89.594 566.101,89.373 566.546,89.162 C568.034,89.091 569.575,88.955 571.216,88.713 L570.977,87.491 C570.153,87.555 569.273,87.562 568.386,87.565 C567.905,85.250 567.250,82.576 567.177,79.897 C563.215,79.051 557.814,81.043 553.915,78.948 C553.420,78.594 553.300,78.989 553.211,79.444 C550.550,78.761 547.979,78.415 545.784,78.296 C546.847,75.527 549.178,77.822 550.604,76.766 C550.045,75.173 547.175,74.258 546.471,76.255 C545.133,74.675 543.313,74.588 541.300,74.873 C541.370,74.675 541.383,74.450 541.257,74.173 C539.902,74.405 540.121,73.637 539.267,74.462 C539.251,74.789 539.364,75.010 539.526,75.181 C537.958,75.487 536.335,75.831 534.764,75.750 C532.136,75.615 529.433,75.039 526.772,74.833 C525.848,74.557 524.922,74.289 523.859,74.168 C523.670,74.410 523.673,74.625 523.746,74.822 C521.996,74.922 520.199,75.148 518.409,75.439 C517.153,73.838 510.869,73.750 509.268,75.437 C510.949,75.914 513.045,75.911 515.100,75.952 C513.964,76.111 512.855,76.227 511.812,76.255 C508.627,76.346 505.598,76.220 502.609,76.023 C500.055,74.139 494.777,74.123 491.714,74.623 C485.310,72.320 476.775,75.497 470.437,73.081 C468.458,75.560 465.309,73.684 462.516,74.967 L461.576,74.891 C455.587,71.800 447.655,73.928 440.369,73.866 C440.239,73.726 440.129,73.549 439.980,73.458 C438.817,73.435 437.645,73.489 436.469,73.568 C435.273,73.375 434.111,73.076 432.995,72.623 C432.081,72.929 431.922,73.682 430.670,73.795 C426.531,72.714 420.450,73.878 417.016,71.997 C412.761,73.229 410.037,71.698 406.985,73.024 C404.580,72.466 401.923,72.171 398.711,72.541 C395.715,70.318 389.617,71.660 387.222,68.749 C389.371,67.287 391.965,69.608 394.918,68.898 C395.317,68.279 395.094,67.314 396.094,67.045 C383.349,64.844 369.021,66.823 355.091,66.685 C353.970,66.988 352.649,67.461 353.837,68.118 C351.904,68.350 351.550,66.754 349.956,66.583 C336.939,65.370 323.471,67.296 310.842,68.047 C302.013,68.572 293.041,66.998 285.311,70.901 C278.269,71.259 269.247,71.119 260.686,73.198 L260.124,73.346 ZM23.581,125.766 L22.945,125.498 C23.252,125.342 23.544,125.162 23.798,124.896 C23.713,125.183 23.645,125.475 23.581,125.766 ZM24.976,126.362 C25.495,126.405 26.017,126.471 26.540,126.485 C26.417,126.607 26.287,126.715 26.186,126.863 L24.976,126.362 ZM26.417,126.951 C27.982,127.211 29.601,127.434 31.223,127.655 C29.727,128.011 28.063,127.581 26.417,126.951 ZM37.859,138.065 C37.927,138.116 38.002,138.127 38.067,138.170 L38.067,138.419 C38.019,138.317 37.977,138.218 37.859,138.065 ZM29.499,107.788 L30.896,108.227 L29.250,108.270 C29.302,108.032 29.383,107.878 29.499,107.788 ZM29.403,103.992 L29.685,103.809 C30.247,103.859 30.828,103.897 31.411,103.932 C30.740,103.951 30.064,103.980 29.403,103.992 ZM108.167,84.551 C108.327,84.694 108.493,84.778 108.657,84.884 L107.623,84.977 C106.925,84.855 106.224,84.768 105.542,84.766 C106.432,84.661 107.317,84.571 108.167,84.551 ZM103.695,85.019 C103.399,85.100 103.099,85.174 102.838,85.304 L101.440,85.383 C102.205,85.245 102.949,85.133 103.695,85.019 ZM89.410,86.635 C89.825,86.666 90.243,86.670 90.665,86.675 C90.233,87.453 89.916,88.495 88.910,87.989 C88.933,87.211 89.342,87.309 89.410,86.635 ZM59.510,83.532 C60.184,84.274 59.464,85.204 60.198,86.075 C67.701,84.720 75.448,86.962 82.689,84.551 C83.435,85.039 84.223,85.365 85.019,85.674 L83.139,85.465 C82.675,85.920 82.757,87.586 82.370,88.200 C70.564,87.959 60.477,86.539 50.845,86.333 C50.511,86.255 50.170,86.182 49.868,86.075 C52.396,83.368 56.232,83.876 59.510,83.532 ZM55.191,99.275 C54.766,99.421 54.357,99.594 53.973,99.798 L53.786,99.800 C53.736,99.161 53.827,98.218 54.065,98.467 C54.716,98.253 54.956,98.756 55.191,99.275 ZM53.233,99.823 L52.389,99.852 C51.695,99.421 50.848,98.986 49.936,98.685 C51.007,98.416 52.117,98.243 53.364,98.378 C53.096,98.924 53.123,99.421 53.233,99.823 ZM51.811,105.074 C52.626,105.249 53.450,105.420 54.201,105.667 C52.736,105.760 51.276,105.764 49.816,105.735 C48.661,105.574 47.505,105.470 46.347,105.399 C48.187,105.320 49.994,105.185 51.811,105.074 ZM26.128,102.770 C25.914,102.651 25.700,102.545 25.485,102.498 L26.359,102.338 C26.267,102.465 26.210,102.627 26.128,102.770 ZM26.160,101.529 C25.768,101.522 25.363,101.493 24.963,101.470 C25.625,100.981 26.309,100.548 26.995,100.137 C27.169,100.506 27.206,100.808 27.153,101.067 C26.829,101.233 26.455,101.338 26.160,101.529 ZM27.138,100.047 C28.234,99.403 29.360,98.865 30.512,98.405 C34.086,98.730 37.743,98.092 40.965,98.737 C41.676,99.138 41.297,97.155 42.154,97.899 C42.689,98.205 43.007,98.889 43.331,99.572 C38.713,99.299 34.183,99.141 30.479,99.923 C29.366,99.962 28.257,99.976 27.138,100.047 ZM28.523,107.937 C28.686,107.954 28.782,108.130 28.883,108.279 L27.897,108.302 C28.104,108.182 28.322,108.080 28.523,107.937 ZM27.101,108.777 L27.173,108.735 L33.329,108.926 C33.771,109.046 34.206,109.181 34.658,109.278 C32.132,109.163 29.611,108.988 27.101,108.777 ZM42.518,109.403 C41.611,109.420 40.709,109.378 39.804,109.372 L40.410,109.148 L45.617,109.309 L45.726,109.359 L42.518,109.403 ZM52.228,138.239 L52.300,138.173 L52.555,138.258 L52.228,138.239 ZM313.970,146.210 C313.811,146.068 313.641,145.985 313.478,145.879 L314.511,145.788 C315.209,145.907 315.913,145.997 316.597,145.999 C315.703,146.101 314.820,146.192 313.970,146.210 ZM318.441,145.746 C318.736,145.662 319.035,145.591 319.301,145.456 L320.699,145.382 C319.935,145.517 319.188,145.628 318.441,145.746 ZM332.726,144.130 C332.311,144.099 331.892,144.095 331.471,144.086 L331.559,143.922 L332.755,143.969 L332.726,144.130 ZM360.252,144.936 C353.281,145.737 346.149,143.981 339.445,146.210 C338.701,145.726 337.914,145.399 337.117,145.091 L339.000,145.299 C339.165,145.135 339.263,144.818 339.335,144.450 C340.166,144.624 340.927,144.873 341.593,145.238 C345.844,144.006 348.568,145.537 351.623,144.211 C354.030,144.770 356.683,145.065 359.897,144.692 C360.012,144.778 360.128,144.861 360.252,144.936 ZM362.629,147.233 C362.223,146.786 362.326,146.271 362.308,145.742 C364.174,146.211 366.368,146.298 368.234,146.764 C366.402,147.115 364.432,147.044 362.629,147.233 Z" class="cls-offer"/>
  <path d="M305.616,6.445 C305.522,6.929 305.478,7.159 305.417,7.472 L305.107,7.675 C304.951,8.316 304.807,8.937 304.647,9.552 C304.513,10.071 304.330,10.580 304.223,11.105 C304.104,11.690 303.920,12.254 303.827,12.854 C303.744,13.394 303.808,14.001 303.533,14.484 C303.212,15.044 303.414,15.679 303.210,16.254 C303.022,16.784 302.931,17.352 302.798,17.902 C302.811,17.905 302.894,17.922 302.997,17.946 C302.814,19.643 302.589,21.341 302.913,23.154 C302.886,23.193 302.795,23.321 302.683,23.479 C302.796,23.519 302.901,23.555 303.008,23.591 C303.108,24.578 303.270,25.578 303.340,26.563 C303.427,27.774 303.790,28.958 303.695,30.193 C303.648,30.813 303.798,31.492 304.021,32.084 C304.157,32.448 303.916,32.513 303.832,32.738 C303.963,32.802 304.093,32.868 304.270,32.953 C304.349,33.735 304.430,34.540 304.514,35.369 C304.315,35.333 304.193,35.310 304.002,35.276 C303.863,35.638 303.437,35.903 303.767,36.654 C303.439,36.395 303.236,36.234 302.986,36.036 C302.907,36.536 302.876,36.732 302.837,36.980 C302.990,37.056 303.133,37.126 303.290,37.204 C303.307,37.436 303.327,37.702 303.346,37.958 C303.249,38.002 303.148,38.083 303.105,38.059 C302.795,37.877 302.496,37.672 302.195,37.477 C301.629,37.711 302.004,38.192 301.934,38.552 C301.848,38.533 301.765,38.514 301.649,38.488 C301.565,38.635 301.477,38.792 301.383,38.958 C301.033,38.808 300.702,38.668 300.232,38.468 C299.577,37.601 298.900,36.540 298.052,35.649 C297.615,35.187 297.320,34.552 296.833,34.244 C296.230,33.862 296.116,33.157 295.625,32.801 C295.082,32.406 294.861,31.770 294.399,31.384 C293.891,30.962 293.642,30.343 293.182,29.958 C292.085,29.041 291.331,27.761 290.095,27.004 C289.909,26.430 289.180,26.210 289.148,25.535 C288.511,25.231 288.058,24.701 287.577,24.204 C286.897,23.500 286.009,23.029 285.448,22.184 C285.289,21.944 284.952,21.824 284.536,21.541 C284.912,22.762 285.236,23.809 285.632,25.093 C285.598,25.202 285.483,25.567 285.367,25.933 C285.664,26.195 285.873,26.379 286.097,26.576 C286.366,27.811 287.109,29.033 286.874,30.424 C287.487,30.500 287.493,31.176 287.833,31.462 C288.011,33.015 288.761,34.310 289.299,35.859 C289.292,35.882 289.241,36.091 289.192,36.290 C289.323,36.880 289.886,37.228 289.901,37.907 C289.911,38.399 290.208,38.964 290.533,39.368 C290.930,39.861 291.123,40.466 291.178,40.980 C291.249,41.618 291.693,41.950 291.884,42.524 C291.849,42.666 291.799,42.875 291.728,43.165 C292.531,44.193 293.038,45.431 293.691,46.630 C293.623,46.825 293.556,47.022 293.470,47.276 L294.198,48.405 C293.949,48.369 293.834,48.350 293.595,48.315 C294.012,48.844 293.930,49.358 293.717,49.925 C293.580,49.931 293.422,49.939 293.288,49.946 C293.095,50.858 292.896,51.797 292.716,52.654 C292.378,52.755 292.123,52.831 291.793,52.931 C291.704,52.874 291.538,52.771 291.372,52.668 L291.123,52.831 C291.159,52.970 291.200,53.124 291.261,53.358 C290.664,53.817 289.998,53.703 289.333,53.518 C288.919,53.062 288.919,53.062 288.076,53.116 C288.359,53.269 288.466,53.327 288.632,53.418 C288.552,53.507 288.463,53.608 288.336,53.747 C288.141,53.523 287.982,53.340 287.782,53.112 C287.732,53.268 287.699,53.371 287.675,53.447 C286.877,53.396 286.078,53.346 285.183,53.288 L284.867,52.797 C284.812,52.990 284.781,53.101 284.738,53.251 C284.612,53.151 284.495,53.055 284.340,52.931 L283.888,53.224 C283.658,53.173 283.490,53.134 283.323,53.096 C283.361,52.730 283.148,52.318 283.497,52.006 C282.796,51.964 282.882,52.551 282.725,53.064 C282.566,52.858 282.442,52.697 282.312,52.528 C281.698,52.540 281.085,52.423 280.472,52.797 C279.959,53.111 279.379,52.758 278.842,52.376 C278.785,52.531 278.752,52.625 278.685,52.812 C278.521,52.641 278.375,52.487 278.190,52.292 C278.144,52.332 278.076,52.392 277.875,52.568 C277.463,52.546 276.866,52.400 276.325,52.510 C275.554,52.666 274.903,52.108 274.117,52.282 C273.428,52.432 272.681,52.362 271.936,52.229 C270.918,52.048 269.864,52.112 268.751,52.068 L269.140,52.672 C269.274,52.655 269.465,52.631 269.728,52.597 C269.734,52.826 269.739,53.026 269.746,53.265 C270.085,53.441 270.429,53.664 270.802,53.800 C271.114,53.914 271.387,54.296 271.780,54.036 C271.944,54.522 272.387,54.551 272.777,54.645 C272.754,54.764 272.737,54.849 272.724,54.915 C274.150,55.261 275.397,55.994 276.604,56.824 C277.065,56.918 277.526,57.011 277.983,57.105 L278.219,57.469 C278.868,57.734 279.435,57.966 280.078,58.230 C279.944,58.497 279.848,58.690 279.725,58.935 C280.103,59.136 280.458,59.327 280.787,59.503 C281.018,59.251 281.218,59.033 281.416,58.819 C282.263,59.200 283.041,59.547 284.034,59.993 C283.558,60.165 283.307,60.014 283.019,59.980 C283.041,60.584 283.560,60.382 283.840,60.539 C283.835,60.696 283.827,60.852 283.814,61.187 C284.047,61.110 284.265,61.039 284.484,60.965 C284.467,61.056 284.451,61.148 284.435,61.237 C284.518,61.066 284.602,60.892 284.693,60.705 C285.022,60.906 285.294,61.072 285.562,61.235 C285.541,61.399 285.525,61.523 285.507,61.658 C285.617,61.688 285.736,61.720 285.888,61.763 C286.141,61.517 286.412,61.257 286.658,61.017 C287.734,61.574 288.757,62.104 289.781,62.633 C289.771,62.681 289.762,62.731 289.751,62.778 C289.630,62.770 289.509,62.764 289.206,62.747 C289.664,63.237 290.041,63.643 290.481,64.113 C290.152,64.506 289.848,64.867 289.407,65.393 C289.405,65.416 289.386,65.673 289.361,66.000 C287.952,65.345 286.518,65.044 285.130,64.647 C283.208,64.098 281.430,63.199 279.560,62.534 C277.614,61.842 275.751,60.888 273.849,60.055 C272.766,59.582 271.670,59.140 270.595,58.643 C269.087,57.946 267.567,57.272 266.112,56.470 C265.471,56.117 264.747,56.017 264.139,55.526 C263.618,55.103 262.886,54.949 262.245,54.682 C260.609,54.003 258.992,53.277 257.285,52.784 C256.173,52.463 255.099,51.995 253.849,51.535 L253.000,50.220 C253.302,50.008 253.555,49.666 254.119,49.796 C253.964,49.487 253.818,49.198 253.680,48.925 C254.214,47.827 255.095,47.122 256.282,46.546 C256.420,46.603 256.696,46.716 257.203,46.923 C257.262,46.965 257.551,47.175 257.899,47.426 C258.154,47.084 258.345,46.827 258.525,46.583 C259.095,46.627 259.670,46.629 260.232,46.722 C260.711,46.801 261.262,46.414 261.634,47.152 C261.687,46.887 261.703,46.802 261.734,46.645 C262.254,47.031 262.950,46.394 263.410,47.087 C263.613,46.987 263.793,46.899 264.007,46.794 C264.086,46.871 264.173,46.955 264.269,47.050 C265.857,46.720 267.464,47.007 269.101,47.180 C269.179,47.128 269.283,47.003 269.393,47.000 C269.835,46.989 270.392,46.852 270.696,47.070 C271.190,47.425 271.863,46.949 272.223,47.608 C272.492,47.456 272.740,47.314 273.005,47.161 C273.129,47.255 273.255,47.353 273.411,47.472 C273.540,47.398 273.681,47.315 273.899,47.190 C274.308,47.294 274.783,47.415 275.346,47.559 C275.182,47.831 275.085,47.993 274.950,48.215 C275.337,48.225 275.686,48.235 276.036,48.243 C276.098,48.105 276.159,47.968 276.257,47.749 C276.472,47.859 276.660,48.004 276.863,48.040 C277.042,48.073 277.239,47.980 277.424,47.944 C277.473,47.821 277.533,47.672 277.633,47.419 C277.855,47.534 278.045,47.632 278.366,47.797 C278.390,47.878 278.474,48.142 278.568,48.444 L279.000,48.160 C279.437,48.409 279.739,48.587 280.274,48.383 C281.183,48.038 282.213,48.097 283.194,48.011 C283.345,47.998 283.517,48.191 283.677,48.289 C283.716,48.157 283.749,48.048 283.745,48.058 C284.293,48.139 284.813,48.141 285.283,48.306 C285.761,48.472 286.188,48.797 286.752,49.118 C287.048,49.064 286.959,48.793 286.457,48.272 C287.004,48.462 287.187,48.526 287.411,48.604 C287.433,48.786 287.455,48.972 287.499,49.329 C287.718,49.016 287.864,48.807 288.031,48.573 C288.135,48.581 288.255,48.589 288.452,48.605 C288.479,48.442 288.601,48.175 288.522,48.081 C288.140,47.619 288.128,47.088 288.082,46.596 C287.357,45.923 287.332,44.935 286.930,44.134 C286.487,43.253 286.082,42.335 285.815,41.392 C285.560,40.487 285.322,39.556 284.898,38.748 C284.445,37.887 284.248,36.960 283.865,36.090 C283.474,35.202 283.202,34.253 282.968,33.309 C282.743,32.399 282.312,31.567 282.098,30.645 C281.880,29.706 281.584,28.754 281.213,27.864 C280.846,26.981 280.747,26.053 280.437,25.170 C280.127,24.289 279.859,23.394 279.617,22.494 C279.365,21.559 279.175,20.611 278.943,19.671 C278.721,18.768 278.481,17.868 278.227,16.891 C278.291,16.574 278.373,16.156 278.455,15.743 C278.563,15.760 278.686,15.780 278.797,15.798 C279.275,15.535 279.010,15.133 278.987,14.835 C279.389,14.448 279.765,14.086 280.172,13.695 C280.235,13.707 280.359,13.731 280.474,13.751 C280.700,12.873 281.427,12.954 282.054,13.008 C282.688,13.061 283.312,13.276 283.984,13.428 C284.812,14.394 286.238,14.770 286.704,16.186 C286.884,16.118 286.994,16.074 287.179,16.001 C287.703,16.584 288.256,17.202 288.882,17.901 C288.912,17.891 289.057,17.850 289.166,17.819 C289.724,18.324 290.278,18.800 290.802,19.308 C291.008,19.510 291.274,19.777 291.289,20.024 C291.325,20.647 291.572,21.026 292.122,21.313 C292.373,21.444 292.524,21.785 292.860,21.925 L292.303,21.062 C292.471,21.041 292.583,21.008 292.594,21.029 C292.914,21.638 293.470,22.031 293.972,22.439 C294.394,22.783 294.785,23.225 294.817,23.655 C294.858,24.211 295.256,24.456 295.429,25.113 C295.543,24.806 295.576,24.718 295.610,24.626 C296.437,25.014 296.726,25.213 296.812,25.886 C296.881,26.424 297.253,26.667 297.590,26.990 C297.434,26.677 297.277,26.364 297.008,25.825 C297.615,26.441 298.039,26.874 298.640,27.485 C298.277,25.249 298.494,23.252 298.495,21.249 C298.495,19.210 298.654,18.159 299.171,16.566 C299.265,16.276 299.175,15.924 299.248,15.622 C299.376,15.101 299.608,14.605 299.715,14.080 C299.812,13.598 299.727,13.068 299.851,12.596 C300.178,11.347 300.709,10.165 300.955,8.885 C300.980,8.760 301.203,8.677 301.348,8.564 C301.342,8.348 301.260,8.080 301.337,7.880 C301.719,6.901 302.081,5.906 302.572,4.985 C302.962,4.255 303.294,3.492 303.749,2.781 C304.200,2.077 304.826,1.604 305.337,1.008 C305.867,0.391 306.687,0.117 307.581,-0.001 C307.434,1.200 308.728,1.393 309.188,2.209 C308.977,1.820 308.767,1.433 308.556,1.046 C308.615,1.012 308.674,0.978 308.734,0.946 L309.204,1.675 C309.346,1.896 309.485,2.118 309.631,2.335 C309.796,2.578 309.901,2.896 310.275,2.888 C310.048,3.229 310.589,3.253 310.538,3.481 C310.449,3.892 311.052,3.665 311.007,4.062 C310.981,4.283 311.098,4.542 311.203,4.756 C311.335,5.024 311.520,5.262 311.667,5.489 C311.530,5.669 311.436,5.794 311.285,5.993 C311.518,5.937 311.664,5.902 311.867,5.853 C311.952,5.963 312.052,6.092 312.216,6.306 C312.148,6.650 312.068,7.060 311.996,7.428 C312.132,7.615 312.230,7.752 312.321,7.876 C312.508,7.835 312.660,7.801 312.871,7.753 C312.749,7.959 312.655,8.118 312.561,8.277 L312.717,8.519 C312.897,8.496 313.090,8.471 313.301,8.444 C313.511,9.209 313.607,9.984 314.069,10.666 C314.278,10.974 314.263,11.439 314.358,11.875 C314.350,11.872 314.423,11.898 314.532,11.938 C314.746,12.587 314.969,13.259 315.243,14.086 C314.901,13.970 314.672,13.893 314.460,13.820 C314.639,14.204 314.815,14.418 315.183,14.692 C315.180,14.733 315.182,14.775 315.176,14.817 C315.162,14.901 315.143,14.985 315.123,15.084 C315.206,15.100 315.291,15.113 315.373,15.132 C315.413,15.140 315.451,15.158 315.494,15.173 C315.590,15.522 315.686,15.873 315.812,16.336 L314.875,16.949 C314.884,17.013 314.893,17.079 314.902,17.144 C315.095,17.146 315.287,17.148 315.561,17.152 C315.610,17.058 315.696,16.892 315.860,16.576 C316.067,17.165 316.236,17.645 316.399,18.113 C316.289,18.226 316.207,18.312 316.121,18.400 C316.843,18.717 316.812,19.319 316.770,19.936 C316.756,20.133 316.785,20.344 316.839,20.536 C316.961,20.965 317.113,21.386 317.281,21.898 C317.271,21.911 317.195,22.001 317.038,22.188 C317.183,22.384 317.358,22.618 317.634,22.991 C317.645,22.894 317.600,23.015 317.626,23.116 C317.831,23.938 318.133,24.737 318.272,25.578 C318.286,25.657 318.360,25.723 318.387,25.802 C318.566,26.316 318.142,26.878 318.523,27.371 C318.857,27.806 318.691,28.323 318.821,28.793 C318.962,29.298 319.057,29.814 319.164,30.327 C319.197,30.485 319.172,30.657 319.227,30.804 C319.287,30.964 319.409,31.101 319.547,31.314 C319.482,31.503 319.399,31.745 319.337,31.922 L319.819,32.670 C319.656,33.403 319.479,34.144 320.000,34.840 C320.047,34.903 320.096,35.004 320.079,35.068 C319.796,36.146 320.435,37.135 320.429,38.206 C320.422,39.236 320.754,40.273 320.834,41.313 C320.943,42.692 320.954,44.074 320.999,45.456 C321.004,45.582 320.981,45.726 320.924,45.835 C320.386,46.852 319.839,47.864 319.346,48.782 C318.754,49.020 318.267,49.215 317.642,49.466 C317.423,49.357 317.063,49.179 316.713,49.007 C316.552,48.274 316.363,47.570 316.254,46.855 C316.146,46.136 316.065,45.405 316.064,44.683 C316.063,43.100 315.711,41.550 315.597,39.981 C315.529,39.051 315.189,38.136 315.396,37.194 C314.891,35.683 314.812,34.108 314.554,32.559 C314.442,31.888 314.428,31.197 314.208,30.534 C314.004,29.924 313.895,29.283 313.741,28.655 C313.262,26.696 312.792,24.733 312.299,22.777 C312.044,21.759 311.765,20.744 311.462,19.736 C311.157,18.723 310.742,17.721 310.487,16.716 C310.041,14.955 309.142,13.384 308.636,11.654 C308.369,10.740 307.789,9.907 307.299,9.069 C306.821,8.251 306.278,7.471 305.616,6.445 Z" class="cls-offer"/>
</svg>
