<svg xmlns="http://www.w3.org/2000/svg" xmlns:xlink="http://www.w3.org/1999/xlink" preserveAspectRatio="xMidYMid" width="267.594" height="27" viewBox="0 0 267.594 27">
  <defs>
    <style>
      .red-line {
        fill: #f1134e;
        fill-rule: evenodd;
      }
    </style>
  </defs>
  <path d="M262.289,9.919 C261.987,9.770 261.698,9.608 261.415,9.426 C260.937,9.006 260.509,8.543 260.100,8.052 C259.551,7.305 259.060,6.529 258.583,5.733 C257.965,4.698 257.385,3.650 256.697,2.660 C256.429,2.275 256.169,1.887 255.868,1.527 C255.492,1.076 255.068,0.732 254.571,0.416 C254.012,0.064 253.318,0.008 252.682,-0.033 C252.359,-0.010 252.043,0.043 251.731,0.125 C251.329,0.237 250.981,0.441 250.684,0.735 C249.941,1.383 249.589,2.332 249.229,3.221 C249.021,3.733 248.827,4.251 248.626,4.764 C248.311,5.575 247.978,6.381 247.642,7.185 C247.294,7.986 246.916,8.772 246.529,9.555 C246.211,10.197 245.827,10.784 245.407,11.358 C245.175,11.633 244.938,11.890 244.674,12.129 C244.647,12.145 244.620,12.162 244.592,12.177 C244.441,12.224 244.291,12.264 244.137,12.297 C244.099,12.298 244.061,12.298 244.022,12.297 C243.986,12.287 243.950,12.277 243.914,12.268 C243.687,12.144 243.473,12.013 243.263,11.871 C243.082,11.701 242.917,11.529 242.757,11.344 C242.515,10.988 242.296,10.627 242.098,10.242 C241.692,9.173 241.383,8.061 241.039,6.972 C240.560,5.461 240.088,3.947 239.329,2.547 C238.904,1.764 238.394,1.010 237.577,0.595 C236.952,0.276 236.233,0.187 235.549,0.375 C235.270,0.493 234.993,0.609 234.717,0.732 C234.484,0.906 234.252,1.086 234.021,1.265 C233.580,1.708 233.357,2.267 233.152,2.841 C233.059,3.107 233.008,3.382 232.899,3.643 C232.787,3.910 232.674,4.179 232.562,4.447 C232.097,5.418 231.634,6.383 231.127,7.330 C230.836,7.876 230.546,8.420 230.255,8.963 C229.902,9.625 229.511,10.272 229.123,10.913 C228.756,11.527 228.337,12.100 227.904,12.666 C227.433,13.260 226.948,13.821 226.379,14.317 C226.168,14.451 225.956,14.570 225.735,14.683 C225.553,14.744 225.374,14.795 225.189,14.838 C225.180,14.838 225.172,14.838 225.163,14.838 C225.083,14.794 225.005,14.748 224.930,14.699 C224.921,14.690 224.913,14.681 224.904,14.674 C224.517,14.073 224.209,13.414 223.923,12.760 C223.207,11.019 222.554,9.256 221.857,7.508 C221.526,6.677 221.139,5.872 220.754,5.062 C220.400,4.315 220.001,3.565 219.439,2.947 C219.144,2.621 218.849,2.355 218.493,2.096 C218.169,1.858 217.759,1.572 217.359,1.489 C216.869,1.387 216.432,1.298 215.934,1.424 C215.379,1.561 214.955,1.808 214.519,2.170 C213.600,2.932 213.175,4.092 212.669,5.137 C212.361,5.773 212.036,6.400 211.712,7.030 C211.412,7.608 211.081,8.170 210.760,8.737 C210.104,9.894 209.403,11.018 208.603,12.082 C208.307,12.457 208.004,12.827 207.686,13.187 C207.364,13.550 207.000,13.871 206.624,14.175 C206.179,14.498 205.728,14.790 205.240,15.042 C205.070,15.097 204.902,15.145 204.728,15.182 C204.517,15.187 204.312,15.182 204.104,15.169 C203.985,15.141 203.867,15.109 203.750,15.073 C203.742,15.068 203.734,15.063 203.727,15.058 C203.576,14.916 203.437,14.767 203.301,14.607 C203.124,14.360 202.951,14.112 202.784,13.855 C202.468,13.370 202.242,12.817 202.001,12.290 C201.838,11.934 201.683,11.579 201.529,11.218 C201.130,10.283 200.734,9.345 200.332,8.412 C200.076,7.800 199.819,7.189 199.550,6.585 C199.177,5.750 198.707,4.961 198.230,4.185 C197.836,3.549 197.354,2.957 196.813,2.446 C196.514,2.163 196.155,1.926 195.816,1.694 C195.474,1.461 195.060,1.331 194.674,1.187 C194.388,1.148 194.101,1.109 193.815,1.073 C193.392,1.073 192.866,1.211 192.497,1.417 C192.149,1.612 191.850,1.856 191.535,2.098 C191.467,2.174 191.399,2.248 191.331,2.324 C191.150,2.537 190.986,2.762 190.840,2.998 C190.495,3.523 190.165,4.064 189.855,4.609 C189.270,5.635 188.695,6.669 188.062,7.667 C187.658,8.306 187.254,8.945 186.851,9.582 C186.421,10.260 185.984,10.933 185.541,11.600 C185.107,12.253 184.629,12.877 184.151,13.500 C183.830,13.907 183.501,14.301 183.153,14.687 C182.848,15.026 182.506,15.325 182.152,15.611 C181.637,15.978 181.114,16.306 180.547,16.587 C180.282,16.678 180.020,16.752 179.746,16.813 C179.374,16.836 179.012,16.834 178.642,16.805 C178.401,16.752 178.173,16.689 177.944,16.611 C177.719,16.484 177.507,16.349 177.298,16.205 C176.961,15.910 176.647,15.606 176.348,15.276 C175.928,14.670 175.576,14.028 175.212,13.383 C174.769,12.593 174.393,11.770 174.007,10.952 C173.623,10.137 173.222,9.331 172.832,8.517 C172.377,7.565 171.813,6.693 171.163,5.864 C170.887,5.511 170.607,5.187 170.293,4.870 C169.988,4.562 169.608,4.312 169.260,4.055 C168.903,3.790 168.500,3.600 168.089,3.437 C167.845,3.318 167.589,3.238 167.319,3.199 C167.047,3.146 166.770,3.121 166.491,3.123 C166.371,3.138 166.253,3.153 166.132,3.170 C165.846,3.182 165.569,3.236 165.299,3.335 C164.921,3.445 164.474,3.679 164.190,3.957 C163.484,4.653 163.051,5.570 162.580,6.431 C161.903,7.665 161.148,8.856 160.418,10.056 C159.979,10.777 159.511,11.480 159.059,12.192 C158.376,13.264 157.675,14.325 156.918,15.344 C156.207,16.232 155.456,17.099 154.585,17.829 C154.340,17.989 154.098,18.129 153.841,18.260 C153.633,18.328 153.429,18.383 153.217,18.427 C153.160,18.428 153.104,18.428 153.047,18.425 C152.989,18.412 152.931,18.397 152.874,18.379 C152.864,18.373 152.855,18.367 152.845,18.361 C152.667,18.190 152.500,18.012 152.337,17.824 C151.256,16.283 150.425,14.587 149.574,12.910 C148.960,11.707 148.375,10.487 147.696,9.320 C147.285,8.614 146.892,7.906 146.417,7.242 C145.860,6.461 145.174,5.849 144.406,5.287 C144.300,5.233 144.193,5.181 144.088,5.128 C143.874,4.997 143.644,4.928 143.396,4.918 C143.250,4.898 143.104,4.878 142.956,4.857 C142.658,4.859 142.379,4.936 142.122,5.084 C141.378,5.449 140.841,6.208 140.569,6.978 C140.302,7.732 140.039,8.487 139.760,9.238 C139.129,10.932 138.476,12.615 137.784,14.283 C137.499,14.932 137.191,15.566 136.890,16.207 C136.550,16.928 136.188,17.617 135.728,18.262 C135.424,18.621 135.111,18.962 134.764,19.284 C134.695,19.331 134.623,19.375 134.549,19.416 C134.546,19.417 134.542,19.418 134.539,19.419 C134.473,19.418 134.408,19.418 134.342,19.418 C134.146,19.379 133.958,19.328 133.767,19.264 C133.726,19.243 133.687,19.219 133.648,19.193 C133.260,18.831 132.914,18.434 132.578,18.024 C131.718,16.814 131.013,15.501 130.313,14.194 C129.950,13.517 129.592,12.840 129.235,12.161 C128.840,11.407 128.394,10.679 127.950,9.953 C127.278,8.859 126.407,7.809 125.319,7.111 C125.101,7.002 124.872,6.919 124.635,6.860 C124.226,6.735 123.835,6.842 123.437,6.946 C123.308,7.002 123.177,7.057 123.047,7.111 C122.832,7.266 122.619,7.424 122.412,7.590 C122.122,7.881 121.937,8.268 121.788,8.643 C121.233,10.038 120.751,11.457 120.254,12.874 C119.672,14.528 119.065,16.189 118.412,17.817 C118.245,18.208 118.078,18.600 117.913,18.992 C117.956,18.890 117.998,18.789 118.041,18.687 C117.809,19.230 117.566,19.766 117.293,20.290 C117.095,20.672 116.846,21.028 116.587,21.371 C116.372,21.621 116.156,21.846 115.915,22.061 C115.848,22.104 115.780,22.142 115.710,22.179 C115.615,22.211 115.518,22.238 115.420,22.260 C115.379,22.258 115.338,22.257 115.297,22.256 C115.286,22.251 115.274,22.250 115.263,22.246 C115.205,22.214 115.148,22.181 115.092,22.144 C115.078,22.130 115.063,22.115 115.048,22.102 C114.265,20.821 113.682,19.428 113.087,18.053 C112.624,16.861 112.165,15.668 111.734,14.463 C111.460,13.698 111.187,12.930 110.912,12.165 C110.684,11.529 110.473,10.886 110.204,10.266 C110.042,9.897 109.869,9.567 109.647,9.228 C109.369,8.807 108.988,8.529 108.595,8.223 C108.262,7.965 107.966,7.779 107.525,7.779 C106.956,7.779 106.535,8.083 106.219,8.530 C106.037,8.771 105.869,9.022 105.719,9.286 C105.604,9.546 105.498,9.810 105.401,10.078 C105.269,10.418 105.203,10.786 105.090,11.130 C104.931,11.618 104.771,12.106 104.611,12.593 C104.189,13.883 103.711,15.163 103.207,16.420 C102.689,17.613 102.118,18.779 101.350,19.833 C101.071,20.169 100.783,20.476 100.457,20.763 C100.359,20.826 100.258,20.884 100.154,20.936 C100.093,20.957 100.032,20.974 99.971,20.993 C99.968,20.991 99.967,20.990 99.965,20.989 C99.916,20.943 99.870,20.896 99.825,20.848 C98.892,19.326 98.178,17.668 97.408,16.056 C96.929,15.052 96.453,14.050 95.927,13.068 C95.716,12.679 95.465,12.315 95.215,11.948 C94.996,11.625 94.769,11.296 94.516,10.999 C94.017,10.414 93.430,9.934 92.697,9.670 C91.960,9.404 91.143,9.304 90.419,9.670 C90.310,9.727 90.199,9.781 90.091,9.838 C89.860,9.996 89.648,10.178 89.454,10.380 C89.372,10.487 89.290,10.592 89.208,10.699 C89.026,10.889 88.887,11.105 88.791,11.348 C88.562,11.809 88.450,12.324 88.293,12.813 C88.202,13.100 88.114,13.391 88.018,13.675 C87.482,15.258 86.924,16.836 86.300,18.389 C85.956,19.160 85.582,19.927 85.105,20.624 C85.021,20.716 84.934,20.803 84.841,20.884 C84.687,20.992 84.533,21.084 84.370,21.172 C84.354,21.175 84.340,21.179 84.325,21.181 C84.307,21.181 84.289,21.181 84.270,21.181 C84.139,21.152 84.010,21.115 83.884,21.072 C83.816,21.037 83.749,21.000 83.685,20.959 C83.505,20.786 83.344,20.607 83.185,20.416 C82.808,19.904 82.446,19.387 82.114,18.839 C81.878,18.452 81.645,18.066 81.404,17.684 C80.955,16.974 80.506,16.265 80.057,15.553 C79.224,14.234 78.308,12.979 77.213,11.865 C76.667,11.310 76.014,10.954 75.287,10.701 C74.944,10.580 74.540,10.576 74.182,10.564 C73.857,10.555 73.288,10.677 73.017,10.864 C72.794,11.008 72.579,11.164 72.373,11.335 C72.111,11.653 71.866,11.967 71.646,12.316 C71.592,12.434 71.539,12.551 71.485,12.667 C71.358,12.928 71.260,13.195 71.189,13.473 C71.131,13.662 71.078,13.850 71.019,14.036 C70.807,14.719 70.593,15.399 70.383,16.082 C69.878,17.717 69.347,19.348 68.710,20.938 C68.428,21.584 68.132,22.232 67.772,22.838 C67.725,22.741 67.678,22.643 67.632,22.545 C66.967,20.882 66.367,19.188 65.745,17.508 C65.103,15.773 64.417,14.053 63.684,12.356 C63.494,11.916 63.289,11.480 63.078,11.049 C62.841,10.566 62.549,10.111 62.283,9.646 C61.900,8.977 61.335,8.257 60.555,8.040 C60.253,7.959 59.711,7.907 59.411,8.022 C59.185,8.103 58.960,8.195 58.739,8.293 C58.512,8.428 58.329,8.610 58.194,8.838 C57.987,9.135 57.877,9.426 57.770,9.772 C57.607,10.293 57.496,10.832 57.374,11.363 C57.210,12.076 57.014,12.785 56.812,13.491 C56.408,14.895 56.009,16.294 55.462,17.650 C55.100,18.486 54.729,19.300 54.207,20.051 C53.936,20.383 53.654,20.693 53.336,20.986 C53.266,21.031 53.194,21.073 53.121,21.111 C53.056,21.133 52.992,21.149 52.926,21.164 C52.824,21.170 52.723,21.172 52.622,21.166 C52.570,21.154 52.517,21.142 52.465,21.129 C52.442,21.115 52.420,21.103 52.398,21.088 C52.173,20.875 51.962,20.661 51.758,20.430 C51.244,19.697 50.762,18.936 50.277,18.182 C49.975,17.717 49.677,17.250 49.375,16.784 C48.964,16.145 48.562,15.470 48.059,14.899 C47.566,14.336 47.018,13.594 46.269,13.369 C46.076,13.297 45.877,13.256 45.671,13.246 C45.455,13.265 45.242,13.303 45.032,13.359 C44.597,13.458 44.219,13.825 43.907,14.121 C43.366,14.635 43.261,15.461 43.004,16.125 C42.813,16.616 42.625,17.109 42.424,17.597 C42.002,18.571 41.534,19.531 40.925,20.404 C40.649,20.742 40.361,21.059 40.039,21.357 C39.823,21.505 39.608,21.634 39.373,21.758 C39.146,21.839 38.925,21.902 38.687,21.953 C38.512,21.964 38.337,21.963 38.162,21.948 C38.013,21.920 37.866,21.881 37.723,21.832 C37.625,21.783 37.531,21.727 37.441,21.666 C37.310,21.555 37.185,21.437 37.067,21.311 C36.766,20.862 36.531,20.373 36.282,19.890 C36.094,19.526 35.907,19.163 35.719,18.800 C35.498,18.375 35.280,17.951 35.062,17.528 C34.828,17.076 34.605,16.643 34.313,16.224 C33.997,15.776 33.583,15.432 33.175,15.069 C32.742,14.681 32.037,14.492 31.517,14.854 C31.092,15.150 30.614,15.427 30.337,15.881 C30.058,16.335 29.892,16.834 29.704,17.328 C29.545,17.692 29.387,18.057 29.228,18.421 C28.747,19.522 28.192,20.579 27.507,21.566 C27.112,22.041 26.692,22.473 26.223,22.874 C25.817,23.147 25.407,23.379 24.967,23.586 C24.809,23.642 24.647,23.685 24.482,23.719 C24.324,23.730 24.166,23.731 24.008,23.720 C23.757,23.670 23.525,23.608 23.288,23.525 C23.233,23.491 23.178,23.457 23.122,23.424 C22.866,23.197 22.638,22.953 22.417,22.691 C22.060,22.156 21.782,21.578 21.492,21.004 C21.240,20.505 20.989,20.007 20.739,19.508 C20.335,18.709 19.927,17.914 19.520,17.117 C19.142,16.373 18.747,15.634 18.283,14.940 C18.017,14.541 17.688,14.170 17.384,13.800 C17.087,13.436 16.733,13.164 16.350,12.900 C16.153,12.815 15.954,12.732 15.753,12.656 C15.542,12.619 15.330,12.597 15.116,12.591 C14.892,12.614 14.670,12.650 14.449,12.697 C14.239,12.776 14.031,12.859 13.827,12.950 C13.640,13.054 13.465,13.177 13.302,13.317 C13.150,13.480 13.008,13.652 12.879,13.833 C12.658,14.256 12.489,14.697 12.306,15.137 C12.353,15.027 12.398,14.918 12.445,14.810 C12.229,15.318 12.028,15.830 11.826,16.346 C11.630,16.797 11.433,17.249 11.237,17.702 C10.738,18.850 10.127,19.947 9.387,20.957 C9.026,21.366 8.651,21.746 8.240,22.104 C8.127,22.181 8.009,22.251 7.888,22.314 C7.735,22.368 7.585,22.411 7.430,22.449 C7.295,22.257 7.167,22.061 7.041,21.859 C6.887,21.608 6.769,21.325 6.653,21.047 C6.494,20.666 6.333,20.285 6.175,19.905 C6.032,19.565 5.871,19.226 5.753,18.875 C5.436,17.930 5.120,16.987 4.804,16.041 C4.719,15.790 4.659,15.527 4.588,15.274 C4.414,14.648 4.239,14.022 4.064,13.398 C3.704,12.107 3.349,10.818 2.999,9.527 C2.782,8.726 1.925,8.246 1.129,8.465 C0.327,8.686 -0.150,9.536 0.067,10.336 C0.650,12.486 1.251,14.631 1.851,16.777 C2.063,17.534 2.351,18.277 2.601,19.023 C2.874,19.836 3.205,20.616 3.538,21.408 C3.766,21.945 3.996,22.480 4.237,23.012 C4.400,23.374 4.615,23.696 4.844,24.017 C5.113,24.395 5.427,24.836 5.840,25.072 C5.928,25.121 6.015,25.172 6.102,25.221 C6.307,25.338 6.526,25.407 6.759,25.426 C7.266,25.518 7.727,25.444 8.227,25.351 C8.704,25.261 9.179,25.001 9.599,24.771 C9.824,24.612 10.042,24.449 10.257,24.277 C10.489,24.085 10.709,23.879 10.916,23.659 C12.252,22.319 13.143,20.535 13.831,18.795 C14.283,17.654 14.705,16.508 15.128,15.358 C15.136,15.344 15.143,15.328 15.150,15.314 C15.398,15.559 15.621,15.821 15.841,16.089 C16.456,16.936 16.924,17.878 17.385,18.813 C17.713,19.479 18.042,20.146 18.371,20.810 C18.654,21.384 18.922,21.963 19.197,22.539 C19.405,22.975 19.612,23.412 19.838,23.840 C20.016,24.178 20.287,24.476 20.520,24.777 C20.757,25.086 21.026,25.342 21.322,25.592 C21.817,26.010 22.397,26.242 23.012,26.425 C23.803,26.664 24.630,26.588 25.426,26.444 C25.694,26.375 25.953,26.280 26.203,26.162 C26.632,25.977 27.029,25.772 27.431,25.533 C28.190,25.082 28.829,24.427 29.409,23.772 C30.480,22.565 31.191,21.039 31.798,19.561 C31.941,19.213 32.085,18.866 32.228,18.517 C32.269,18.418 32.307,18.319 32.345,18.218 C32.628,18.718 32.871,19.243 33.126,19.758 C33.344,20.197 33.561,20.636 33.775,21.078 C34.126,21.799 34.426,22.625 34.977,23.219 C35.417,23.691 35.892,24.086 36.466,24.390 C37.085,24.718 37.798,24.784 38.485,24.827 C38.991,24.858 39.530,24.718 40.009,24.572 C40.615,24.385 41.172,24.053 41.671,23.672 C42.643,22.927 43.375,21.891 43.944,20.817 C44.445,19.874 44.859,18.868 45.213,17.861 C45.333,17.519 45.453,17.176 45.573,16.832 C45.643,16.636 45.701,16.439 45.759,16.240 C45.881,16.375 46.001,16.512 46.120,16.651 C46.689,17.449 47.184,18.296 47.693,19.133 C48.033,19.697 48.374,20.259 48.714,20.823 C48.957,21.222 49.190,21.627 49.445,22.020 C49.639,22.319 49.894,22.597 50.132,22.863 C50.221,22.953 50.310,23.044 50.399,23.135 C50.588,23.290 50.781,23.441 50.977,23.591 C51.296,23.757 51.593,23.888 51.943,23.983 C52.280,24.071 52.670,24.074 53.017,24.071 C53.359,24.071 53.725,23.980 54.052,23.886 C54.420,23.781 54.753,23.561 55.061,23.346 C55.708,22.894 56.243,22.269 56.701,21.632 C57.213,20.920 57.583,20.156 57.937,19.355 C58.498,18.086 58.957,16.786 59.345,15.454 C59.540,14.785 59.743,14.119 59.920,13.445 C60.021,13.066 60.116,12.686 60.213,12.304 C60.452,12.767 60.669,13.239 60.877,13.720 C61.597,15.470 62.242,17.255 62.848,19.049 C63.145,19.923 63.439,20.801 63.730,21.678 C63.914,22.234 64.098,22.788 64.280,23.344 C64.455,23.875 64.687,24.388 64.905,24.902 C65.116,25.398 65.452,25.831 65.844,26.200 C66.132,26.469 66.526,26.733 66.909,26.844 C67.153,26.927 67.406,26.976 67.665,26.989 C67.925,26.966 68.181,26.924 68.434,26.863 C68.687,26.771 68.930,26.658 69.163,26.524 C69.381,26.364 69.599,26.198 69.812,26.028 C70.215,25.662 70.531,25.246 70.841,24.801 C71.153,24.352 71.366,23.818 71.605,23.330 C71.878,22.775 72.111,22.200 72.345,21.628 C72.605,20.986 72.833,20.334 73.050,19.676 C73.365,18.721 73.666,17.770 73.948,16.803 C74.060,16.420 74.171,16.033 74.279,15.649 C74.413,15.180 74.525,14.696 74.673,14.228 C75.124,14.643 75.533,15.098 75.919,15.574 C76.987,17.052 77.944,18.622 78.883,20.183 C79.126,20.587 79.359,20.995 79.610,21.390 C79.822,21.727 80.075,22.043 80.309,22.365 C80.540,22.683 80.788,22.986 81.045,23.284 C81.295,23.570 81.630,23.782 81.935,24.005 C82.252,24.231 82.677,24.349 83.035,24.489 C83.417,24.638 83.849,24.648 84.250,24.701 C84.629,24.751 85.050,24.632 85.415,24.541 C85.555,24.482 85.695,24.422 85.835,24.363 C86.074,24.276 86.300,24.158 86.510,24.014 C86.849,23.810 87.159,23.522 87.454,23.261 C87.766,22.984 88.004,22.602 88.247,22.266 C88.492,21.922 88.670,21.518 88.858,21.143 C89.051,20.757 89.234,20.370 89.404,19.975 C89.857,18.919 90.232,17.831 90.612,16.746 C91.063,15.463 91.447,14.161 91.805,12.850 C91.925,12.959 92.038,13.077 92.143,13.201 C92.596,13.814 93.005,14.446 93.369,15.119 C93.641,15.620 93.892,16.133 94.134,16.647 C94.469,17.353 94.808,18.057 95.138,18.766 C95.549,19.650 95.957,20.535 96.381,21.414 C96.750,22.181 97.181,22.902 97.806,23.485 C98.113,23.772 98.466,23.986 98.854,24.136 C99.099,24.260 99.358,24.324 99.632,24.324 C99.906,24.355 100.176,24.339 100.446,24.278 C101.264,24.133 102.008,23.796 102.648,23.264 C103.412,22.632 104.005,21.846 104.569,21.037 C105.077,20.310 105.428,19.466 105.798,18.666 C106.264,17.661 106.633,16.615 107.004,15.574 C107.254,14.872 107.466,14.154 107.695,13.445 C107.781,13.183 107.853,12.914 107.928,12.646 C108.565,14.402 109.150,16.179 109.780,17.936 C110.121,18.888 110.485,19.830 110.853,20.770 C111.147,21.522 111.468,22.264 111.817,22.992 C112.012,23.400 112.168,23.785 112.445,24.146 C112.582,24.363 112.753,24.551 112.955,24.707 C113.235,24.961 113.553,25.158 113.887,25.328 C114.391,25.586 114.895,25.645 115.451,25.677 C115.742,25.648 116.033,25.612 116.322,25.568 C116.608,25.514 116.882,25.420 117.142,25.287 C117.396,25.203 117.629,25.081 117.843,24.921 C118.069,24.752 118.290,24.576 118.505,24.395 C119.034,23.961 119.439,23.333 119.840,22.787 C120.533,21.844 120.936,20.699 121.394,19.633 C121.896,18.464 122.331,17.272 122.756,16.074 C123.082,15.156 123.415,14.241 123.721,13.314 C124.003,12.463 124.281,11.611 124.564,10.760 C124.633,10.838 124.701,10.918 124.767,10.998 C125.728,12.390 126.472,13.898 127.255,15.393 C128.179,17.159 129.039,18.990 130.294,20.551 C130.526,20.837 130.758,21.120 131.003,21.396 C131.089,21.480 131.175,21.566 131.263,21.651 C131.466,21.819 131.674,21.984 131.885,22.142 C132.230,22.351 132.588,22.492 132.959,22.648 C133.093,22.687 133.227,22.724 133.361,22.763 C133.653,22.817 133.946,22.860 134.241,22.895 C134.376,22.898 134.512,22.902 134.649,22.906 C134.930,22.872 135.210,22.832 135.488,22.785 C135.599,22.742 135.710,22.700 135.820,22.656 C136.082,22.567 136.329,22.445 136.560,22.292 C136.663,22.214 136.766,22.136 136.870,22.059 C137.101,21.893 137.319,21.713 137.522,21.516 C137.925,21.152 138.268,20.707 138.598,20.278 C139.145,19.566 139.550,18.795 139.937,17.988 C140.331,17.168 140.715,16.344 141.059,15.503 C141.507,14.410 141.926,13.306 142.339,12.201 C142.752,11.088 143.125,9.964 143.487,8.835 C143.560,8.912 143.631,8.992 143.702,9.074 C144.297,9.927 144.808,10.848 145.307,11.763 C145.709,12.502 146.074,13.264 146.443,14.018 C146.858,14.867 147.273,15.719 147.695,16.566 C148.478,18.140 149.241,19.757 150.493,21.020 C150.704,21.191 150.920,21.351 151.143,21.504 C151.387,21.610 151.631,21.714 151.875,21.817 C152.362,21.953 152.853,22.022 153.358,22.033 C153.647,22.000 153.936,21.963 154.224,21.922 C154.489,21.872 154.748,21.797 154.998,21.699 C155.684,21.465 156.290,21.100 156.859,20.662 C157.817,19.927 158.608,19.027 159.387,18.109 C160.189,17.166 160.873,16.123 161.563,15.096 C162.224,14.115 162.845,13.103 163.480,12.104 C163.946,11.370 164.383,10.618 164.833,9.873 C165.445,8.861 165.979,7.802 166.590,6.791 C166.590,6.791 166.590,6.791 166.591,6.791 C166.635,6.801 166.679,6.815 166.722,6.828 C166.981,6.971 167.222,7.123 167.459,7.289 C167.720,7.525 167.954,7.769 168.185,8.035 C168.731,8.787 169.192,9.568 169.596,10.411 C170.117,11.494 170.611,12.595 171.101,13.696 C171.521,14.639 171.997,15.553 172.482,16.465 C173.025,17.484 173.763,18.365 174.620,19.134 C174.953,19.433 175.329,19.692 175.694,19.945 C176.167,20.272 176.755,20.468 177.296,20.642 C177.583,20.719 177.874,20.771 178.171,20.803 C178.499,20.860 178.830,20.893 179.163,20.904 C179.780,20.947 180.412,20.823 181.019,20.723 C181.477,20.646 181.941,20.434 182.359,20.246 C182.935,19.987 183.461,19.688 183.987,19.339 C184.988,18.676 185.859,17.871 186.635,16.959 C187.314,16.161 187.937,15.302 188.562,14.461 C189.228,13.567 189.815,12.606 190.405,11.660 C190.879,10.899 191.354,10.139 191.829,9.377 C192.249,8.703 192.625,7.996 193.014,7.302 C193.361,6.682 193.715,6.067 194.088,5.463 C194.206,5.576 194.319,5.694 194.431,5.817 C195.115,6.789 195.668,7.846 196.148,8.931 C197.015,11.022 197.833,13.135 198.742,15.207 C198.918,15.609 199.131,15.984 199.360,16.357 C199.652,16.834 199.997,17.325 200.366,17.744 C200.660,18.076 200.959,18.373 201.332,18.621 C201.794,18.929 202.299,19.130 202.826,19.302 C202.951,19.328 203.075,19.358 203.200,19.385 C203.521,19.428 203.840,19.471 204.161,19.513 C204.414,19.538 204.669,19.539 204.923,19.520 C205.235,19.480 205.547,19.440 205.859,19.396 C206.888,19.138 207.806,18.658 208.673,18.056 C209.560,17.442 210.354,16.737 211.064,15.927 C211.769,15.121 212.414,14.236 213.015,13.351 C213.729,12.301 214.320,11.171 214.923,10.055 C215.284,9.387 215.616,8.705 215.950,8.022 C216.224,7.463 216.462,6.888 216.725,6.324 C217.095,6.969 217.401,7.654 217.695,8.336 C218.173,9.532 218.604,10.748 219.043,11.961 C219.528,13.303 219.997,14.650 220.590,15.949 C220.736,16.271 220.886,16.588 221.047,16.902 C221.290,17.370 221.669,17.786 222.064,18.128 C222.400,18.421 222.761,18.661 223.148,18.875 C223.438,19.000 223.730,19.123 224.025,19.236 C224.332,19.314 224.646,19.365 224.964,19.391 C225.425,19.399 225.934,19.374 226.385,19.264 C227.008,19.112 227.578,18.872 228.166,18.611 C228.406,18.496 228.636,18.359 228.853,18.203 C229.112,18.004 229.371,17.806 229.628,17.606 C230.034,17.251 230.398,16.873 230.752,16.469 C231.429,15.693 232.059,14.855 232.649,14.016 C233.251,13.155 233.749,12.218 234.271,11.311 C234.740,10.497 235.156,9.648 235.597,8.820 C235.854,8.338 236.082,7.836 236.312,7.336 C236.673,8.464 237.000,9.605 237.329,10.740 C237.833,12.486 238.677,14.117 240.009,15.375 C240.375,15.723 240.816,16.010 241.232,16.289 C241.657,16.575 242.164,16.734 242.636,16.926 C243.070,17.102 243.585,17.106 244.046,17.144 C244.499,17.182 244.971,17.057 245.419,16.995 C245.858,16.936 246.312,16.731 246.708,16.549 C247.141,16.351 247.472,16.118 247.849,15.816 C248.557,15.249 249.080,14.548 249.631,13.830 C250.158,13.146 250.565,12.406 250.946,11.633 C251.388,10.736 251.786,9.824 252.173,8.904 C252.572,7.955 252.939,6.995 253.298,6.031 C253.315,6.059 253.333,6.087 253.351,6.116 C253.753,6.769 254.108,7.458 254.493,8.123 C254.883,8.801 255.271,9.472 255.701,10.127 C256.118,10.761 256.587,11.360 257.063,11.952 C257.964,13.068 259.092,13.963 260.416,14.524 C261.113,14.816 261.804,15.050 262.539,15.224 C263.380,15.420 264.255,15.496 265.117,15.531 C266.464,15.585 267.589,14.365 267.589,13.059 C267.589,12.406 267.327,11.771 266.865,11.311 C266.372,10.818 265.792,10.643 265.117,10.586 C264.983,10.576 264.849,10.565 264.715,10.553 C263.889,10.413 263.077,10.207 262.289,9.919 ZM15.098,15.301 C15.019,15.334 14.939,15.367 14.860,15.401 C14.939,15.359 15.021,15.324 15.104,15.295 C15.102,15.297 15.100,15.299 15.098,15.301 ZM83.613,20.963 C83.654,20.980 83.696,20.998 83.737,21.016 L83.738,21.016 C83.696,21.000 83.654,20.982 83.613,20.963 ZM91.493,12.685 C91.474,12.677 91.455,12.669 91.436,12.660 C91.456,12.667 91.475,12.676 91.494,12.685 L91.493,12.685 ZM91.692,13.042 C91.717,12.970 91.747,12.900 91.780,12.832 L91.780,12.832 C91.751,12.902 91.722,12.972 91.692,13.042 ZM91.945,12.562 C91.943,12.562 91.941,12.562 91.939,12.563 C91.980,12.507 92.023,12.451 92.070,12.399 C92.029,12.453 91.987,12.508 91.945,12.562 ZM115.223,22.252 C115.222,22.252 115.220,22.252 115.218,22.251 C115.197,22.236 115.176,22.218 115.155,22.201 C115.178,22.217 115.201,22.236 115.223,22.252 ZM115.267,22.290 C115.177,22.305 115.087,22.315 114.996,22.322 C115.085,22.311 115.173,22.299 115.262,22.286 C115.256,22.281 115.250,22.277 115.244,22.272 C115.246,22.273 115.248,22.273 115.250,22.273 C115.255,22.277 115.261,22.281 115.266,22.285 C115.278,22.284 115.291,22.282 115.303,22.281 C115.306,22.281 115.309,22.281 115.311,22.281 C115.297,22.284 115.284,22.287 115.270,22.290 C115.290,22.305 115.310,22.319 115.329,22.334 C115.308,22.320 115.287,22.305 115.267,22.290 ZM115.404,22.314 C115.416,22.310 115.429,22.305 115.441,22.299 C115.442,22.300 115.442,22.300 115.442,22.300 C115.430,22.305 115.417,22.311 115.404,22.314 ZM115.455,22.295 C115.454,22.295 115.454,22.295 115.453,22.295 C115.506,22.271 115.560,22.249 115.614,22.227 C115.562,22.251 115.509,22.273 115.455,22.295 ZM152.685,18.382 C152.747,18.392 152.810,18.401 152.873,18.408 C152.874,18.410 152.874,18.410 152.876,18.411 C152.812,18.404 152.748,18.395 152.685,18.382 ZM152.900,18.414 C152.899,18.413 152.899,18.412 152.898,18.412 C152.906,18.413 152.914,18.414 152.922,18.416 C152.922,18.416 152.923,18.416 152.924,18.416 C152.916,18.416 152.908,18.414 152.900,18.414 ZM152.932,18.417 L152.931,18.416 C152.933,18.417 152.934,18.417 152.935,18.417 C152.934,18.417 152.933,18.417 152.932,18.417 ZM203.901,15.150 C203.887,15.143 203.872,15.136 203.857,15.128 C203.874,15.136 203.892,15.144 203.910,15.150 C203.907,15.150 203.904,15.150 203.901,15.150 ZM203.911,15.154 C203.915,15.154 203.918,15.155 203.922,15.156 C203.992,15.185 204.062,15.215 204.133,15.244 C204.057,15.218 203.983,15.187 203.911,15.154 ZM224.892,14.740 C224.910,14.748 224.929,14.755 224.947,14.764 L224.947,14.764 C224.929,14.755 224.910,14.748 224.892,14.740 ZM225.044,14.801 C225.035,14.793 225.026,14.786 225.017,14.778 C225.028,14.786 225.039,14.795 225.049,14.803 C225.047,14.803 225.046,14.802 225.044,14.801 ZM225.088,14.838 C225.076,14.829 225.064,14.818 225.052,14.809 C225.055,14.809 225.058,14.810 225.060,14.811 C225.071,14.820 225.083,14.830 225.094,14.838 C225.092,14.838 225.090,14.838 225.088,14.838 ZM225.126,14.868 C225.128,14.867 225.130,14.867 225.132,14.867 C225.168,14.896 225.204,14.923 225.241,14.952 C225.202,14.925 225.164,14.897 225.126,14.868 Z" class="red-line"/>
</svg>
