<svg xmlns="http://www.w3.org/2000/svg" xmlns:xlink="http://www.w3.org/1999/xlink" preserveAspectRatio="xMidYMid" width="267.594" height="27" viewBox="0 0 267.594 27">
  <defs>
    <style>
      .green-line {
        fill: #58a330;
        fill-rule: evenodd;
      }
    </style>
  </defs>
  <path d="M262.289,9.939 C261.987,9.789 261.698,9.629 261.415,9.446 C260.937,9.026 260.509,8.562 260.100,8.071 C259.551,7.324 259.060,6.550 258.583,5.752 C257.965,4.717 257.385,3.671 256.697,2.680 C256.429,2.295 256.169,1.907 255.868,1.548 C255.492,1.096 255.068,0.751 254.571,0.436 C254.012,0.085 253.318,0.028 252.682,-0.014 C252.359,0.011 252.043,0.063 251.731,0.145 C251.329,0.257 250.981,0.461 250.684,0.754 C249.941,1.402 249.589,2.352 249.229,3.241 C249.021,3.753 248.827,4.270 248.626,4.783 C248.310,5.596 247.977,6.401 247.642,7.206 C247.294,8.006 246.916,8.791 246.529,9.574 C246.211,10.218 245.827,10.804 245.407,11.379 C245.175,11.654 244.938,11.909 244.674,12.149 C244.647,12.166 244.620,12.182 244.592,12.197 C244.441,12.243 244.290,12.283 244.137,12.317 C244.099,12.318 244.060,12.318 244.022,12.317 C243.986,12.308 243.950,12.298 243.915,12.287 C243.687,12.164 243.473,12.034 243.263,11.891 C243.082,11.722 242.917,11.549 242.757,11.364 C242.515,11.008 242.296,10.646 242.098,10.262 C241.692,9.194 241.383,8.080 241.039,6.992 C240.560,5.480 240.088,3.967 239.329,2.567 C238.904,1.783 238.393,1.030 237.577,0.614 C236.952,0.295 236.233,0.207 235.549,0.396 C235.270,0.512 234.993,0.630 234.717,0.751 C234.484,0.926 234.252,1.106 234.021,1.286 C233.580,1.728 233.357,2.286 233.152,2.863 C233.059,3.128 233.008,3.404 232.899,3.662 C232.787,3.930 232.674,4.199 232.562,4.467 C232.097,5.437 231.634,6.402 231.127,7.351 C230.836,7.894 230.546,8.440 230.255,8.983 C229.902,9.645 229.511,10.292 229.124,10.933 C228.756,11.548 228.337,12.120 227.904,12.687 C227.433,13.279 226.948,13.842 226.379,14.336 C226.168,14.470 225.957,14.592 225.735,14.704 C225.553,14.765 225.373,14.815 225.189,14.857 C225.180,14.857 225.172,14.857 225.163,14.857 C225.083,14.814 225.005,14.768 224.930,14.718 C224.921,14.710 224.913,14.702 224.904,14.694 C224.517,14.092 224.209,13.435 223.923,12.780 C223.207,11.040 222.554,9.275 221.857,7.528 C221.526,6.697 221.139,5.892 220.754,5.083 C220.400,4.335 220.001,3.584 219.440,2.967 C219.144,2.641 218.849,2.376 218.493,2.115 C218.169,1.877 217.759,1.592 217.359,1.509 C216.869,1.407 216.432,1.318 215.934,1.443 C215.379,1.582 214.956,1.829 214.519,2.190 C213.600,2.953 213.175,4.111 212.669,5.157 C212.361,5.794 212.036,6.421 211.712,7.049 C211.412,7.627 211.081,8.190 210.760,8.756 C210.104,9.915 209.403,11.038 208.603,12.102 C208.307,12.478 208.004,12.848 207.686,13.206 C207.364,13.571 207.000,13.890 206.624,14.195 C206.179,14.518 205.728,14.811 205.240,15.062 C205.070,15.118 204.902,15.164 204.728,15.202 C204.518,15.206 204.312,15.202 204.104,15.188 C203.985,15.161 203.867,15.129 203.750,15.092 C203.742,15.088 203.734,15.084 203.727,15.079 C203.576,14.936 203.437,14.786 203.301,14.628 C203.124,14.380 202.951,14.131 202.784,13.876 C202.468,13.390 202.242,12.835 202.001,12.310 C201.838,11.955 201.683,11.599 201.529,11.239 C201.130,10.303 200.734,9.366 200.332,8.433 C200.076,7.821 199.819,7.210 199.550,6.604 C199.177,5.770 198.708,4.981 198.230,4.204 C197.836,3.569 197.354,2.977 196.813,2.464 C196.514,2.182 196.155,1.946 195.816,1.714 C195.474,1.481 195.060,1.351 194.674,1.208 C194.388,1.168 194.102,1.129 193.815,1.092 C193.392,1.092 192.866,1.231 192.497,1.437 C192.149,1.631 191.850,1.875 191.535,2.118 C191.467,2.193 191.399,2.269 191.331,2.345 C191.150,2.557 190.986,2.782 190.840,3.017 C190.495,3.544 190.165,4.085 189.855,4.630 C189.270,5.656 188.695,6.691 188.062,7.688 C187.658,8.327 187.254,8.965 186.851,9.603 C186.421,10.281 185.984,10.953 185.541,11.621 C185.107,12.274 184.629,12.897 184.151,13.519 C183.831,13.926 183.501,14.322 183.153,14.707 C182.848,15.047 182.506,15.346 182.152,15.631 C181.637,16.000 181.114,16.325 180.547,16.606 C180.282,16.698 180.020,16.772 179.746,16.832 C179.374,16.857 179.012,16.855 178.642,16.826 C178.401,16.772 178.173,16.709 177.944,16.630 C177.719,16.503 177.507,16.369 177.298,16.224 C176.961,15.931 176.647,15.627 176.348,15.295 C175.928,14.689 175.576,14.049 175.212,13.404 C174.770,12.614 174.393,11.791 174.007,10.972 C173.623,10.157 173.222,9.351 172.832,8.538 C172.377,7.585 171.813,6.713 171.163,5.883 C170.887,5.532 170.607,5.208 170.293,4.890 C169.988,4.582 169.608,4.333 169.260,4.075 C168.903,3.811 168.500,3.620 168.089,3.457 C167.845,3.338 167.589,3.259 167.319,3.219 C167.047,3.167 166.769,3.141 166.491,3.143 C166.372,3.158 166.253,3.173 166.132,3.189 C165.846,3.203 165.569,3.256 165.299,3.355 C164.921,3.465 164.474,3.698 164.190,3.976 C163.484,4.673 163.051,5.591 162.580,6.451 C161.903,7.685 161.148,8.877 160.418,10.078 C159.979,10.798 159.511,11.501 159.059,12.212 C158.376,13.283 157.675,14.344 156.918,15.364 C156.207,16.251 155.456,17.118 154.585,17.850 C154.340,18.009 154.098,18.149 153.841,18.279 C153.633,18.348 153.429,18.404 153.217,18.447 C153.160,18.448 153.104,18.447 153.047,18.445 C152.989,18.432 152.931,18.417 152.874,18.400 C152.864,18.394 152.855,18.387 152.845,18.381 C152.667,18.209 152.500,18.032 152.337,17.844 C151.256,16.303 150.425,14.606 149.574,12.931 C148.960,11.727 148.375,10.507 147.696,9.339 C147.285,8.635 146.892,7.926 146.417,7.261 C145.860,6.481 145.174,5.870 144.406,5.307 C144.300,5.254 144.193,5.200 144.088,5.148 C143.874,5.018 143.644,4.949 143.396,4.939 C143.250,4.917 143.104,4.898 142.956,4.878 C142.658,4.879 142.379,4.955 142.122,5.104 C141.378,5.469 140.841,6.228 140.569,6.998 C140.302,7.753 140.039,8.508 139.760,9.258 C139.129,10.952 138.476,12.635 137.784,14.303 C137.498,14.952 137.191,15.587 136.889,16.227 C136.550,16.947 136.188,17.636 135.728,18.282 C135.424,18.642 135.111,18.983 134.765,19.304 C134.695,19.351 134.623,19.395 134.549,19.436 C134.546,19.437 134.542,19.438 134.539,19.439 C134.473,19.438 134.408,19.438 134.342,19.438 C134.146,19.398 133.958,19.347 133.767,19.285 C133.727,19.262 133.687,19.238 133.648,19.214 C133.260,18.850 132.914,18.453 132.578,18.043 C131.718,16.834 131.013,15.523 130.313,14.215 C129.950,13.538 129.592,12.860 129.235,12.181 C128.840,11.426 128.394,10.700 127.950,9.974 C127.278,8.879 126.407,7.828 125.319,7.132 C125.100,7.021 124.871,6.938 124.635,6.879 C124.226,6.756 123.835,6.863 123.437,6.967 C123.308,7.021 123.177,7.076 123.047,7.132 C122.832,7.286 122.619,7.444 122.412,7.610 C122.122,7.900 121.937,8.287 121.788,8.662 C121.233,10.057 120.751,11.478 120.254,12.893 C119.672,14.548 119.065,16.210 118.412,17.836 C118.245,18.228 118.078,18.620 117.913,19.013 C117.956,18.911 117.998,18.810 118.041,18.707 C117.809,19.252 117.566,19.785 117.293,20.311 C117.095,20.692 116.846,21.047 116.587,21.392 C116.372,21.641 116.156,21.866 115.915,22.081 C115.848,22.124 115.780,22.163 115.710,22.199 C115.615,22.231 115.518,22.257 115.420,22.280 C115.379,22.278 115.338,22.277 115.297,22.275 C115.286,22.273 115.274,22.270 115.263,22.267 C115.205,22.235 115.148,22.201 115.092,22.164 C115.078,22.149 115.063,22.136 115.048,22.121 C114.265,20.841 113.682,19.447 113.087,18.072 C112.624,16.880 112.165,15.688 111.734,14.482 C111.460,13.717 111.187,12.951 110.912,12.185 C110.684,11.550 110.473,10.906 110.204,10.287 C110.042,9.916 109.869,9.586 109.647,9.248 C109.369,8.827 108.988,8.548 108.595,8.242 C108.262,7.985 107.966,7.799 107.525,7.799 C106.956,7.799 106.535,8.102 106.219,8.550 C106.037,8.790 105.869,9.042 105.719,9.306 C105.604,9.567 105.499,9.830 105.401,10.098 C105.270,10.437 105.203,10.805 105.090,11.150 C104.931,11.638 104.771,12.127 104.611,12.614 C104.189,13.903 103.711,15.183 103.207,16.441 C102.690,17.633 102.118,18.799 101.351,19.853 C101.071,20.188 100.783,20.496 100.457,20.782 C100.359,20.846 100.258,20.904 100.154,20.955 C100.093,20.977 100.032,20.995 99.971,21.012 C99.968,21.011 99.967,21.009 99.965,21.008 C99.916,20.963 99.870,20.917 99.825,20.869 C98.892,19.346 98.178,17.688 97.408,16.077 C96.929,15.073 96.453,14.070 95.927,13.089 C95.716,12.698 95.465,12.335 95.215,11.969 C94.996,11.645 94.769,11.317 94.516,11.019 C94.017,10.433 93.430,9.953 92.697,9.690 C91.960,9.425 91.142,9.324 90.419,9.690 C90.310,9.746 90.199,9.802 90.091,9.857 C89.860,10.017 89.648,10.198 89.454,10.400 C89.372,10.507 89.290,10.612 89.208,10.719 C89.026,10.909 88.887,11.124 88.790,11.368 C88.561,11.830 88.450,12.345 88.293,12.833 C88.202,13.121 88.114,13.410 88.018,13.695 C87.482,15.279 86.924,16.856 86.300,18.408 C85.956,19.180 85.583,19.947 85.105,20.644 C85.021,20.736 84.934,20.823 84.841,20.905 C84.687,21.011 84.533,21.105 84.370,21.191 C84.354,21.194 84.340,21.199 84.325,21.202 C84.307,21.202 84.289,21.202 84.270,21.202 C84.139,21.172 84.010,21.136 83.884,21.091 C83.816,21.057 83.749,21.019 83.685,20.979 C83.505,20.805 83.344,20.627 83.185,20.436 C82.808,19.923 82.446,19.406 82.114,18.858 C81.878,18.472 81.645,18.087 81.404,17.703 C80.955,16.994 80.506,16.285 80.057,15.573 C79.224,14.255 78.308,12.998 77.213,11.885 C76.667,11.329 76.014,10.975 75.287,10.720 C74.944,10.600 74.540,10.596 74.182,10.584 C73.857,10.575 73.288,10.697 73.017,10.883 C72.794,11.027 72.579,11.184 72.374,11.354 C72.111,11.672 71.866,11.986 71.646,12.336 C71.592,12.453 71.539,12.571 71.485,12.688 C71.358,12.948 71.260,13.215 71.189,13.492 C71.131,13.681 71.078,13.869 71.019,14.056 C70.807,14.739 70.593,15.420 70.383,16.103 C69.878,17.737 69.347,19.368 68.710,20.957 C68.428,21.604 68.132,22.251 67.773,22.858 C67.725,22.761 67.678,22.663 67.632,22.565 C66.967,20.902 66.367,19.207 65.745,17.527 C65.103,15.794 64.417,14.073 63.684,12.376 C63.494,11.935 63.289,11.499 63.078,11.069 C62.841,10.587 62.549,10.131 62.283,9.666 C61.900,8.997 61.335,8.277 60.555,8.062 C60.253,7.978 59.711,7.927 59.411,8.042 C59.185,8.124 58.960,8.215 58.739,8.313 C58.512,8.447 58.329,8.629 58.194,8.858 C57.987,9.155 57.877,9.446 57.770,9.790 C57.607,10.313 57.496,10.851 57.374,11.384 C57.210,12.096 57.014,12.806 56.812,13.511 C56.408,14.915 56.009,16.315 55.462,17.670 C55.100,18.506 54.729,19.320 54.207,20.072 C53.936,20.402 53.654,20.712 53.336,21.006 C53.266,21.051 53.194,21.093 53.121,21.132 C53.056,21.152 52.992,21.170 52.926,21.184 C52.824,21.190 52.723,21.191 52.622,21.186 C52.570,21.175 52.517,21.161 52.465,21.149 C52.442,21.136 52.420,21.122 52.398,21.109 C52.173,20.896 51.962,20.681 51.758,20.451 C51.244,19.716 50.762,18.955 50.277,18.202 C49.975,17.736 49.677,17.270 49.375,16.803 C48.964,16.163 48.562,15.490 48.059,14.918 C47.566,14.356 47.018,13.614 46.269,13.388 C46.076,13.316 45.877,13.276 45.671,13.267 C45.456,13.284 45.242,13.322 45.032,13.380 C44.597,13.478 44.219,13.845 43.907,14.140 C43.366,14.654 43.261,15.482 43.004,16.145 C42.813,16.636 42.625,17.130 42.424,17.617 C42.002,18.591 41.534,19.550 40.925,20.424 C40.649,20.763 40.361,21.078 40.039,21.377 C39.823,21.525 39.608,21.655 39.373,21.777 C39.146,21.859 38.925,21.923 38.687,21.973 C38.512,21.984 38.337,21.982 38.162,21.968 C38.013,21.939 37.866,21.901 37.723,21.853 C37.625,21.802 37.531,21.748 37.441,21.686 C37.310,21.576 37.185,21.457 37.067,21.331 C36.766,20.881 36.531,20.393 36.282,19.911 C36.094,19.546 35.907,19.184 35.719,18.820 C35.498,18.395 35.280,17.971 35.062,17.548 C34.828,17.096 34.605,16.663 34.313,16.245 C33.996,15.797 33.582,15.451 33.175,15.088 C32.742,14.702 32.037,14.512 31.517,14.875 C31.092,15.169 30.614,15.447 30.337,15.901 C30.058,16.354 29.892,16.854 29.704,17.348 C29.545,17.713 29.387,18.076 29.228,18.440 C28.746,19.542 28.192,20.599 27.507,21.586 C27.112,22.061 26.692,22.493 26.223,22.894 C25.817,23.166 25.407,23.400 24.967,23.606 C24.809,23.661 24.647,23.706 24.482,23.739 C24.324,23.749 24.166,23.750 24.008,23.741 C23.757,23.689 23.525,23.628 23.288,23.544 C23.233,23.511 23.178,23.477 23.122,23.444 C22.866,23.216 22.638,22.973 22.417,22.711 C22.060,22.175 21.782,21.599 21.492,21.023 C21.240,20.526 20.989,20.027 20.739,19.529 C20.335,18.729 19.927,17.934 19.520,17.137 C19.142,16.393 18.747,15.655 18.283,14.960 C18.017,14.562 17.688,14.191 17.384,13.820 C17.087,13.456 16.733,13.183 16.350,12.921 C16.153,12.834 15.954,12.753 15.753,12.677 C15.542,12.638 15.330,12.618 15.116,12.612 C14.892,12.634 14.670,12.670 14.449,12.717 C14.239,12.795 14.031,12.880 13.827,12.969 C13.640,13.073 13.465,13.198 13.302,13.338 C13.150,13.501 13.008,13.672 12.879,13.853 C12.658,14.276 12.489,14.716 12.307,15.156 C12.353,15.048 12.398,14.939 12.445,14.831 C12.229,15.338 12.028,15.850 11.826,16.365 C11.630,16.817 11.433,17.269 11.237,17.722 C10.738,18.871 10.127,19.968 9.387,20.977 C9.026,21.386 8.651,21.765 8.240,22.125 C8.126,22.201 8.009,22.271 7.888,22.334 C7.735,22.386 7.585,22.430 7.430,22.469 C7.295,22.277 7.167,22.081 7.041,21.878 C6.887,21.628 6.769,21.345 6.653,21.067 C6.494,20.686 6.333,20.305 6.175,19.924 C6.032,19.584 5.871,19.246 5.753,18.895 C5.437,17.951 5.120,17.006 4.804,16.061 C4.719,15.810 4.659,15.547 4.588,15.293 C4.414,14.668 4.239,14.042 4.064,13.417 C3.704,12.128 3.349,10.838 2.999,9.546 C2.782,8.747 1.925,8.267 1.129,8.485 C0.328,8.707 -0.150,9.556 0.067,10.356 C0.650,12.506 1.251,14.651 1.851,16.796 C2.063,17.554 2.351,18.297 2.601,19.044 C2.874,19.856 3.205,20.635 3.538,21.428 C3.766,21.966 3.996,22.501 4.237,23.032 C4.400,23.394 4.615,23.715 4.844,24.037 C5.113,24.415 5.427,24.855 5.840,25.091 C5.928,25.142 6.015,25.191 6.102,25.242 C6.307,25.358 6.526,25.426 6.759,25.446 C7.266,25.537 7.727,25.464 8.227,25.370 C8.704,25.282 9.179,25.021 9.599,24.790 C9.824,24.632 10.042,24.468 10.257,24.297 C10.489,24.104 10.709,23.898 10.916,23.679 C12.252,22.340 13.142,20.556 13.831,18.815 C14.283,17.675 14.705,16.528 15.128,15.379 C15.136,15.363 15.143,15.348 15.150,15.333 C15.398,15.578 15.621,15.840 15.841,16.110 C16.456,16.957 16.924,17.898 17.385,18.833 C17.713,19.500 18.042,20.165 18.371,20.831 C18.654,21.404 18.922,21.982 19.197,22.559 C19.405,22.995 19.612,23.432 19.838,23.859 C20.016,24.198 20.287,24.497 20.520,24.798 C20.757,25.106 21.026,25.361 21.322,25.611 C21.817,26.031 22.397,26.262 23.012,26.446 C23.803,26.684 24.630,26.608 25.426,26.464 C25.694,26.395 25.953,26.301 26.203,26.183 C26.632,25.998 27.029,25.793 27.431,25.553 C28.190,25.103 28.829,24.446 29.409,23.791 C30.480,22.585 31.191,21.058 31.798,19.581 C31.941,19.233 32.085,18.885 32.228,18.538 C32.269,18.438 32.307,18.339 32.345,18.238 C32.628,18.738 32.871,19.262 33.126,19.778 C33.344,20.217 33.561,20.657 33.775,21.098 C34.126,21.820 34.426,22.645 34.977,23.238 C35.417,23.712 35.892,24.106 36.466,24.409 C37.085,24.738 37.798,24.806 38.485,24.846 C38.991,24.878 39.530,24.738 40.009,24.592 C40.615,24.405 41.172,24.073 41.671,23.692 C42.642,22.947 43.375,21.910 43.944,20.836 C44.445,19.894 44.859,18.888 45.213,17.881 C45.333,17.540 45.453,17.196 45.573,16.853 C45.643,16.657 45.701,16.458 45.759,16.259 C45.881,16.395 46.001,16.532 46.120,16.671 C46.689,17.469 47.184,18.316 47.693,19.153 C48.033,19.716 48.374,20.280 48.714,20.843 C48.957,21.243 49.190,21.647 49.445,22.039 C49.639,22.340 49.894,22.617 50.132,22.883 C50.221,22.973 50.310,23.064 50.399,23.155 C50.588,23.310 50.781,23.462 50.977,23.611 C51.296,23.778 51.593,23.910 51.943,24.002 C52.280,24.091 52.670,24.095 53.017,24.091 C53.359,24.090 53.725,23.999 54.052,23.907 C54.420,23.801 54.753,23.580 55.061,23.365 C55.708,22.914 56.243,22.289 56.701,21.652 C57.213,20.940 57.583,20.176 57.937,19.374 C58.498,18.106 58.957,16.806 59.345,15.474 C59.540,14.806 59.743,14.139 59.920,13.466 C60.021,13.087 60.116,12.705 60.213,12.324 C60.452,12.788 60.669,13.259 60.877,13.740 C61.597,15.491 62.242,17.275 62.848,19.068 C63.144,19.944 63.439,20.820 63.730,21.697 C63.914,22.253 64.098,22.808 64.280,23.364 C64.455,23.895 64.687,24.408 64.905,24.921 C65.116,25.419 65.452,25.851 65.844,26.219 C66.132,26.488 66.526,26.754 66.909,26.864 C67.153,26.947 67.406,26.996 67.666,27.008 C67.925,26.987 68.181,26.943 68.434,26.884 C68.687,26.792 68.930,26.679 69.163,26.545 C69.381,26.383 69.599,26.217 69.812,26.048 C70.215,25.682 70.531,25.266 70.841,24.821 C71.153,24.371 71.366,23.839 71.605,23.350 C71.878,22.794 72.111,22.220 72.345,21.648 C72.605,21.006 72.833,20.354 73.050,19.697 C73.365,18.742 73.666,17.790 73.948,16.824 C74.060,16.440 74.171,16.053 74.279,15.668 C74.413,15.199 74.525,14.715 74.673,14.249 C75.124,14.664 75.533,15.119 75.919,15.595 C76.987,17.072 77.944,18.643 78.883,20.203 C79.126,20.607 79.359,21.014 79.610,21.411 C79.822,21.748 80.075,22.064 80.309,22.384 C80.540,22.702 80.788,23.007 81.045,23.304 C81.295,23.590 81.630,23.803 81.935,24.024 C82.252,24.252 82.677,24.369 83.036,24.509 C83.417,24.658 83.849,24.668 84.250,24.721 C84.629,24.771 85.050,24.652 85.415,24.562 C85.555,24.502 85.695,24.442 85.835,24.384 C86.074,24.295 86.300,24.179 86.510,24.034 C86.849,23.829 87.159,23.541 87.455,23.281 C87.766,23.004 88.004,22.621 88.247,22.285 C88.492,21.941 88.670,21.537 88.858,21.162 C89.051,20.777 89.234,20.391 89.404,19.995 C89.857,18.940 90.232,17.852 90.612,16.767 C91.063,15.483 91.447,14.182 91.805,12.869 C91.925,12.979 92.038,13.097 92.143,13.222 C92.596,13.834 93.005,14.466 93.369,15.140 C93.641,15.639 93.892,16.153 94.134,16.667 C94.469,17.374 94.808,18.077 95.138,18.785 C95.549,19.670 95.957,20.556 96.381,21.434 C96.750,22.201 97.181,22.922 97.806,23.505 C98.113,23.791 98.466,24.006 98.854,24.156 C99.099,24.280 99.358,24.343 99.632,24.344 C99.906,24.374 100.176,24.360 100.446,24.298 C101.264,24.154 102.008,23.815 102.648,23.283 C103.412,22.652 104.005,21.866 104.569,21.057 C105.077,20.329 105.428,19.485 105.798,18.686 C106.264,17.681 106.633,16.635 107.004,15.594 C107.254,14.892 107.466,14.174 107.695,13.466 C107.781,13.203 107.853,12.934 107.928,12.666 C108.565,14.423 109.150,16.198 109.780,17.957 C110.121,18.909 110.485,19.849 110.853,20.791 C111.147,21.543 111.468,22.283 111.817,23.012 C112.012,23.419 112.168,23.806 112.445,24.165 C112.582,24.384 112.753,24.571 112.955,24.727 C113.235,24.980 113.553,25.178 113.887,25.349 C114.391,25.605 114.895,25.665 115.451,25.698 C115.742,25.667 116.033,25.631 116.322,25.589 C116.608,25.533 116.882,25.439 117.142,25.308 C117.396,25.223 117.629,25.102 117.843,24.941 C118.069,24.772 118.290,24.596 118.505,24.415 C119.034,23.982 119.439,23.353 119.840,22.806 C120.533,21.863 120.936,20.720 121.395,19.653 C121.896,18.484 122.331,17.292 122.756,16.094 C123.082,15.176 123.415,14.261 123.721,13.335 C124.003,12.483 124.281,11.630 124.564,10.779 C124.633,10.857 124.701,10.938 124.768,11.018 C125.728,12.411 126.472,13.918 127.255,15.414 C128.179,17.177 129.039,19.010 130.294,20.570 C130.526,20.857 130.758,21.141 131.003,21.416 C131.089,21.500 131.175,21.586 131.263,21.670 C131.466,21.839 131.674,22.003 131.885,22.164 C132.230,22.371 132.588,22.513 132.959,22.667 C133.093,22.707 133.227,22.745 133.361,22.784 C133.653,22.836 133.946,22.881 134.241,22.915 C134.376,22.918 134.512,22.922 134.649,22.926 C134.930,22.891 135.210,22.852 135.488,22.805 C135.599,22.761 135.710,22.719 135.820,22.677 C136.082,22.586 136.329,22.466 136.560,22.312 C136.664,22.234 136.766,22.155 136.870,22.078 C137.101,21.913 137.319,21.732 137.522,21.536 C137.925,21.172 138.268,20.728 138.598,20.297 C139.145,19.585 139.550,18.815 139.937,18.007 C140.330,17.188 140.715,16.364 141.060,15.524 C141.507,14.430 141.926,13.327 142.339,12.221 C142.752,11.109 143.125,9.984 143.487,8.855 C143.560,8.932 143.631,9.013 143.702,9.094 C144.297,9.948 144.808,10.869 145.307,11.782 C145.709,12.521 146.074,13.283 146.443,14.038 C146.858,14.888 147.273,15.739 147.695,16.586 C148.478,18.160 149.241,19.777 150.493,21.041 C150.704,21.211 150.920,21.372 151.143,21.525 C151.387,21.630 151.631,21.734 151.875,21.836 C152.362,21.973 152.853,22.041 153.358,22.053 C153.647,22.021 153.936,21.982 154.224,21.941 C154.489,21.892 154.749,21.818 154.999,21.719 C155.684,21.485 156.290,21.119 156.859,20.681 C157.817,19.947 158.608,19.048 159.387,18.130 C160.189,17.185 160.873,16.143 161.563,15.117 C162.224,14.134 162.845,13.124 163.480,12.123 C163.946,11.390 164.383,10.638 164.833,9.893 C165.445,8.881 165.979,7.823 166.590,6.810 C166.590,6.810 166.590,6.810 166.591,6.810 C166.635,6.822 166.679,6.835 166.722,6.848 C166.981,6.991 167.222,7.143 167.459,7.310 C167.720,7.546 167.954,7.790 168.185,8.056 C168.731,8.807 169.192,9.588 169.596,10.430 C170.117,11.515 170.611,12.616 171.101,13.716 C171.521,14.658 171.997,15.573 172.482,16.485 C173.025,17.505 173.763,18.384 174.620,19.155 C174.953,19.453 175.329,19.712 175.694,19.964 C176.167,20.292 176.755,20.489 177.296,20.663 C177.583,20.739 177.874,20.793 178.171,20.822 C178.499,20.879 178.830,20.912 179.163,20.925 C179.780,20.967 180.412,20.843 181.019,20.742 C181.477,20.666 181.941,20.455 182.359,20.266 C182.935,20.007 183.461,19.708 183.987,19.360 C184.988,18.696 185.859,17.891 186.635,16.979 C187.315,16.180 187.937,15.322 188.562,14.480 C189.228,13.587 189.815,12.625 190.405,11.679 C190.879,10.919 191.354,10.159 191.829,9.397 C192.248,8.723 192.625,8.016 193.014,7.322 C193.361,6.701 193.715,6.087 194.088,5.482 C194.206,5.596 194.319,5.713 194.431,5.838 C195.115,6.809 195.668,7.865 196.148,8.952 C197.015,11.043 197.833,13.154 198.742,15.227 C198.918,15.629 199.131,16.005 199.360,16.378 C199.652,16.854 199.997,17.345 200.366,17.764 C200.660,18.097 200.959,18.394 201.332,18.642 C201.794,18.950 202.299,19.150 202.826,19.322 C202.951,19.348 203.075,19.377 203.200,19.405 C203.521,19.448 203.840,19.492 204.161,19.534 C204.414,19.558 204.669,19.560 204.923,19.540 C205.235,19.501 205.547,19.461 205.859,19.416 C206.888,19.159 207.806,18.678 208.673,18.075 C209.560,17.460 210.354,16.757 211.064,15.947 C211.769,15.141 212.414,14.257 213.015,13.372 C213.729,12.321 214.320,11.190 214.923,10.076 C215.284,9.406 215.616,8.724 215.950,8.042 C216.224,7.484 216.462,6.908 216.725,6.345 C217.095,6.988 217.401,7.674 217.695,8.355 C218.173,9.552 218.604,10.768 219.043,11.981 C219.528,13.322 219.997,14.671 220.590,15.970 C220.736,16.290 220.886,16.608 221.047,16.922 C221.290,17.390 221.669,17.806 222.064,18.147 C222.400,18.440 222.761,18.680 223.148,18.894 C223.438,19.021 223.730,19.142 224.025,19.257 C224.332,19.333 224.646,19.385 224.964,19.410 C225.425,19.420 225.934,19.394 226.385,19.285 C227.008,19.132 227.578,18.890 228.165,18.632 C228.406,18.516 228.636,18.380 228.852,18.224 C229.112,18.025 229.371,17.826 229.628,17.625 C230.034,17.271 230.398,16.893 230.752,16.488 C231.429,15.713 232.059,14.876 232.649,14.035 C233.251,13.175 233.749,12.239 234.271,11.331 C234.740,10.517 235.156,9.669 235.597,8.841 C235.854,8.357 236.083,7.856 236.312,7.356 C236.673,8.484 237.000,9.625 237.329,10.760 C237.833,12.506 238.677,14.136 240.009,15.395 C240.374,15.742 240.816,16.030 241.232,16.309 C241.657,16.595 242.165,16.755 242.636,16.946 C243.070,17.122 243.585,17.127 244.046,17.164 C244.499,17.202 244.971,17.077 245.419,17.015 C245.858,16.957 246.312,16.750 246.708,16.569 C247.141,16.372 247.472,16.139 247.849,15.837 C248.557,15.269 249.080,14.569 249.631,13.851 C250.158,13.166 250.565,12.426 250.946,11.654 C251.388,10.757 251.786,9.844 252.173,8.924 C252.572,7.975 252.939,7.015 253.298,6.051 C253.315,6.079 253.333,6.108 253.351,6.137 C253.753,6.791 254.108,7.479 254.493,8.143 C254.883,8.821 255.271,9.493 255.701,10.147 C256.118,10.781 256.587,11.381 257.063,11.971 C257.964,13.089 259.092,13.983 260.416,14.543 C261.113,14.837 261.804,15.071 262.540,15.244 C263.380,15.439 264.255,15.517 265.117,15.551 C266.464,15.605 267.589,14.384 267.589,13.078 C267.589,12.426 267.327,11.792 266.865,11.331 C266.372,10.838 265.792,10.664 265.117,10.606 C264.983,10.597 264.849,10.586 264.715,10.572 C263.889,10.432 263.077,10.227 262.289,9.939 ZM15.098,15.320 C15.019,15.354 14.939,15.388 14.860,15.421 C14.939,15.380 15.021,15.345 15.104,15.316 C15.102,15.318 15.100,15.319 15.098,15.320 ZM83.613,20.983 C83.654,21.001 83.696,21.018 83.737,21.037 L83.738,21.037 C83.696,21.019 83.654,21.002 83.613,20.983 ZM91.493,12.704 C91.474,12.696 91.455,12.689 91.436,12.681 C91.455,12.688 91.475,12.696 91.494,12.704 L91.493,12.704 ZM91.692,13.064 C91.717,12.991 91.746,12.921 91.780,12.853 L91.780,12.853 C91.751,12.923 91.722,12.993 91.692,13.064 ZM91.945,12.582 C91.943,12.583 91.941,12.583 91.939,12.584 C91.980,12.527 92.023,12.472 92.070,12.418 C92.029,12.473 91.987,12.528 91.945,12.582 ZM115.223,22.273 C115.222,22.273 115.220,22.273 115.218,22.273 C115.197,22.255 115.176,22.238 115.155,22.220 C115.178,22.238 115.201,22.255 115.223,22.273 ZM115.267,22.310 C115.177,22.324 115.087,22.336 114.996,22.342 C115.085,22.331 115.173,22.318 115.262,22.306 C115.256,22.302 115.250,22.298 115.244,22.292 C115.246,22.292 115.248,22.293 115.250,22.293 C115.255,22.298 115.261,22.302 115.266,22.306 C115.278,22.304 115.291,22.303 115.303,22.301 C115.306,22.302 115.309,22.302 115.311,22.302 C115.297,22.304 115.284,22.307 115.270,22.309 C115.290,22.324 115.309,22.340 115.329,22.354 C115.308,22.340 115.287,22.324 115.267,22.310 ZM115.404,22.335 C115.416,22.330 115.429,22.324 115.441,22.319 C115.442,22.319 115.442,22.319 115.442,22.319 C115.430,22.324 115.417,22.331 115.404,22.335 ZM115.455,22.315 C115.454,22.315 115.454,22.315 115.453,22.314 C115.506,22.291 115.560,22.269 115.614,22.246 C115.562,22.271 115.509,22.295 115.455,22.315 ZM152.684,18.403 C152.747,18.412 152.810,18.420 152.873,18.429 C152.873,18.430 152.874,18.431 152.876,18.431 C152.812,18.424 152.748,18.414 152.684,18.403 ZM152.900,18.434 C152.899,18.433 152.899,18.433 152.898,18.432 C152.906,18.433 152.914,18.435 152.922,18.436 C152.922,18.436 152.923,18.436 152.924,18.436 C152.916,18.436 152.908,18.435 152.900,18.434 ZM152.932,18.437 L152.931,18.436 C152.933,18.437 152.934,18.437 152.935,18.437 C152.934,18.437 152.933,18.437 152.932,18.437 ZM203.901,15.169 C203.887,15.162 203.871,15.156 203.857,15.148 C203.874,15.156 203.892,15.163 203.910,15.170 C203.907,15.170 203.904,15.170 203.901,15.169 ZM203.911,15.175 C203.915,15.175 203.918,15.176 203.922,15.176 C203.992,15.205 204.062,15.235 204.133,15.265 C204.057,15.237 203.983,15.208 203.911,15.175 ZM224.892,14.759 C224.910,14.768 224.929,14.776 224.947,14.783 L224.947,14.784 C224.929,14.776 224.910,14.769 224.892,14.759 ZM225.044,14.821 C225.035,14.814 225.026,14.807 225.017,14.799 C225.028,14.807 225.038,14.815 225.049,14.823 C225.047,14.822 225.046,14.821 225.044,14.821 ZM225.088,14.857 C225.076,14.848 225.064,14.838 225.052,14.828 C225.055,14.828 225.058,14.831 225.060,14.832 C225.071,14.841 225.082,14.849 225.094,14.857 C225.092,14.857 225.090,14.857 225.088,14.857 ZM225.126,14.888 C225.128,14.888 225.130,14.887 225.132,14.887 C225.168,14.916 225.205,14.944 225.241,14.972 C225.202,14.946 225.164,14.917 225.126,14.888 Z" class="green-line"/>
</svg>
