<svg xmlns="http://www.w3.org/2000/svg" xmlns:xlink="http://www.w3.org/1999/xlink" preserveAspectRatio="xMidYMid" width="148" height="114" viewBox="0 0 148 114">
  <defs>
    <style>
      .avoid-1 {
        fill: #7ec2bf;
      }

      .avoid-1, .avoid-2, .avoid-3, .avoid-4 {
        fill-rule: evenodd;
      }

      .avoid-2 {
        fill: #fff;
      }

      .avoid-3 {
        stroke: #7dc2bf;
        stroke-width: 2px;
        fill: none;
      }

      .avoid-4 {
        fill: #192a4a;
      }
    </style>
  </defs>
  <g>
    <path d="M50.918,31.926 C49.600,30.617 45.330,26.709 38.617,25.994 C31.916,25.282 27.001,28.200 24.911,29.484 C22.361,31.050 18.040,33.703 16.477,38.557 C14.478,44.759 17.530,52.864 17.530,52.864 C9.855,56.323 4.351,62.991 3.826,70.312 C3.059,80.984 12.928,92.301 27.372,93.342 C31.163,97.555 42.045,108.513 60.054,112.538 C82.848,117.628 100.802,107.983 105.038,105.558 C118.244,108.884 132.168,104.363 140.532,94.041 C149.624,82.828 150.519,66.782 142.641,54.260 C143.131,53.029 148.892,37.815 139.828,24.946 C131.958,13.769 116.290,9.177 101.875,14.479 C100.338,12.920 91.533,4.296 79.033,5.056 C65.875,5.858 54.011,16.726 50.918,31.926 Z" class="avoid-1"/>
    <path d="M48.134,27.918 C46.816,26.610 42.546,22.699 35.833,21.985 C29.132,21.272 24.217,24.191 22.128,25.474 C19.577,27.042 15.254,29.695 13.693,34.548 C11.694,40.751 14.748,48.856 14.748,48.856 C7.071,52.314 1.567,58.983 1.042,66.305 C0.275,76.974 10.145,88.293 24.588,89.334 C28.379,93.547 39.261,104.503 57.271,108.527 C80.064,113.622 98.018,103.974 102.254,101.549 C115.460,104.876 129.384,100.353 137.748,90.033 C146.840,78.821 147.735,62.773 139.856,50.251 C140.347,49.021 146.109,33.807 137.044,20.940 C129.174,9.762 113.506,5.166 99.091,10.471 C97.554,8.914 88.749,0.288 76.247,1.046 C63.091,1.849 51.227,12.718 48.134,27.918 Z" class="avoid-2"/>
    <path d="M48.134,27.918 C46.816,26.610 42.546,22.699 35.833,21.985 C29.132,21.272 24.217,24.191 22.128,25.474 C19.577,27.042 15.254,29.695 13.693,34.548 C11.694,40.751 14.748,48.856 14.748,48.856 C7.071,52.314 1.567,58.983 1.042,66.305 C0.275,76.974 10.145,88.293 24.588,89.334 C28.379,93.547 39.261,104.503 57.271,108.527 C80.064,113.622 98.018,103.974 102.254,101.549 C115.460,104.876 129.384,100.353 137.748,90.033 C146.840,78.821 147.735,62.773 139.856,50.251 C140.347,49.021 146.109,33.807 137.044,20.940 C129.174,9.762 113.506,5.166 99.091,10.471 C97.554,8.914 88.749,0.288 76.247,1.046 C63.091,1.849 51.227,12.718 48.134,27.918 Z" class="avoid-3"/>
  </g>
  <g>
    <path d="M74.368,55.719 C74.368,58.554 76.658,60.917 79.579,60.917 C82.421,60.917 84.790,58.633 84.790,55.719 C84.790,52.885 82.500,50.522 79.579,50.522 C76.737,50.601 74.368,52.885 74.368,55.719 Z" class="avoid-4"/>
    <path d="M103.342,61.547 L103.342,80.368 L91.421,65.799 C90.079,64.223 87.632,64.223 86.368,65.799 L68.763,87.297 L64.895,87.297 L77.368,72.099 L66.237,58.476 C64.895,56.901 62.447,56.901 61.184,58.476 L48.711,73.752 L48.711,49.419 C48.711,46.820 50.842,44.616 53.526,44.616 L86.368,44.616 C86.368,44.143 86.289,43.749 86.289,43.278 C86.289,42.489 86.368,41.702 86.447,40.915 L53.526,40.915 C48.868,40.915 45.000,44.695 45.000,49.419 L45.000,82.573 C45.000,87.219 48.789,90.998 53.526,90.998 L98.605,90.998 C103.263,90.998 107.132,87.219 107.132,82.494 L107.132,61.389 C106.342,61.547 105.553,61.547 104.684,61.547 C104.211,61.626 103.737,61.547 103.342,61.547 Z" class="avoid-4"/>
    <path d="M104.605,27.999 C96.158,27.999 89.211,34.850 89.211,43.356 C89.211,51.860 96.158,58.633 104.605,58.633 C113.053,58.633 120.000,51.781 120.000,43.278 C120.000,34.771 113.132,27.999 104.605,27.999 ZM111.789,44.616 L102.000,50.522 C100.974,51.153 99.632,50.364 99.632,49.183 L99.632,37.371 C99.632,36.190 100.974,35.403 102.000,36.031 L111.789,41.937 C112.737,42.568 112.737,43.986 111.789,44.616 Z" class="avoid-1"/>
  </g>
</svg>
