<svg xmlns="http://www.w3.org/2000/svg" xmlns:xlink="http://www.w3.org/1999/xlink" preserveAspectRatio="xMidYMid" width="148" height="114" viewBox="0 0 148 114">
  <defs>
    <style>
      .creatvity-1 {
        fill: #cc0;
      }

      .creatvity-1, .creatvity-2, .creatvity-3, .creatvity-4 {
        fill-rule: evenodd;
      }

      .creatvity-2 {
        fill: #fff;
      }

      .creatvity-3 {
        stroke: #cdcc00;
        stroke-width: 2px;
        fill: none;
      }

      .creatvity-4 {
        fill: #192a4a;
      }
    </style>
  </defs>
  <g>
    <path d="M50.918,31.925 C49.600,30.617 45.330,26.708 38.617,25.993 C31.916,25.281 27.001,28.201 24.911,29.484 C22.361,31.050 18.040,33.703 16.477,38.557 C14.478,44.758 17.530,52.864 17.530,52.864 C9.855,56.322 4.351,62.992 3.826,70.313 C3.059,80.983 12.928,92.301 27.372,93.342 C31.163,97.554 42.045,108.513 60.054,112.537 C82.848,117.628 100.802,107.983 105.038,105.558 C118.244,108.884 132.168,104.362 140.532,94.042 C149.624,82.828 150.519,66.783 142.641,54.261 C143.131,53.030 148.892,37.814 139.828,24.947 C131.958,13.769 116.290,9.176 101.875,14.480 C100.338,12.920 91.533,4.296 79.033,5.056 C65.875,5.858 54.011,16.725 50.918,31.925 Z" class="creatvity-1"/>
    <path d="M48.134,27.918 C46.816,26.609 42.546,22.698 35.833,21.984 C29.132,21.271 24.217,24.192 22.128,25.474 C19.577,27.042 15.254,29.694 13.693,34.547 C11.694,40.751 14.748,48.856 14.748,48.856 C7.071,52.314 1.567,58.984 1.042,66.305 C0.275,76.973 10.145,88.293 24.588,89.334 C28.379,93.547 39.261,104.503 57.271,108.527 C80.064,113.623 98.018,103.975 102.254,101.549 C115.460,104.876 129.384,100.352 137.748,90.034 C146.840,78.820 147.735,62.772 139.856,50.251 C140.347,49.022 146.109,33.806 137.044,20.941 C129.174,9.761 113.506,5.166 99.091,10.471 C97.554,8.913 88.749,0.288 76.247,1.047 C63.091,1.849 51.227,12.718 48.134,27.918 Z" class="creatvity-2"/>
    <path d="M48.134,27.918 C46.816,26.609 42.546,22.698 35.833,21.984 C29.132,21.271 24.217,24.192 22.128,25.474 C19.577,27.042 15.254,29.694 13.693,34.547 C11.694,40.751 14.748,48.856 14.748,48.856 C7.071,52.314 1.567,58.984 1.042,66.305 C0.275,76.973 10.145,88.293 24.588,89.334 C28.379,93.547 39.261,104.503 57.271,108.527 C80.064,113.623 98.018,103.975 102.254,101.549 C115.460,104.876 129.384,100.352 137.748,90.034 C146.840,78.820 147.735,62.772 139.856,50.251 C140.347,49.022 146.109,33.806 137.044,20.941 C129.174,9.761 113.506,5.166 99.091,10.471 C97.554,8.913 88.749,0.288 76.247,1.047 C63.091,1.849 51.227,12.718 48.134,27.918 Z" class="creatvity-3"/>
  </g>
  <g>
    <path d="M109.228,53.251 L82.016,53.251 L82.016,53.251 C82.005,54.513 80.982,55.536 79.730,55.536 C78.479,55.536 77.471,54.513 77.480,53.251 L77.480,53.251 L50.268,53.251 C49.015,53.251 48.000,54.274 48.000,55.536 L48.000,82.748 C48.000,83.991 49.008,85.000 50.250,85.000 L77.250,85.000 L77.250,85.000 C77.259,83.756 78.274,82.748 79.518,82.748 C80.761,82.748 81.760,83.756 81.750,85.000 L81.750,85.000 L108.750,85.000 C109.992,85.000 111.016,83.991 111.035,82.748 L111.460,55.536 C111.480,54.274 110.481,53.251 109.228,53.251 ZM73.844,71.216 L60.277,78.000 C59.959,78.158 59.613,78.237 59.269,78.237 C58.857,78.237 58.446,78.125 58.084,77.900 C57.422,77.489 57.018,76.763 57.020,75.980 L57.050,62.373 C57.052,61.583 57.460,60.852 58.128,60.436 C58.797,60.021 59.632,59.986 60.331,60.337 L73.870,67.158 C74.634,67.543 75.111,68.329 75.106,69.188 C75.100,70.046 74.612,70.831 73.844,71.216 ZM81.825,75.980 C81.815,77.227 80.797,78.237 79.553,78.237 C78.308,78.237 77.306,77.227 77.315,75.980 L77.332,73.718 C77.341,72.468 78.359,71.454 79.606,71.454 C80.852,71.454 81.855,72.468 81.844,73.718 L81.825,75.980 ZM81.920,64.646 C81.910,65.902 80.889,66.919 79.641,66.919 C78.393,66.919 77.389,65.902 77.398,64.646 L77.414,62.373 C77.423,61.117 78.444,60.096 79.694,60.096 C80.945,60.096 81.950,61.117 81.939,62.373 L81.920,64.646 ZM105.452,71.216 L91.832,78.000 C91.513,78.158 91.166,78.237 90.822,78.237 C90.410,78.237 90.000,78.125 89.640,77.900 C88.980,77.489 88.583,76.763 88.590,75.980 L88.727,62.373 C88.735,61.583 89.149,60.852 89.820,60.436 C90.492,60.021 91.327,59.986 92.024,60.337 L105.509,67.158 C106.270,67.543 106.742,68.329 106.729,69.188 C106.717,70.046 106.222,70.831 105.452,71.216 Z" class="creatvity-4"/>
    <path d="M105.143,20.999 C104.537,20.999 103.952,21.243 103.518,21.680 L82.772,42.464 C82.342,42.896 82.098,43.479 82.092,44.089 L82.054,48.674 C82.043,49.940 83.051,50.965 84.304,50.965 L88.842,50.965 C89.443,50.965 90.023,50.724 90.453,50.294 L111.197,29.589 C111.632,29.156 111.882,28.566 111.891,27.953 C111.951,24.122 108.924,20.999 105.143,20.999 Z" class="creatvity-1"/>
  </g>
</svg>
