<svg xmlns="http://www.w3.org/2000/svg" xmlns:xlink="http://www.w3.org/1999/xlink" preserveAspectRatio="xMidYMid" width="148" height="114" viewBox="0 0 148 114">
  <defs>
    <style>
      .create-1 {
        fill: #98dce7;
      }

      .create-1, .create-2, .create-3, .create-4 {
        fill-rule: evenodd;
      }

      .create-2 {
        fill: #fff;
      }

      .create-3 {
        stroke: #98dce7;
        stroke-width: 2px;
        fill: none;
      }

      .create-4 {
        fill: #192a4a;
      }
    </style>
  </defs>
  <g>
    <path d="M50.918,31.926 C49.600,30.617 45.330,26.709 38.617,25.994 C31.916,25.282 27.001,28.200 24.911,29.484 C22.361,31.050 18.040,33.703 16.477,38.557 C14.478,44.759 17.530,52.864 17.530,52.864 C9.855,56.323 4.351,62.991 3.826,70.312 C3.059,80.984 12.928,92.301 27.372,93.342 C31.163,97.555 42.045,108.513 60.054,112.538 C82.848,117.628 100.802,107.983 105.038,105.558 C118.244,108.884 132.168,104.363 140.532,94.041 C149.624,82.828 150.519,66.782 142.641,54.260 C143.131,53.029 148.892,37.815 139.828,24.946 C131.958,13.769 116.290,9.177 101.875,14.479 C100.338,12.920 91.533,4.296 79.033,5.056 C65.875,5.858 54.011,16.726 50.918,31.926 Z" class="create-1"/>
    <path d="M48.134,27.918 C46.816,26.610 42.546,22.699 35.833,21.985 C29.132,21.272 24.217,24.191 22.128,25.474 C19.577,27.042 15.254,29.695 13.693,34.548 C11.694,40.751 14.748,48.856 14.748,48.856 C7.071,52.314 1.567,58.983 1.042,66.305 C0.275,76.974 10.145,88.293 24.588,89.334 C28.379,93.547 39.261,104.503 57.271,108.527 C80.064,113.622 98.018,103.974 102.254,101.549 C115.460,104.876 129.383,100.353 137.748,90.033 C146.839,78.821 147.735,62.773 139.856,50.251 C140.347,49.021 146.109,33.807 137.044,20.940 C129.174,9.762 113.506,5.166 99.091,10.471 C97.554,8.914 88.749,0.288 76.247,1.046 C63.091,1.849 51.227,12.718 48.134,27.918 Z" class="create-2"/>
    <path d="M48.134,27.918 C46.816,26.610 42.546,22.699 35.833,21.985 C29.132,21.272 24.217,24.191 22.128,25.474 C19.577,27.042 15.254,29.695 13.693,34.548 C11.694,40.751 14.748,48.856 14.748,48.856 C7.071,52.314 1.567,58.983 1.042,66.305 C0.275,76.974 10.145,88.293 24.588,89.334 C28.379,93.547 39.261,104.503 57.271,108.527 C80.064,113.622 98.018,103.974 102.254,101.549 C115.460,104.876 129.383,100.353 137.748,90.033 C146.839,78.821 147.735,62.773 139.856,50.251 C140.347,49.021 146.109,33.807 137.044,20.940 C129.174,9.762 113.506,5.166 99.091,10.471 C97.554,8.914 88.749,0.288 76.247,1.046 C63.091,1.849 51.227,12.718 48.134,27.918 Z" class="create-3"/>
  </g>
  <g>
    <path d="M104.000,51.999 L111.000,43.999 L105.000,32.999 L99.000,32.999 C99.000,32.999 92.875,39.249 92.000,39.999 C91.125,40.749 88.000,43.999 88.000,43.999 C88.000,43.999 89.125,46.125 89.000,45.999 C88.875,45.874 95.000,46.999 95.000,46.999 C95.000,46.999 96.875,47.249 98.000,48.000 C99.125,48.749 104.000,51.999 104.000,51.999 Z" class="create-1"/>
    <path d="M67.000,88.999 C67.000,88.999 64.500,80.874 64.000,80.999 C63.500,81.124 55.000,78.000 55.000,78.000 C55.000,78.000 56.250,76.124 56.000,75.999 C55.750,75.874 61.750,71.374 62.000,70.999 C62.250,70.624 71.500,74.624 72.000,74.999 C72.500,75.374 78.000,77.000 78.000,77.000 L75.000,80.999 C75.000,80.999 69.750,86.124 70.000,85.999 C70.250,85.874 67.000,88.999 67.000,88.999 Z" class="create-1"/>
    <path d="M114.475,38.248 C114.475,43.796 111.061,44.984 105.283,51.458 C106.859,52.912 115.000,59.915 115.000,61.235 C115.000,62.027 108.040,68.634 105.939,70.220 C102.788,72.597 99.505,74.314 96.485,75.503 C92.939,76.824 89.656,77.618 86.242,77.881 C81.909,78.013 82.697,77.749 79.677,77.749 C78.889,77.749 78.495,78.542 77.444,79.599 C74.818,81.977 72.455,84.619 69.960,87.129 C68.646,88.318 67.465,90.300 66.020,90.697 C61.030,92.150 51.313,93.999 50.919,93.999 C50.000,93.999 50.000,93.206 50.000,92.943 C50.000,92.679 51.182,82.241 53.414,77.485 C54.859,74.446 58.141,72.730 60.505,70.350 C59.061,68.898 51.576,62.027 51.576,61.103 C51.576,60.310 58.535,53.572 60.111,52.384 C61.162,51.458 62.475,50.534 63.919,49.740 C67.596,47.363 72.061,45.778 75.869,45.117 C77.444,44.721 80.596,44.456 80.990,44.456 L85.455,44.456 C85.717,44.588 85.980,44.588 86.111,44.456 C93.727,38.248 98.323,29.000 105.414,29.000 C110.798,29.000 114.475,33.624 114.475,38.248 ZM103.707,38.380 L95.697,46.439 C93.465,45.646 90.970,44.853 88.737,44.721 L99.374,34.152 L103.707,38.380 ZM84.141,37.323 C84.141,37.851 84.404,40.097 83.222,40.097 C82.828,40.097 82.566,39.832 82.303,39.436 L82.303,35.077 C82.434,34.679 82.828,34.548 83.222,34.548 C84.404,34.548 84.141,36.794 84.141,37.323 ZM69.828,41.815 C69.828,42.608 69.303,42.739 68.909,42.739 C67.727,42.739 66.151,38.776 66.151,38.512 C66.151,38.115 66.545,37.719 67.071,37.719 C67.727,37.719 69.828,41.286 69.828,41.815 ZM109.485,44.192 L103.576,50.269 C101.737,49.080 99.768,48.155 97.929,47.232 L105.283,39.832 L109.485,44.192 ZM56.566,48.288 C56.566,49.080 56.040,49.212 55.778,49.212 C55.121,49.212 51.707,46.835 51.707,46.703 C51.444,46.571 51.444,46.439 51.444,46.042 C51.444,45.514 51.838,45.381 52.364,45.381 C53.020,45.381 56.566,47.760 56.566,48.288 ZM112.636,61.103 C103.444,72.069 92.677,76.031 83.222,76.031 C70.747,76.031 61.293,69.691 53.939,61.367 C63.525,50.005 73.505,46.439 83.222,46.439 C92.939,46.439 103.051,50.005 112.636,61.103 ZM95.434,61.103 C95.434,68.237 89.656,73.390 83.091,73.390 C78.889,73.390 74.162,71.275 71.798,65.727 C71.404,64.670 71.010,62.689 71.010,62.424 L71.010,59.782 C72.061,52.647 77.970,48.948 83.222,48.948 C90.050,48.948 95.434,54.364 95.434,61.103 ZM87.030,61.235 C87.030,63.482 85.455,65.067 83.222,65.067 C80.727,65.067 79.283,63.084 79.283,61.103 C79.283,58.858 81.121,57.140 83.222,57.140 C85.848,57.140 87.030,59.253 87.030,61.235 ZM67.596,74.710 C66.020,76.428 64.444,78.145 62.475,79.862 L56.040,77.749 L62.081,71.671 C63.919,72.730 65.757,73.787 67.596,74.710 ZM113.687,75.238 C113.949,75.371 114.212,75.767 114.212,76.031 C114.212,76.693 113.424,77.088 113.162,77.088 C112.505,77.088 109.091,74.578 109.091,74.050 C109.091,73.390 109.485,73.125 109.879,73.125 C110.273,73.125 112.505,74.446 113.687,75.238 ZM76.657,77.618 L66.151,87.922 L64.182,81.317 L69.828,75.636 C72.192,76.428 74.424,77.088 76.657,77.618 ZM98.586,79.599 C99.374,80.655 100.556,83.033 100.556,83.298 C100.556,83.958 100.030,84.355 99.768,84.355 C98.980,84.355 97.010,80.391 97.010,80.127 C97.010,79.599 97.141,79.202 97.798,79.202 C98.192,79.202 98.454,79.334 98.586,79.599 ZM84.404,82.505 L84.404,86.998 C84.141,87.262 83.879,87.526 83.485,87.526 C82.828,87.526 82.566,86.998 82.566,86.734 L82.566,82.769 C82.697,81.977 83.222,81.977 83.485,81.977 C83.616,81.977 84.141,82.109 84.404,82.505 Z" class="create-4"/>
  </g>
</svg>
