<svg xmlns="http://www.w3.org/2000/svg" xmlns:xlink="http://www.w3.org/1999/xlink" preserveAspectRatio="xMidYMid" width="148" height="114" viewBox="0 0 148 114">
  <defs>
    <style>
      .fun-1 {
        fill: #ab81ed;
      }

      .fun-1, .fun-2, .fun-3, .fun-4 {
        fill-rule: evenodd;
      }

      .fun-2 {
        fill: #fff;
      }

      .fun-3 {
        stroke: #ab82ec;
        stroke-width: 2px;
        fill: none;
      }

      .fun-4 {
        fill: #192a4a;
      }
    </style>
  </defs>
  <g>
    <path d="M50.918,31.926 C49.600,30.617 45.330,26.709 38.617,25.994 C31.916,25.282 27.001,28.200 24.911,29.484 C22.361,31.050 18.040,33.703 16.477,38.557 C14.479,44.759 17.531,52.864 17.531,52.864 C9.855,56.323 4.351,62.991 3.826,70.312 C3.059,80.984 12.928,92.301 27.372,93.342 C31.163,97.555 42.045,108.513 60.054,112.538 C82.848,117.628 100.802,107.983 105.038,105.558 C118.244,108.884 132.168,104.363 140.532,94.041 C149.624,82.828 150.519,66.782 142.641,54.260 C143.131,53.029 148.892,37.815 139.828,24.946 C131.958,13.769 116.290,9.177 101.875,14.479 C100.338,12.920 91.533,4.296 79.033,5.056 C65.875,5.858 54.011,16.726 50.918,31.926 Z" class="fun-1"/>
    <path d="M48.134,27.918 C46.816,26.610 42.546,22.699 35.833,21.985 C29.132,21.272 24.217,24.191 22.128,25.474 C19.577,27.042 15.254,29.695 13.693,34.548 C11.694,40.751 14.748,48.856 14.748,48.856 C7.071,52.314 1.567,58.983 1.042,66.305 C0.275,76.974 10.145,88.293 24.588,89.334 C28.379,93.547 39.261,104.503 57.271,108.527 C80.064,113.622 98.018,103.974 102.254,101.549 C115.460,104.876 129.384,100.353 137.748,90.033 C146.840,78.821 147.735,62.773 139.856,50.251 C140.347,49.021 146.109,33.807 137.044,20.940 C129.174,9.762 113.506,5.166 99.091,10.471 C97.554,8.914 88.749,0.288 76.247,1.046 C63.091,1.849 51.227,12.718 48.134,27.918 Z" class="fun-2"/>
    <path d="M48.134,27.918 C46.816,26.610 42.546,22.699 35.833,21.985 C29.132,21.272 24.217,24.191 22.128,25.474 C19.577,27.042 15.254,29.695 13.693,34.548 C11.694,40.751 14.748,48.856 14.748,48.856 C7.071,52.314 1.567,58.983 1.042,66.305 C0.275,76.974 10.145,88.293 24.588,89.334 C28.379,93.547 39.261,104.503 57.271,108.527 C80.064,113.622 98.018,103.974 102.254,101.549 C115.460,104.876 129.384,100.353 137.748,90.033 C146.840,78.821 147.735,62.773 139.856,50.251 C140.347,49.021 146.109,33.807 137.044,20.940 C129.174,9.762 113.506,5.166 99.091,10.471 C97.554,8.914 88.749,0.288 76.247,1.046 C63.091,1.849 51.227,12.718 48.134,27.918 Z" class="fun-3"/>
  </g>
  <g>
    <path d="M61.642,65.444 L57.996,60.505 L52.770,65.306 C52.311,65.727 51.599,65.692 51.181,65.231 C50.764,64.768 50.797,64.052 51.256,63.632 L51.849,63.088 L50.475,61.528 L46.000,64.917 L46.000,66.348 C46.000,67.128 46.634,67.767 47.408,67.767 L60.234,67.767 C61.008,67.767 61.642,67.128 61.642,66.348 L61.642,65.444 ZM97.766,52.021 C96.991,52.021 96.358,52.659 96.358,53.437 L96.358,66.348 C96.358,67.128 96.992,67.767 97.766,67.767 L110.592,67.767 C111.366,67.767 112.000,67.128 112.000,66.348 L112.000,53.437 C112.000,52.660 111.366,52.021 110.592,52.021 L97.766,52.021 ZM107.800,60.333 L102.354,63.499 C102.194,63.592 102.011,63.592 101.851,63.499 C101.691,63.406 101.600,63.246 101.600,63.060 L101.600,56.727 C101.600,56.542 101.691,56.382 101.851,56.291 C102.011,56.196 102.193,56.196 102.354,56.291 L107.800,59.455 C107.960,59.548 108.051,59.708 108.051,59.894 C108.051,60.079 107.960,60.239 107.800,60.333 ZM47.408,52.021 C46.634,52.021 46.000,52.659 46.000,53.437 L46.000,62.091 L49.955,59.095 C50.426,58.738 51.085,58.812 51.467,59.250 L53.506,61.565 L57.399,57.991 C57.891,57.542 58.660,57.615 59.057,58.153 L61.642,61.654 L61.642,53.437 C61.642,52.660 61.009,52.021 60.234,52.021 L47.408,52.021 ZM52.501,54.847 C53.287,54.847 53.925,55.487 53.925,56.278 C53.925,57.070 53.287,57.712 52.501,57.712 C51.715,57.712 51.078,57.070 51.078,56.278 C51.078,55.487 51.715,54.847 52.501,54.847 ZM61.390,92.999 L96.610,92.999 C97.153,92.999 97.595,92.554 97.595,92.007 L97.595,90.114 C97.595,88.526 95.980,87.227 94.007,87.227 L87.601,87.227 L87.601,80.497 L102.161,80.497 C104.475,80.497 106.369,78.591 106.369,76.262 L106.369,70.033 L102.850,70.033 L102.850,73.360 L55.150,73.360 L55.150,70.033 L51.631,70.033 L51.631,76.262 C51.631,78.591 53.525,80.497 55.839,80.497 L70.399,80.497 L70.399,87.227 L63.993,87.227 C62.019,87.227 60.405,88.526 60.405,90.114 L60.405,92.007 C60.405,92.554 60.847,92.999 61.390,92.999 ZM55.150,49.754 L55.150,47.013 C55.150,46.690 55.413,46.426 55.734,46.426 L65.963,46.426 C65.653,45.385 65.494,44.272 65.489,42.884 L55.839,42.884 C53.525,42.884 51.631,44.790 51.631,47.119 L51.631,49.754 L55.150,49.754 ZM106.369,49.754 L106.369,47.119 C106.369,44.790 104.475,42.884 102.161,42.884 L92.510,42.884 C92.505,44.271 92.346,45.385 92.037,46.426 L102.265,46.426 C102.587,46.426 102.849,46.691 102.849,47.013 L102.849,49.754 L106.369,49.754 Z" class="fun-4"/>
    <path d="M81.154,42.549 L82.644,42.549 C83.461,42.549 84.133,41.873 84.133,41.050 C84.133,40.226 83.461,39.550 82.644,39.550 C81.826,39.550 81.154,40.226 81.154,41.050 L81.154,42.549 ZM75.013,42.549 L75.013,41.050 C75.013,40.226 74.340,39.550 73.523,39.550 C72.706,39.550 72.033,40.226 72.033,41.050 C72.033,41.873 72.706,42.549 73.523,42.549 L75.013,42.549 ZM78.901,55.028 L78.901,44.818 L77.265,44.818 L77.265,55.028 L78.901,55.028 ZM78.083,29.634 C71.866,29.634 66.825,34.707 66.825,40.967 C66.825,46.992 70.485,46.906 71.273,55.028 L75.013,55.028 L75.013,44.818 L73.523,44.818 C71.462,44.818 69.781,43.124 69.781,41.050 C69.781,38.976 71.462,37.283 73.523,37.283 C75.583,37.283 77.265,38.976 77.265,41.050 L77.265,42.549 L78.901,42.549 L78.901,41.050 C78.901,38.976 80.583,37.283 82.644,37.283 C84.704,37.283 86.386,38.976 86.386,41.050 C86.386,43.124 84.704,44.818 82.644,44.818 L81.154,44.818 L81.154,55.028 L84.894,55.028 C85.681,46.907 89.342,46.992 89.342,40.967 C89.342,34.707 84.301,29.634 78.083,29.634 ZM70.564,27.530 L69.238,25.218 C68.930,24.678 68.245,24.492 67.707,24.802 C67.170,25.112 66.986,25.802 67.294,26.343 L68.620,28.656 C68.928,29.195 69.614,29.381 70.151,29.072 C70.688,28.761 70.873,28.071 70.564,27.530 ZM63.939,33.371 L61.642,32.036 C61.105,31.724 60.418,31.908 60.107,32.448 C59.796,32.989 59.979,33.680 60.516,33.994 L62.813,35.329 C63.350,35.642 64.037,35.458 64.348,34.917 C64.659,34.377 64.476,33.683 63.939,33.371 ZM87.547,28.661 L88.872,26.349 C89.184,25.806 89.001,25.115 88.463,24.802 C87.926,24.490 87.239,24.674 86.928,25.215 L85.602,27.527 C85.291,28.067 85.474,28.759 86.011,29.072 C86.548,29.386 87.236,29.200 87.547,28.661 ZM93.354,35.329 L95.650,33.995 C96.187,33.681 96.370,32.990 96.059,32.449 C95.749,31.909 95.061,31.724 94.524,32.037 L92.228,33.372 C91.690,33.684 91.508,34.377 91.819,34.917 C92.129,35.459 92.817,35.642 93.354,35.329 ZM79.210,25.802 L79.210,23.133 C79.210,22.507 78.705,21.999 78.083,21.999 C77.461,21.999 76.957,22.507 76.957,23.133 L76.957,25.802 C76.957,26.428 77.461,26.936 78.083,26.936 C78.705,26.936 79.210,26.428 79.210,25.802 ZM75.153,64.559 C75.253,65.162 75.648,65.670 76.182,65.922 L80.107,65.922 C80.641,65.670 81.036,65.162 81.137,64.559 L75.153,64.559 ZM75.081,62.292 L81.208,62.292 C82.051,62.292 82.764,61.711 82.974,60.927 L73.314,60.927 C73.525,61.711 74.239,62.292 75.081,62.292 ZM82.977,58.661 C83.819,58.661 84.533,58.080 84.743,57.297 L71.424,57.297 C71.634,58.080 72.348,58.661 73.191,58.661 L82.977,58.661 Z" class="fun-1"/>
  </g>
</svg>
